<?xml version="1.0" encoding="utf-8" standalone="no"?>
<!DOCTYPE svg PUBLIC "-//W3C//DTD SVG 1.1//EN"
  "http://www.w3.org/Graphics/SVG/1.1/DTD/svg11.dtd">
<svg xmlns:xlink="http://www.w3.org/1999/xlink" width="288pt" height="288pt" viewBox="0 0 288 288" xmlns="http://www.w3.org/2000/svg" version="1.1">
 <metadata>
  <rdf:RDF xmlns:dc="http://purl.org/dc/elements/1.1/" xmlns:cc="http://creativecommons.org/ns#" xmlns:rdf="http://www.w3.org/1999/02/22-rdf-syntax-ns#">
   <cc:Work>
    <dc:type rdf:resource="http://purl.org/dc/dcmitype/StillImage"/>
    <dc:date>2025-07-01T18:22:56.675708</dc:date>
    <dc:format>image/svg+xml</dc:format>
    <dc:creator>
     <cc:Agent>
      <dc:title>Matplotlib v3.6.3, https://matplotlib.org/</dc:title>
     </cc:Agent>
    </dc:creator>
   </cc:Work>
  </rdf:RDF>
 </metadata>
 <defs>
  <style type="text/css">*{stroke-linejoin: round; stroke-linecap: butt}</style>
 </defs>
 <g id="figure_1">
  <g id="patch_1">
   <path d="M 0 288 
L 288 288 
L 288 0 
L 0 0 
z
" style="fill: #ffffff"/>
  </g>
  <g id="axes_1">
   <g id="patch_2">
    <path d="M 34.119465 252.746209 
L 279.14677 252.746209 
L 279.14677 18.962865 
L 34.119465 18.962865 
z
" style="fill: #ffffff"/>
   </g>
   <g id="matplotlib.axis_1">
    <g id="xtick_1">
     <g id="line2d_1">
      <defs>
       <path id="m475d5f42fd" d="M 0 0 
L 0 3.5 
" style="stroke: #000000; stroke-width: 0.8"/>
      </defs>
      <g>
       <use xlink:href="#m475d5f42fd" x="34.119465" y="252.746209" style="stroke: #000000; stroke-width: 0.8"/>
      </g>
     </g>
     <g id="text_1">
      <!-- $\mathdefault{0}$ -->
      <g transform="translate(31.192969 268.048389) scale(0.12 -0.12)">
       <defs>
        <path id="CMR17-30" d="M 2688 2038 
C 2688 2430 2682 3099 2413 3613 
C 2176 4063 1798 4224 1466 4224 
C 1158 4224 768 4082 525 3620 
C 269 3137 243 2539 243 2038 
C 243 1671 250 1112 448 623 
C 723 -39 1216 -128 1466 -128 
C 1760 -128 2208 -7 2470 604 
C 2662 1048 2688 1568 2688 2038 
z
M 1466 -26 
C 1056 -26 813 328 723 816 
C 653 1196 653 1749 653 2109 
C 653 2604 653 3015 736 3407 
C 858 3954 1216 4121 1466 4121 
C 1728 4121 2067 3947 2189 3420 
C 2272 3054 2278 2623 2278 2109 
C 2278 1691 2278 1176 2202 797 
C 2067 96 1690 -26 1466 -26 
z
" transform="scale(0.015625)"/>
       </defs>
       <use xlink:href="#CMR17-30" transform="scale(0.996264)"/>
      </g>
     </g>
    </g>
    <g id="xtick_2">
     <g id="line2d_2">
      <g>
       <use xlink:href="#m475d5f42fd" x="83.124926" y="252.746209" style="stroke: #000000; stroke-width: 0.8"/>
      </g>
     </g>
     <g id="text_2">
      <!-- $\mathdefault{2}$ -->
      <g transform="translate(80.19843 268.048389) scale(0.12 -0.12)">
       <defs>
        <path id="CMR17-32" d="M 2669 990 
L 2554 990 
C 2490 537 2438 460 2413 422 
C 2381 371 1920 371 1830 371 
L 602 371 
C 832 620 1280 1073 1824 1596 
C 2214 1966 2669 2400 2669 3033 
C 2669 3788 2067 4224 1395 4224 
C 691 4224 262 3603 262 3027 
C 262 2777 448 2745 525 2745 
C 589 2745 781 2783 781 3007 
C 781 3206 614 3264 525 3264 
C 486 3264 448 3257 422 3244 
C 544 3788 915 4057 1306 4057 
C 1862 4057 2227 3616 2227 3033 
C 2227 2477 1901 1998 1536 1583 
L 262 147 
L 262 0 
L 2515 0 
L 2669 990 
z
" transform="scale(0.015625)"/>
       </defs>
       <use xlink:href="#CMR17-32" transform="scale(0.996264)"/>
      </g>
     </g>
    </g>
    <g id="xtick_3">
     <g id="line2d_3">
      <g>
       <use xlink:href="#m475d5f42fd" x="132.130387" y="252.746209" style="stroke: #000000; stroke-width: 0.8"/>
      </g>
     </g>
     <g id="text_3">
      <!-- $\mathdefault{4}$ -->
      <g transform="translate(129.203891 268.048389) scale(0.12 -0.12)">
       <defs>
        <path id="CMR17-34" d="M 2150 4147 
C 2150 4281 2144 4288 2029 4288 
L 128 1254 
L 128 1088 
L 1779 1088 
L 1779 460 
C 1779 230 1766 166 1318 166 
L 1197 166 
L 1197 0 
C 1402 12 1747 12 1965 12 
C 2182 12 2528 12 2733 0 
L 2733 166 
L 2611 166 
C 2163 166 2150 230 2150 460 
L 2150 1088 
L 2803 1088 
L 2803 1254 
L 2150 1254 
L 2150 4147 
z
M 1798 3723 
L 1798 1254 
L 256 1254 
L 1798 3723 
z
" transform="scale(0.015625)"/>
       </defs>
       <use xlink:href="#CMR17-34" transform="scale(0.996264)"/>
      </g>
     </g>
    </g>
    <g id="xtick_4">
     <g id="line2d_4">
      <g>
       <use xlink:href="#m475d5f42fd" x="181.135848" y="252.746209" style="stroke: #000000; stroke-width: 0.8"/>
      </g>
     </g>
     <g id="text_4">
      <!-- $\mathdefault{6}$ -->
      <g transform="translate(178.209353 268.048389) scale(0.12 -0.12)">
       <defs>
        <path id="CMR17-36" d="M 678 2198 
C 678 3712 1395 4076 1811 4076 
C 1946 4076 2272 4049 2400 3782 
C 2298 3782 2106 3782 2106 3558 
C 2106 3385 2246 3328 2336 3328 
C 2394 3328 2566 3353 2566 3571 
C 2566 3987 2246 4224 1805 4224 
C 1043 4224 243 3411 243 2011 
C 243 257 966 -128 1478 -128 
C 2099 -128 2688 431 2688 1295 
C 2688 2101 2170 2688 1517 2688 
C 1126 2688 838 2430 678 1979 
L 678 2198 
z
M 1478 25 
C 691 25 691 1212 691 1450 
C 691 1914 909 2585 1504 2585 
C 1613 2585 1926 2585 2138 2140 
C 2253 1889 2253 1624 2253 1302 
C 2253 954 2253 696 2118 438 
C 1978 173 1773 25 1478 25 
z
" transform="scale(0.015625)"/>
       </defs>
       <use xlink:href="#CMR17-36" transform="scale(0.996264)"/>
      </g>
     </g>
    </g>
    <g id="xtick_5">
     <g id="line2d_5">
      <g>
       <use xlink:href="#m475d5f42fd" x="230.141309" y="252.746209" style="stroke: #000000; stroke-width: 0.8"/>
      </g>
     </g>
     <g id="text_5">
      <!-- $\mathdefault{8}$ -->
      <g transform="translate(227.214814 268.048389) scale(0.12 -0.12)">
       <defs>
        <path id="CMR17-38" d="M 1741 2289 
C 2144 2494 2554 2803 2554 3298 
C 2554 3884 1990 4224 1472 4224 
C 890 4224 378 3800 378 3215 
C 378 3054 416 2777 666 2533 
C 730 2469 998 2276 1171 2154 
C 883 2006 211 1652 211 945 
C 211 282 838 -128 1459 -128 
C 2144 -128 2720 366 2720 1022 
C 2720 1607 2330 1877 2074 2051 
L 1741 2289 
z
M 902 2855 
C 851 2887 595 3086 595 3388 
C 595 3781 998 4076 1459 4076 
C 1965 4076 2336 3716 2336 3298 
C 2336 2700 1670 2359 1638 2359 
C 1632 2359 1626 2359 1574 2398 
L 902 2855 
z
M 2080 1536 
C 2176 1466 2483 1253 2483 861 
C 2483 385 2010 25 1472 25 
C 890 25 448 443 448 951 
C 448 1459 838 1884 1280 2083 
L 2080 1536 
z
" transform="scale(0.015625)"/>
       </defs>
       <use xlink:href="#CMR17-38" transform="scale(0.996264)"/>
      </g>
     </g>
    </g>
    <g id="xtick_6">
     <g id="line2d_6">
      <g>
       <use xlink:href="#m475d5f42fd" x="279.14677" y="252.746209" style="stroke: #000000; stroke-width: 0.8"/>
      </g>
     </g>
     <g id="text_6">
      <!-- $\mathdefault{10}$ -->
      <g transform="translate(273.293779 268.048389) scale(0.12 -0.12)">
       <defs>
        <path id="CMR17-31" d="M 1702 4083 
C 1702 4217 1696 4224 1606 4224 
C 1357 3927 979 3833 621 3820 
C 602 3820 570 3820 563 3808 
C 557 3795 557 3782 557 3648 
C 755 3648 1088 3686 1344 3839 
L 1344 467 
C 1344 243 1331 166 781 166 
L 589 166 
L 589 0 
C 896 6 1216 12 1523 12 
C 1830 12 2150 6 2458 0 
L 2458 166 
L 2266 166 
C 1715 166 1702 236 1702 467 
L 1702 4083 
z
" transform="scale(0.015625)"/>
       </defs>
       <use xlink:href="#CMR17-31" transform="scale(0.996264)"/>
       <use xlink:href="#CMR17-30" transform="translate(45.690477 0) scale(0.996264)"/>
      </g>
     </g>
    </g>
    <g id="text_7">
     <!-- $$r$$ -->
     <g transform="translate(153.995463 282.675164) scale(0.12 -0.12)">
      <defs>
       <path id="CMMI12-72" d="M 2490 2633 
C 2291 2598 2189 2457 2189 2316 
C 2189 2163 2310 2111 2400 2111 
C 2579 2111 2726 2265 2726 2457 
C 2726 2651 2528 2816 2208 2816 
C 1952 2816 1658 2700 1389 2335 
C 1344 2660 1088 2816 832 2816 
C 582 2816 454 2642 378 2508 
C 269 2278 173 1892 173 1860 
C 173 1834 198 1801 243 1801 
C 294 1801 301 1808 339 1957 
C 435 2342 557 2687 813 2687 
C 966 2687 1011 2604 1011 2419 
C 1011 2278 947 2028 902 1827 
L 723 1130 
C 698 1007 627 716 595 600 
C 550 432 480 128 480 96 
C 480 6 550 -64 646 -64 
C 717 -64 838 -20 877 109 
C 896 160 1133 1136 1171 1285 
C 1203 1427 1242 1562 1274 1705 
C 1299 1795 1325 1898 1344 1982 
C 1363 2040 1536 2355 1696 2495 
C 1773 2566 1939 2687 2202 2687 
C 2304 2687 2406 2674 2490 2633 
z
" transform="scale(0.015625)"/>
      </defs>
      <use xlink:href="#CMMI12-72" transform="scale(0.996264)"/>
     </g>
    </g>
   </g>
   <g id="matplotlib.axis_2">
    <g id="ytick_1">
     <g id="line2d_7">
      <defs>
       <path id="mefc9312864" d="M 0 0 
L -3.5 0 
" style="stroke: #000000; stroke-width: 0.8"/>
      </defs>
      <g>
       <use xlink:href="#mefc9312864" x="34.119465" y="252.746209" style="stroke: #000000; stroke-width: 0.8"/>
      </g>
     </g>
     <g id="text_8">
      <!-- $\mathdefault{0}$ -->
      <g transform="translate(21.266474 256.897299) scale(0.12 -0.12)">
       <use xlink:href="#CMR17-30" transform="scale(0.996264)"/>
      </g>
     </g>
    </g>
    <g id="ytick_2">
     <g id="line2d_8">
      <g>
       <use xlink:href="#mefc9312864" x="34.119465" y="205.98954" style="stroke: #000000; stroke-width: 0.8"/>
      </g>
     </g>
     <g id="text_9">
      <!-- $\mathdefault{1}$ -->
      <g transform="translate(21.266474 210.14063) scale(0.12 -0.12)">
       <use xlink:href="#CMR17-31" transform="scale(0.996264)"/>
      </g>
     </g>
    </g>
    <g id="ytick_3">
     <g id="line2d_9">
      <g>
       <use xlink:href="#mefc9312864" x="34.119465" y="159.232871" style="stroke: #000000; stroke-width: 0.8"/>
      </g>
     </g>
     <g id="text_10">
      <!-- $\mathdefault{2}$ -->
      <g transform="translate(21.266474 163.383961) scale(0.12 -0.12)">
       <use xlink:href="#CMR17-32" transform="scale(0.996264)"/>
      </g>
     </g>
    </g>
    <g id="ytick_4">
     <g id="line2d_10">
      <g>
       <use xlink:href="#mefc9312864" x="34.119465" y="112.476202" style="stroke: #000000; stroke-width: 0.8"/>
      </g>
     </g>
     <g id="text_11">
      <!-- $\mathdefault{3}$ -->
      <g transform="translate(21.266474 116.627292) scale(0.12 -0.12)">
       <defs>
        <path id="CMR17-33" d="M 1414 2176 
C 1984 2176 2234 1673 2234 1094 
C 2234 322 1824 25 1453 25 
C 1114 25 563 193 390 691 
C 422 678 454 678 486 678 
C 640 678 755 780 755 947 
C 755 1132 614 1216 486 1216 
C 378 1216 211 1164 211 927 
C 211 335 787 -128 1466 -128 
C 2176 -128 2720 432 2720 1087 
C 2720 1718 2208 2176 1600 2246 
C 2086 2347 2554 2776 2554 3353 
C 2554 3856 2048 4224 1472 4224 
C 890 4224 378 3862 378 3347 
C 378 3123 544 3084 627 3084 
C 762 3084 877 3167 877 3334 
C 877 3500 762 3584 627 3584 
C 602 3584 570 3584 544 3571 
C 730 3999 1235 4076 1459 4076 
C 1683 4076 2106 3966 2106 3347 
C 2106 3167 2080 2851 1862 2574 
C 1670 2329 1453 2316 1242 2297 
C 1210 2297 1062 2284 1037 2284 
C 992 2278 966 2272 966 2227 
C 966 2182 973 2176 1101 2176 
L 1414 2176 
z
" transform="scale(0.015625)"/>
       </defs>
       <use xlink:href="#CMR17-33" transform="scale(0.996264)"/>
      </g>
     </g>
    </g>
    <g id="ytick_5">
     <g id="line2d_11">
      <g>
       <use xlink:href="#mefc9312864" x="34.119465" y="65.719534" style="stroke: #000000; stroke-width: 0.8"/>
      </g>
     </g>
     <g id="text_12">
      <!-- $\mathdefault{4}$ -->
      <g transform="translate(21.266474 69.870624) scale(0.12 -0.12)">
       <use xlink:href="#CMR17-34" transform="scale(0.996264)"/>
      </g>
     </g>
    </g>
    <g id="ytick_6">
     <g id="line2d_12">
      <g>
       <use xlink:href="#mefc9312864" x="34.119465" y="18.962865" style="stroke: #000000; stroke-width: 0.8"/>
      </g>
     </g>
     <g id="text_13">
      <!-- $\mathdefault{5}$ -->
      <g transform="translate(21.266474 23.113955) scale(0.12 -0.12)">
       <defs>
        <path id="CMR17-35" d="M 730 3750 
C 794 3724 1056 3641 1325 3641 
C 1920 3641 2246 3961 2432 4140 
C 2432 4191 2432 4224 2394 4224 
C 2387 4224 2374 4224 2323 4198 
C 2099 4102 1837 4032 1517 4032 
C 1325 4032 1037 4055 723 4191 
C 653 4224 640 4224 634 4224 
C 602 4224 595 4217 595 4090 
L 595 2231 
C 595 2113 595 2080 659 2080 
C 691 2080 704 2093 736 2139 
C 941 2435 1222 2560 1542 2560 
C 1766 2560 2246 2415 2246 1293 
C 2246 1087 2246 716 2054 422 
C 1894 159 1645 25 1370 25 
C 947 25 518 319 403 812 
C 429 806 480 793 506 793 
C 589 793 749 838 749 1036 
C 749 1209 627 1280 506 1280 
C 358 1280 262 1190 262 1011 
C 262 454 704 -128 1382 -128 
C 2042 -128 2669 441 2669 1267 
C 2669 2054 2170 2662 1549 2662 
C 1222 2662 947 2540 730 2304 
L 730 3750 
z
" transform="scale(0.015625)"/>
       </defs>
       <use xlink:href="#CMR17-35" transform="scale(0.996264)"/>
      </g>
     </g>
    </g>
    <g id="text_14">
     <!-- $$v_{int}^{\alpha\beta}$$ -->
     <g transform="translate(14.202661 144.223848) rotate(-90) scale(0.12 -0.12)">
      <defs>
       <path id="CMMI12-76" d="M 2925 2388 
C 2925 2790 2720 2816 2669 2816 
C 2515 2816 2374 2662 2374 2534 
C 2374 2458 2419 2413 2445 2388 
C 2509 2330 2675 2158 2675 1826 
C 2675 1558 2291 64 1523 64 
C 1133 64 1056 389 1056 625 
C 1056 945 1203 1392 1376 1851 
C 1478 2113 1504 2177 1504 2305 
C 1504 2573 1312 2816 998 2816 
C 410 2816 173 1890 173 1838 
C 173 1813 198 1781 243 1781 
C 301 1781 307 1807 333 1896 
C 486 2445 736 2687 979 2687 
C 1037 2687 1146 2687 1146 2477 
C 1146 2311 1075 2126 979 1883 
C 672 1066 672 868 672 715 
C 672 574 691 313 890 134 
C 1120 -64 1440 -64 1498 -64 
C 2560 -64 2925 2024 2925 2388 
z
" transform="scale(0.015625)"/>
       <path id="CMMI12-b" d="M 2963 1615 
C 2963 2234 2611 2816 1933 2816 
C 1094 2816 256 1902 256 996 
C 256 440 602 -64 1254 -64 
C 1651 -64 2125 89 2579 472 
C 2669 115 2867 -64 3142 -64 
C 3488 -64 3661 293 3661 376 
C 3661 434 3616 434 3597 434 
C 3546 434 3539 415 3520 364 
C 3462 204 3315 64 3162 64 
C 2963 64 2963 472 2963 862 
C 3616 1641 3770 2445 3770 2451 
C 3770 2509 3718 2509 3699 2509 
C 3642 2509 3635 2490 3610 2375 
C 3526 2094 3360 1596 2963 1072 
L 2963 1615 
z
M 2560 625 
C 1997 121 1491 64 1267 64 
C 813 64 685 466 685 766 
C 685 1040 826 1692 1024 2043 
C 1286 2490 1645 2687 1933 2687 
C 2554 2687 2554 1877 2554 1340 
C 2554 1181 2547 1015 2547 855 
C 2547 728 2554 696 2560 625 
z
" transform="scale(0.015625)"/>
       <path id="CMMI12-c" d="M 3622 3739 
C 3622 4131 3296 4544 2714 4544 
C 1888 4544 1363 3510 1197 2830 
L 186 -1152 
C 173 -1204 211 -1216 243 -1216 
C 288 -1216 320 -1210 326 -1178 
L 774 592 
C 838 231 1190 -64 1568 -64 
C 2483 -64 3347 657 3347 1618 
C 3347 1863 3290 2108 3155 2314 
C 3078 2437 2982 2527 2880 2599 
C 3341 2823 3622 3222 3622 3739 
z
M 2509 2605 
C 2406 2571 2304 2560 2182 2560 
C 2093 2560 2010 2553 1894 2588 
C 1958 2627 2054 2639 2189 2639 
C 2304 2639 2419 2627 2509 2605 
z
M 3290 3798 
C 3290 3438 3117 2915 2701 2684 
C 2579 2723 2413 2752 2272 2752 
C 2138 2752 1754 2765 1754 2582 
C 1754 2411 2106 2430 2214 2430 
C 2381 2430 2528 2469 2682 2514 
C 2886 2347 2976 2127 2976 1805 
C 2976 1431 2874 1128 2752 850 
C 2541 373 2042 64 1600 64 
C 1133 64 890 438 890 876 
C 890 934 890 1018 915 1115 
L 1331 2784 
C 1542 3641 2080 4413 2701 4413 
C 3162 4413 3290 4086 3290 3798 
z
" transform="scale(0.015625)"/>
       <path id="CMMI12-69" d="M 1811 913 
C 1811 945 1786 970 1747 970 
C 1690 970 1683 951 1651 842 
C 1485 261 1222 64 1011 64 
C 934 64 845 83 845 274 
C 845 447 922 638 992 830 
L 1440 2017 
C 1459 2068 1504 2183 1504 2305 
C 1504 2573 1312 2816 998 2816 
C 410 2816 173 1890 173 1838 
C 173 1813 198 1781 243 1781 
C 301 1781 307 1807 333 1896 
C 486 2432 730 2687 979 2687 
C 1037 2687 1146 2681 1146 2477 
C 1146 2311 1062 2100 1011 1960 
L 563 772 
C 525 670 486 568 486 453 
C 486 166 685 -64 992 -64 
C 1581 -64 1811 868 1811 913 
z
M 1760 4012 
C 1760 4108 1683 4224 1542 4224 
C 1395 4224 1229 4083 1229 3916 
C 1229 3756 1363 3705 1440 3705 
C 1613 3705 1760 3871 1760 4012 
z
" transform="scale(0.015625)"/>
       <path id="CMMI12-6e" d="M 1318 1870 
C 1331 1909 1491 2228 1728 2432 
C 1894 2585 2112 2687 2362 2687 
C 2618 2687 2707 2496 2707 2241 
C 2707 1877 2445 1149 2317 804 
C 2259 651 2227 568 2227 453 
C 2227 166 2426 -64 2733 -64 
C 3328 -64 3552 874 3552 913 
C 3552 945 3526 970 3488 970 
C 3430 970 3424 951 3392 842 
C 3245 319 3002 64 2752 64 
C 2688 64 2586 70 2586 274 
C 2586 434 2656 625 2694 715 
C 2822 1066 3091 1781 3091 2145 
C 3091 2528 2867 2816 2381 2816 
C 1811 2816 1510 2413 1395 2253 
C 1376 2617 1114 2816 832 2816 
C 627 2816 486 2694 378 2477 
C 262 2247 173 1864 173 1838 
C 173 1813 198 1781 243 1781 
C 294 1781 301 1787 339 1934 
C 442 2324 557 2687 813 2687 
C 960 2687 1011 2585 1011 2394 
C 1011 2253 947 2004 902 1807 
L 723 1117 
C 698 996 627 708 595 593 
C 550 427 480 127 480 95 
C 480 6 550 -64 646 -64 
C 723 -64 813 -26 864 70 
C 877 102 934 325 966 453 
L 1107 1028 
L 1318 1870 
z
" transform="scale(0.015625)"/>
       <path id="CMMI12-74" d="M 1286 2566 
L 1875 2566 
C 1997 2566 2061 2566 2061 2681 
C 2061 2752 2022 2752 1894 2752 
L 1331 2752 
L 1568 3664 
C 1594 3752 1594 3764 1594 3808 
C 1594 3910 1510 3968 1427 3968 
C 1376 3968 1229 3948 1178 3746 
L 928 2752 
L 326 2752 
C 198 2752 141 2752 141 2630 
C 141 2566 186 2566 307 2566 
L 877 2566 
L 454 881 
C 403 657 384 593 384 510 
C 384 210 595 -64 954 -64 
C 1600 -64 1946 868 1946 913 
C 1946 951 1920 970 1882 970 
C 1869 970 1843 970 1830 944 
C 1824 938 1818 932 1773 830 
C 1638 510 1344 64 973 64 
C 781 64 768 223 768 364 
C 768 370 768 491 787 568 
L 1286 2566 
z
" transform="scale(0.015625)"/>
      </defs>
      <use xlink:href="#CMMI12-76" transform="scale(0.996264)"/>
      <use xlink:href="#CMMI12-b" transform="translate(50.735173 47.87587) scale(0.697382)"/>
      <use xlink:href="#CMMI12-c" transform="translate(94.611698 47.87587) scale(0.697382)"/>
      <use xlink:href="#CMMI12-69" transform="translate(47.160581 -27.34372) scale(0.697382)"/>
      <use xlink:href="#CMMI12-6e" transform="translate(70.455488 -27.34372) scale(0.697382)"/>
      <use xlink:href="#CMMI12-74" transform="translate(111.216331 -27.34372) scale(0.697382)"/>
     </g>
    </g>
   </g>
   <g id="line2d_13">
    <path d="M 38.36065 -1 
L 39.020011 61.340596 
L 41.470284 137.285568 
L 43.920557 174.391378 
L 46.37083 196.027503 
L 48.821103 209.978536 
L 51.271376 219.576674 
L 53.721649 226.484802 
L 56.171922 231.624161 
L 58.622195 235.545392 
L 61.072468 238.59717 
L 63.522741 241.010511 
L 65.973014 242.944148 
L 68.423287 244.510457 
L 70.87356 245.790994 
L 73.323833 246.846203 
L 75.774106 247.721695 
L 78.224379 248.452417 
L 80.674653 249.065509 
L 83.124926 249.582295 
L 85.575199 250.019707 
L 88.025472 250.391306 
L 90.475745 250.708048 
L 92.926018 250.978847 
L 95.376291 251.211 
L 97.826564 251.410522 
L 100.276837 251.582392 
L 102.72711 251.730753 
L 105.177383 251.85907 
L 107.627656 251.97025 
L 110.077929 252.066741 
L 112.528202 252.150614 
L 114.978475 252.223623 
L 117.428748 252.287261 
L 119.879021 252.342801 
L 122.329294 252.391329 
L 124.779567 252.433779 
L 127.229841 252.47095 
L 129.680114 252.503531 
L 132.130387 252.532114 
L 134.58066 252.557213 
L 137.030933 252.57927 
L 139.481206 252.598669 
L 141.931479 252.615744 
L 144.381752 252.630782 
L 146.832025 252.644037 
L 149.282298 252.655727 
L 151.732571 252.666043 
L 154.182844 252.675152 
L 156.633117 252.6832 
L 159.08339 252.690314 
L 161.533663 252.696606 
L 163.983936 252.702173 
L 166.434209 252.707101 
L 168.884482 252.711466 
L 171.334755 252.715334 
L 173.785029 252.718762 
L 176.235302 252.721802 
L 178.685575 252.724499 
L 181.135848 252.726892 
L 183.586121 252.729017 
L 186.036394 252.730904 
L 188.486667 252.73258 
L 190.93694 252.73407 
L 193.387213 252.735394 
L 195.837486 252.736572 
L 198.287759 252.737619 
L 200.738032 252.738551 
L 203.188305 252.73938 
L 205.638578 252.740118 
L 208.088851 252.740775 
L 210.539124 252.741361 
L 212.989397 252.741882 
L 215.43967 252.742347 
L 217.889943 252.742761 
L 220.340216 252.74313 
L 222.79049 252.743459 
L 225.240763 252.743753 
L 227.691036 252.744015 
L 230.141309 252.744248 
L 232.591582 252.744457 
L 235.041855 252.744643 
L 237.492128 252.744809 
L 239.942401 252.744957 
L 242.392674 252.74509 
L 244.842947 252.745208 
L 247.29322 252.745314 
L 249.743493 252.745408 
L 252.193766 252.745492 
L 254.644039 252.745568 
L 257.094312 252.745635 
L 259.544585 252.745695 
L 261.994858 252.745749 
L 264.445131 252.745797 
L 266.895404 252.74584 
L 269.345678 252.745879 
L 271.795951 252.745913 
L 274.246224 252.745944 
L 276.696497 252.745972 
" clip-path="url(#p70eb882dba)" style="fill: none; stroke: #ff0000; stroke-width: 2; stroke-linecap: square"/>
   </g>
   <g id="line2d_14">
    <path d="M 34.119465 205.98954 
L 36.569738 210.439025 
L 39.020011 214.465086 
L 41.470284 218.108017 
L 43.920557 221.404276 
L 46.37083 224.386856 
L 48.821103 227.085605 
L 51.271376 229.527534 
L 53.721649 231.737083 
L 56.171922 233.736366 
L 58.622195 235.545392 
L 61.072468 237.182266 
L 63.522741 238.663371 
L 65.973014 240.00353 
L 68.423287 241.216156 
L 70.87356 242.313386 
L 73.323833 243.3062 
L 75.774106 244.204536 
L 78.224379 245.017383 
L 80.674653 245.752878 
L 83.124926 246.418382 
L 85.575199 247.020554 
L 88.025472 247.565422 
L 90.475745 248.058439 
L 92.926018 248.50454 
L 95.376291 248.908188 
L 97.826564 249.273424 
L 100.276837 249.603903 
L 102.72711 249.902933 
L 105.177383 250.173506 
L 107.627656 250.418331 
L 110.077929 250.639858 
L 112.528202 250.840304 
L 114.978475 251.021675 
L 117.428748 251.185786 
L 119.879021 251.33428 
L 122.329294 251.468643 
L 124.779567 251.590219 
L 127.229841 251.700226 
L 129.680114 251.799765 
L 132.130387 251.889831 
L 134.58066 251.971326 
L 137.030933 252.045066 
L 139.481206 252.111788 
L 141.931479 252.172161 
L 144.381752 252.226789 
L 146.832025 252.276219 
L 149.282298 252.320944 
L 151.732571 252.361413 
L 154.182844 252.398031 
L 156.633117 252.431165 
L 159.08339 252.461145 
L 161.533663 252.488273 
L 163.983936 252.512819 
L 166.434209 252.535029 
L 168.884482 252.555125 
L 171.334755 252.573309 
L 173.785029 252.589763 
L 176.235302 252.60465 
L 178.685575 252.618122 
L 181.135848 252.630311 
L 183.586121 252.64134 
L 186.036394 252.651319 
L 188.486667 252.660349 
L 190.93694 252.66852 
L 193.387213 252.675913 
L 195.837486 252.682603 
L 198.287759 252.688656 
L 200.738032 252.694132 
L 203.188305 252.699088 
L 205.638578 252.703572 
L 208.088851 252.70763 
L 210.539124 252.711301 
L 212.989397 252.714623 
L 215.43967 252.717629 
L 217.889943 252.720348 
L 220.340216 252.722809 
L 222.79049 252.725036 
L 225.240763 252.727051 
L 227.691036 252.728874 
L 230.141309 252.730524 
L 232.591582 252.732016 
L 235.041855 252.733367 
L 237.492128 252.734589 
L 239.942401 252.735695 
L 242.392674 252.736695 
L 244.842947 252.737601 
L 247.29322 252.73842 
L 249.743493 252.739161 
L 252.193766 252.739832 
L 254.644039 252.740439 
L 257.094312 252.740988 
L 259.544585 252.741485 
L 261.994858 252.741934 
L 264.445131 252.742341 
L 266.895404 252.742709 
L 269.345678 252.743042 
L 271.795951 252.743343 
L 274.246224 252.743616 
L 276.696497 252.743863 
" clip-path="url(#p70eb882dba)" style="fill: none; stroke: #0000ff; stroke-linecap: square"/>
   </g>
   <g id="line2d_15">
    <path d="M 38.810781 -1 
L 39.020011 18.962865 
L 41.470284 96.890646 
L 43.920557 135.854537 
L 46.37083 159.232871 
L 48.821103 174.818428 
L 51.271376 185.950968 
L 53.721649 194.300373 
L 56.171922 200.794355 
L 58.622195 205.98954 
L 61.072468 210.240146 
L 63.522741 213.782318 
L 65.973014 216.779541 
L 68.423287 219.348588 
L 70.87356 221.575096 
L 73.323833 223.523291 
L 75.774106 225.242286 
L 78.224379 226.770282 
L 80.674653 228.137436 
L 83.124926 229.367874 
L 85.575199 230.481128 
L 88.025472 231.493178 
L 90.475745 232.417222 
L 92.926018 233.264264 
L 95.376291 234.043541 
L 97.826564 234.762875 
L 100.276837 235.428924 
L 102.72711 236.047399 
L 105.177383 236.62322 
L 107.627656 237.160653 
L 110.077929 237.663412 
L 112.528202 238.13475 
L 114.978475 238.577521 
L 117.428748 238.994247 
L 119.879021 239.387161 
L 122.329294 239.758245 
L 124.779567 240.109271 
L 127.229841 240.441822 
L 129.680114 240.757319 
L 132.130387 241.057042 
L 134.58066 241.342143 
L 137.030933 241.613669 
L 139.481206 241.872565 
L 141.931479 242.119693 
L 144.381752 242.355838 
L 146.832025 242.581716 
L 149.282298 242.797981 
L 151.732571 243.005236 
L 154.182844 243.204032 
L 156.633117 243.394875 
L 159.08339 243.578235 
L 161.533663 243.754542 
L 163.983936 243.924196 
L 166.434209 244.087566 
L 168.884482 244.244996 
L 171.334755 244.396804 
L 173.785029 244.543285 
L 176.235302 244.684714 
L 178.685575 244.82135 
L 181.135848 244.953431 
L 183.586121 245.081181 
L 186.036394 245.204811 
L 188.486667 245.324515 
L 190.93694 245.440479 
L 193.387213 245.552875 
L 195.837486 245.661865 
L 198.287759 245.767602 
L 200.738032 245.870228 
L 203.188305 245.96988 
L 205.638578 246.066685 
L 208.088851 246.160763 
L 210.539124 246.252227 
L 212.989397 246.341186 
L 215.43967 246.42774 
L 217.889943 246.511986 
L 220.340216 246.594016 
L 222.79049 246.673914 
L 225.240763 246.751764 
L 227.691036 246.827643 
L 230.141309 246.901625 
L 232.591582 246.973781 
L 235.041855 247.044176 
L 237.492128 247.112875 
L 239.942401 247.179939 
L 242.392674 247.245424 
L 244.842947 247.309387 
L 247.29322 247.371879 
L 249.743493 247.432951 
L 252.193766 247.492651 
L 254.644039 247.551023 
L 257.094312 247.608113 
L 259.544585 247.663962 
L 261.994858 247.71861 
L 264.445131 247.772095 
L 266.895404 247.824454 
L 269.345678 247.875723 
L 271.795951 247.925934 
L 274.246224 247.97512 
L 276.696497 248.023313 
" clip-path="url(#p70eb882dba)" style="fill: none; stroke: #008000; stroke-linecap: square"/>
   </g>
   <g id="patch_3">
    <path d="M 34.119465 252.746209 
L 34.119465 18.962865 
" style="fill: none; stroke: #000000; stroke-width: 0.8; stroke-linejoin: miter; stroke-linecap: square"/>
   </g>
   <g id="patch_4">
    <path d="M 279.14677 252.746209 
L 279.14677 18.962865 
" style="fill: none; stroke: #000000; stroke-width: 0.8; stroke-linejoin: miter; stroke-linecap: square"/>
   </g>
   <g id="patch_5">
    <path d="M 34.119465 252.746209 
L 279.14677 252.746209 
" style="fill: none; stroke: #000000; stroke-width: 0.8; stroke-linejoin: miter; stroke-linecap: square"/>
   </g>
   <g id="patch_6">
    <path d="M 34.119465 18.962865 
L 279.14677 18.962865 
" style="fill: none; stroke: #000000; stroke-width: 0.8; stroke-linejoin: miter; stroke-linecap: square"/>
   </g>
   <g id="text_15">
    <!-- $$r_{int}=1$$ -->
    <g transform="translate(133.754404 12.962865) scale(0.144 -0.144)">
     <defs>
      <path id="CMR17-3d" d="M 4115 2048 
C 4211 2048 4307 2048 4307 2156 
C 4307 2272 4198 2272 4090 2272 
L 512 2272 
C 403 2272 294 2272 294 2156 
C 294 2048 390 2048 486 2048 
L 4115 2048 
z
M 4090 927 
C 4198 927 4307 927 4307 1043 
C 4307 1152 4211 1152 4115 1152 
L 486 1152 
C 390 1152 294 1152 294 1043 
C 294 927 403 927 512 927 
L 4090 927 
z
" transform="scale(0.015625)"/>
     </defs>
     <use xlink:href="#CMMI12-72" transform="scale(0.996264)"/>
     <use xlink:href="#CMMI12-69" transform="translate(43.960894 -14.943915) scale(0.697382)"/>
     <use xlink:href="#CMMI12-6e" transform="translate(67.255802 -14.943915) scale(0.697382)"/>
     <use xlink:href="#CMMI12-74" transform="translate(108.016645 -14.943915) scale(0.697382)"/>
     <use xlink:href="#CMR17-3d" transform="translate(160.847095 0) scale(0.996264)"/>
     <use xlink:href="#CMR17-31" transform="translate(260.235892 0) scale(0.996264)"/>
    </g>
   </g>
   <g id="legend_1">
    <g id="patch_7">
     <path d="M 167.753226 107.765682 
L 270.74677 107.765682 
Q 273.14677 107.765682 273.14677 105.365682 
L 273.14677 27.362865 
Q 273.14677 24.962865 270.74677 24.962865 
L 167.753226 24.962865 
Q 165.353226 24.962865 165.353226 27.362865 
L 165.353226 105.365682 
Q 165.353226 107.765682 167.753226 107.765682 
z
" style="fill: #ffffff; opacity: 0.8; stroke: #cccccc; stroke-linejoin: miter"/>
    </g>
    <g id="line2d_16">
     <path d="M 170.153226 42.617 
L 182.153226 42.617 
L 194.153226 42.617 
" style="fill: none; stroke: #ff0000; stroke-width: 2; stroke-linecap: square"/>
    </g>
    <g id="text_16">
     <!-- $$\frac{\exp(-r/r_{int})}{r}$$ -->
     <g transform="translate(203.753226 46.817) scale(0.12 -0.12)">
      <defs>
       <path id="CMR17-65" d="M 2438 1503 
C 2464 1529 2464 1542 2464 1606 
C 2464 2251 2118 2816 1389 2816 
C 710 2816 173 2175 173 1394 
C 173 554 781 -64 1459 -64 
C 2176 -64 2458 619 2458 755 
C 2458 800 2419 800 2406 800 
C 2362 800 2355 787 2330 709 
C 2189 270 1837 51 1504 51 
C 1229 51 954 206 781 490 
C 582 819 582 1200 582 1503 
L 2438 1503 
z
M 589 1600 
C 634 2511 1126 2713 1382 2713 
C 1818 2713 2112 2308 2118 1600 
L 589 1600 
z
" transform="scale(0.015625)"/>
       <path id="CMR17-78" d="M 1664 1491 
C 1856 1740 2074 2022 2253 2233 
C 2464 2476 2707 2579 2989 2585 
L 2989 2752 
C 2880 2745 2656 2739 2541 2739 
C 2368 2739 2170 2739 2022 2752 
L 2022 2585 
C 2112 2572 2163 2508 2163 2419 
C 2163 2304 2099 2233 2067 2188 
L 1594 1587 
L 1030 2323 
C 973 2393 973 2406 973 2438 
C 973 2515 1037 2579 1146 2585 
L 1146 2752 
C 992 2739 717 2739 557 2739 
C 384 2739 179 2739 38 2752 
L 38 2585 
C 384 2585 461 2560 614 2368 
L 1350 1414 
C 1363 1401 1395 1363 1395 1344 
C 1395 1318 838 633 768 544 
C 480 198 179 172 6 166 
L 6 0 
C 115 6 339 12 454 12 
C 582 12 864 12 979 0 
L 979 166 
C 941 172 838 185 838 332 
C 838 448 890 518 947 595 
L 1478 1248 
L 2035 524 
C 2086 454 2163 358 2163 313 
C 2163 224 2086 172 1984 166 
L 1984 0 
C 2138 12 2413 12 2573 12 
C 2746 12 2950 12 3091 0 
L 3091 166 
C 2771 166 2675 179 2522 377 
L 1664 1491 
z
" transform="scale(0.015625)"/>
       <path id="CMR17-70" d="M 1408 -1114 
C 998 -1114 973 -1088 973 -834 
L 973 380 
C 1158 109 1427 -64 1766 -64 
C 2406 -64 3053 503 3053 1382 
C 3053 2196 2496 2816 1837 2816 
C 1453 2816 1139 2603 960 2345 
L 960 2816 
L 198 2745 
L 198 2577 
C 576 2577 634 2539 634 2228 
L 634 -834 
C 634 -1081 608 -1114 198 -1114 
L 198 -1280 
C 352 -1268 634 -1268 800 -1268 
C 966 -1268 1254 -1268 1408 -1280 
L 1408 -1114 
z
M 973 2015 
C 973 2106 973 2241 1222 2481 
C 1254 2506 1472 2700 1792 2700 
C 2259 2700 2643 2112 2643 1376 
C 2643 639 2234 38 1728 38 
C 1498 38 1248 148 1056 451 
C 973 594 973 632 973 736 
L 973 2015 
z
" transform="scale(0.015625)"/>
       <path id="CMR17-28" d="M 1958 -1562 
C 1958 -1556 1958 -1543 1939 -1524 
C 1645 -1223 858 -403 858 1596 
C 858 3595 1632 4408 1946 4729 
C 1946 4735 1958 4748 1958 4767 
C 1958 4787 1939 4800 1914 4800 
C 1843 4800 1299 4325 986 3620 
C 666 2909 576 2218 576 1603 
C 576 1141 621 360 1005 -467 
C 1312 -1133 1837 -1600 1914 -1600 
C 1946 -1600 1958 -1588 1958 -1562 
z
" transform="scale(0.015625)"/>
       <path id="CMSY10-0" d="M 4218 1472 
C 4326 1472 4442 1472 4442 1600 
C 4442 1728 4326 1728 4218 1728 
L 755 1728 
C 646 1728 531 1728 531 1600 
C 531 1472 646 1472 755 1472 
L 4218 1472 
z
" transform="scale(0.015625)"/>
       <path id="CMMI12-3d" d="M 2746 4563 
C 2746 4569 2784 4665 2784 4678 
C 2784 4755 2720 4800 2669 4800 
C 2637 4800 2579 4800 2528 4659 
L 384 -1364 
C 384 -1370 346 -1466 346 -1479 
C 346 -1556 410 -1600 461 -1600 
C 499 -1600 557 -1594 602 -1460 
L 2746 4563 
z
" transform="scale(0.015625)"/>
       <path id="CMR17-29" d="M 1683 1596 
C 1683 2057 1638 2839 1254 3665 
C 947 4332 422 4800 346 4800 
C 326 4800 301 4793 301 4761 
C 301 4748 307 4742 314 4729 
C 621 4408 1402 3595 1402 1603 
C 1402 -396 627 -1210 314 -1530 
C 307 -1543 301 -1549 301 -1562 
C 301 -1594 326 -1600 346 -1600 
C 416 -1600 960 -1127 1274 -422 
C 1594 289 1683 981 1683 1596 
z
" transform="scale(0.015625)"/>
      </defs>
      <use xlink:href="#CMR17-65" transform="translate(0 67.398045) scale(0.996264)"/>
      <use xlink:href="#CMR17-78" transform="translate(40.48566 67.398045) scale(0.996264)"/>
      <use xlink:href="#CMR17-70" transform="translate(88.778576 67.398045) scale(0.996264)"/>
      <use xlink:href="#CMR17-28" transform="translate(139.673946 67.398045) scale(0.996264)"/>
      <use xlink:href="#CMSY10-0" transform="translate(174.954714 67.398045) scale(0.996264)"/>
      <use xlink:href="#CMMI12-72" transform="translate(252.442182 67.398045) scale(0.996264)"/>
      <use xlink:href="#CMMI12-3d" transform="translate(299.112794 67.398045) scale(0.996264)"/>
      <use xlink:href="#CMMI12-72" transform="translate(347.887712 67.398045) scale(0.996264)"/>
      <use xlink:href="#CMMI12-69" transform="translate(391.848607 52.45413) scale(0.697382)"/>
      <use xlink:href="#CMMI12-6e" transform="translate(415.143514 52.45413) scale(0.697382)"/>
      <use xlink:href="#CMMI12-74" transform="translate(455.904357 52.45413) scale(0.697382)"/>
      <use xlink:href="#CMR17-29" transform="translate(481.060799 67.398045) scale(0.996264)"/>
      <use xlink:href="#CMMI12-72" transform="translate(234.835477 -68.338837) scale(0.996264)"/>
      <path d="M 0 22.914133 
L 516.341566 22.914133 
L 516.341566 26.899083 
L 0 26.899083 
L 0 22.914133 
z
"/>
     </g>
    </g>
    <g id="line2d_17">
     <path d="M 170.153226 65.784038 
L 182.153226 65.784038 
L 194.153226 65.784038 
" style="fill: none; stroke: #0000ff; stroke-linecap: square"/>
    </g>
    <g id="text_17">
     <!-- $$\exp(-r/r_{int})$$ -->
     <g transform="translate(203.753226 69.984038) scale(0.12 -0.12)">
      <use xlink:href="#CMR17-65" transform="scale(0.996264)"/>
      <use xlink:href="#CMR17-78" transform="translate(40.48566 0) scale(0.996264)"/>
      <use xlink:href="#CMR17-70" transform="translate(88.778576 0) scale(0.996264)"/>
      <use xlink:href="#CMR17-28" transform="translate(139.673946 0) scale(0.996264)"/>
      <use xlink:href="#CMSY10-0" transform="translate(174.954714 0) scale(0.996264)"/>
      <use xlink:href="#CMMI12-72" transform="translate(252.442182 0) scale(0.996264)"/>
      <use xlink:href="#CMMI12-3d" transform="translate(299.112794 0) scale(0.996264)"/>
      <use xlink:href="#CMMI12-72" transform="translate(347.887712 0) scale(0.996264)"/>
      <use xlink:href="#CMMI12-69" transform="translate(391.848607 -14.943915) scale(0.697382)"/>
      <use xlink:href="#CMMI12-6e" transform="translate(415.143514 -14.943915) scale(0.697382)"/>
      <use xlink:href="#CMMI12-74" transform="translate(455.904357 -14.943915) scale(0.697382)"/>
      <use xlink:href="#CMR17-29" transform="translate(481.060799 0) scale(0.996264)"/>
     </g>
    </g>
    <g id="line2d_18">
     <path d="M 170.153226 90.565019 
L 182.153226 90.565019 
L 194.153226 90.565019 
" style="fill: none; stroke: #008000; stroke-linecap: square"/>
    </g>
    <g id="text_18">
     <!-- $$\frac{1}{r}$$ -->
     <g transform="translate(203.753226 94.765019) scale(0.12 -0.12)">
      <use xlink:href="#CMR17-31" transform="translate(0.490075 67.398045) scale(0.996264)"/>
      <use xlink:href="#CMMI12-72" transform="translate(0 -68.338837) scale(0.996264)"/>
      <path d="M 0 22.914133 
L 46.670612 22.914133 
L 46.670612 26.899083 
L 0 26.899083 
L 0 22.914133 
z
"/>
     </g>
    </g>
   </g>
  </g>
 </g>
 <defs>
  <clipPath id="p70eb882dba">
   <rect x="34.119465" y="18.962865" width="245.027305" height="233.783344"/>
  </clipPath>
 </defs>
</svg>
