<?xml version="1.0" encoding="utf-8" standalone="no"?>
<!DOCTYPE svg PUBLIC "-//W3C//DTD SVG 1.1//EN"
  "http://www.w3.org/Graphics/SVG/1.1/DTD/svg11.dtd">
<svg xmlns:xlink="http://www.w3.org/1999/xlink" width="288pt" height="288pt" viewBox="0 0 288 288" xmlns="http://www.w3.org/2000/svg" version="1.1">
 <metadata>
  <rdf:RDF xmlns:dc="http://purl.org/dc/elements/1.1/" xmlns:cc="http://creativecommons.org/ns#" xmlns:rdf="http://www.w3.org/1999/02/22-rdf-syntax-ns#">
   <cc:Work>
    <dc:type rdf:resource="http://purl.org/dc/dcmitype/StillImage"/>
    <dc:date>2025-07-01T18:21:45.344639</dc:date>
    <dc:format>image/svg+xml</dc:format>
    <dc:creator>
     <cc:Agent>
      <dc:title>Matplotlib v3.6.3, https://matplotlib.org/</dc:title>
     </cc:Agent>
    </dc:creator>
   </cc:Work>
  </rdf:RDF>
 </metadata>
 <defs>
  <style type="text/css">*{stroke-linejoin: round; stroke-linecap: butt}</style>
 </defs>
 <g id="figure_1">
  <g id="patch_1">
   <path d="M 0 288 
L 288 288 
L 288 0 
L 0 0 
z
" style="fill: #ffffff"/>
  </g>
  <g id="axes_1">
   <g id="patch_2">
    <path d="M 34.119465 252.746209 
L 282.073265 252.746209 
L 282.073265 18.962865 
L 34.119465 18.962865 
z
" style="fill: #ffffff"/>
   </g>
   <g id="matplotlib.axis_1">
    <g id="xtick_1">
     <g id="line2d_1">
      <defs>
       <path id="mc800ed0204" d="M 0 0 
L 0 3.5 
" style="stroke: #000000; stroke-width: 0.8"/>
      </defs>
      <g>
       <use xlink:href="#mc800ed0204" x="34.119465" y="252.746209" style="stroke: #000000; stroke-width: 0.8"/>
      </g>
     </g>
     <g id="text_1">
      <!-- $\mathdefault{0}$ -->
      <g transform="translate(31.192969 268.048389) scale(0.12 -0.12)">
       <defs>
        <path id="CMR17-30" d="M 2688 2038 
C 2688 2430 2682 3099 2413 3613 
C 2176 4063 1798 4224 1466 4224 
C 1158 4224 768 4082 525 3620 
C 269 3137 243 2539 243 2038 
C 243 1671 250 1112 448 623 
C 723 -39 1216 -128 1466 -128 
C 1760 -128 2208 -7 2470 604 
C 2662 1048 2688 1568 2688 2038 
z
M 1466 -26 
C 1056 -26 813 328 723 816 
C 653 1196 653 1749 653 2109 
C 653 2604 653 3015 736 3407 
C 858 3954 1216 4121 1466 4121 
C 1728 4121 2067 3947 2189 3420 
C 2272 3054 2278 2623 2278 2109 
C 2278 1691 2278 1176 2202 797 
C 2067 96 1690 -26 1466 -26 
z
" transform="scale(0.015625)"/>
       </defs>
       <use xlink:href="#CMR17-30" transform="scale(0.996264)"/>
      </g>
     </g>
    </g>
    <g id="xtick_2">
     <g id="line2d_2">
      <g>
       <use xlink:href="#mc800ed0204" x="83.710225" y="252.746209" style="stroke: #000000; stroke-width: 0.8"/>
      </g>
     </g>
     <g id="text_2">
      <!-- $\mathdefault{1}$ -->
      <g transform="translate(80.783729 268.048389) scale(0.12 -0.12)">
       <defs>
        <path id="CMR17-31" d="M 1702 4083 
C 1702 4217 1696 4224 1606 4224 
C 1357 3927 979 3833 621 3820 
C 602 3820 570 3820 563 3808 
C 557 3795 557 3782 557 3648 
C 755 3648 1088 3686 1344 3839 
L 1344 467 
C 1344 243 1331 166 781 166 
L 589 166 
L 589 0 
C 896 6 1216 12 1523 12 
C 1830 12 2150 6 2458 0 
L 2458 166 
L 2266 166 
C 1715 166 1702 236 1702 467 
L 1702 4083 
z
" transform="scale(0.015625)"/>
       </defs>
       <use xlink:href="#CMR17-31" transform="scale(0.996264)"/>
      </g>
     </g>
    </g>
    <g id="xtick_3">
     <g id="line2d_3">
      <g>
       <use xlink:href="#mc800ed0204" x="133.300985" y="252.746209" style="stroke: #000000; stroke-width: 0.8"/>
      </g>
     </g>
     <g id="text_3">
      <!-- $\mathdefault{2}$ -->
      <g transform="translate(130.37449 268.048389) scale(0.12 -0.12)">
       <defs>
        <path id="CMR17-32" d="M 2669 990 
L 2554 990 
C 2490 537 2438 460 2413 422 
C 2381 371 1920 371 1830 371 
L 602 371 
C 832 620 1280 1073 1824 1596 
C 2214 1966 2669 2400 2669 3033 
C 2669 3788 2067 4224 1395 4224 
C 691 4224 262 3603 262 3027 
C 262 2777 448 2745 525 2745 
C 589 2745 781 2783 781 3007 
C 781 3206 614 3264 525 3264 
C 486 3264 448 3257 422 3244 
C 544 3788 915 4057 1306 4057 
C 1862 4057 2227 3616 2227 3033 
C 2227 2477 1901 1998 1536 1583 
L 262 147 
L 262 0 
L 2515 0 
L 2669 990 
z
" transform="scale(0.015625)"/>
       </defs>
       <use xlink:href="#CMR17-32" transform="scale(0.996264)"/>
      </g>
     </g>
    </g>
    <g id="xtick_4">
     <g id="line2d_4">
      <g>
       <use xlink:href="#mc800ed0204" x="182.891745" y="252.746209" style="stroke: #000000; stroke-width: 0.8"/>
      </g>
     </g>
     <g id="text_4">
      <!-- $\mathdefault{3}$ -->
      <g transform="translate(179.96525 268.048389) scale(0.12 -0.12)">
       <defs>
        <path id="CMR17-33" d="M 1414 2176 
C 1984 2176 2234 1673 2234 1094 
C 2234 322 1824 25 1453 25 
C 1114 25 563 193 390 691 
C 422 678 454 678 486 678 
C 640 678 755 780 755 947 
C 755 1132 614 1216 486 1216 
C 378 1216 211 1164 211 927 
C 211 335 787 -128 1466 -128 
C 2176 -128 2720 432 2720 1087 
C 2720 1718 2208 2176 1600 2246 
C 2086 2347 2554 2776 2554 3353 
C 2554 3856 2048 4224 1472 4224 
C 890 4224 378 3862 378 3347 
C 378 3123 544 3084 627 3084 
C 762 3084 877 3167 877 3334 
C 877 3500 762 3584 627 3584 
C 602 3584 570 3584 544 3571 
C 730 3999 1235 4076 1459 4076 
C 1683 4076 2106 3966 2106 3347 
C 2106 3167 2080 2851 1862 2574 
C 1670 2329 1453 2316 1242 2297 
C 1210 2297 1062 2284 1037 2284 
C 992 2278 966 2272 966 2227 
C 966 2182 973 2176 1101 2176 
L 1414 2176 
z
" transform="scale(0.015625)"/>
       </defs>
       <use xlink:href="#CMR17-33" transform="scale(0.996264)"/>
      </g>
     </g>
    </g>
    <g id="xtick_5">
     <g id="line2d_5">
      <g>
       <use xlink:href="#mc800ed0204" x="232.482505" y="252.746209" style="stroke: #000000; stroke-width: 0.8"/>
      </g>
     </g>
     <g id="text_5">
      <!-- $\mathdefault{4}$ -->
      <g transform="translate(229.55601 268.048389) scale(0.12 -0.12)">
       <defs>
        <path id="CMR17-34" d="M 2150 4147 
C 2150 4281 2144 4288 2029 4288 
L 128 1254 
L 128 1088 
L 1779 1088 
L 1779 460 
C 1779 230 1766 166 1318 166 
L 1197 166 
L 1197 0 
C 1402 12 1747 12 1965 12 
C 2182 12 2528 12 2733 0 
L 2733 166 
L 2611 166 
C 2163 166 2150 230 2150 460 
L 2150 1088 
L 2803 1088 
L 2803 1254 
L 2150 1254 
L 2150 4147 
z
M 1798 3723 
L 1798 1254 
L 256 1254 
L 1798 3723 
z
" transform="scale(0.015625)"/>
       </defs>
       <use xlink:href="#CMR17-34" transform="scale(0.996264)"/>
      </g>
     </g>
    </g>
    <g id="xtick_6">
     <g id="line2d_6">
      <g>
       <use xlink:href="#mc800ed0204" x="282.073265" y="252.746209" style="stroke: #000000; stroke-width: 0.8"/>
      </g>
     </g>
     <g id="text_6">
      <!-- $\mathdefault{5}$ -->
      <g transform="translate(279.14677 268.048389) scale(0.12 -0.12)">
       <defs>
        <path id="CMR17-35" d="M 730 3750 
C 794 3724 1056 3641 1325 3641 
C 1920 3641 2246 3961 2432 4140 
C 2432 4191 2432 4224 2394 4224 
C 2387 4224 2374 4224 2323 4198 
C 2099 4102 1837 4032 1517 4032 
C 1325 4032 1037 4055 723 4191 
C 653 4224 640 4224 634 4224 
C 602 4224 595 4217 595 4090 
L 595 2231 
C 595 2113 595 2080 659 2080 
C 691 2080 704 2093 736 2139 
C 941 2435 1222 2560 1542 2560 
C 1766 2560 2246 2415 2246 1293 
C 2246 1087 2246 716 2054 422 
C 1894 159 1645 25 1370 25 
C 947 25 518 319 403 812 
C 429 806 480 793 506 793 
C 589 793 749 838 749 1036 
C 749 1209 627 1280 506 1280 
C 358 1280 262 1190 262 1011 
C 262 454 704 -128 1382 -128 
C 2042 -128 2669 441 2669 1267 
C 2669 2054 2170 2662 1549 2662 
C 1222 2662 947 2540 730 2304 
L 730 3750 
z
" transform="scale(0.015625)"/>
       </defs>
       <use xlink:href="#CMR17-35" transform="scale(0.996264)"/>
      </g>
     </g>
    </g>
    <g id="text_7">
     <!-- $$r$$ -->
     <g transform="translate(155.458711 282.675164) scale(0.12 -0.12)">
      <defs>
       <path id="CMMI12-72" d="M 2490 2633 
C 2291 2598 2189 2457 2189 2316 
C 2189 2163 2310 2111 2400 2111 
C 2579 2111 2726 2265 2726 2457 
C 2726 2651 2528 2816 2208 2816 
C 1952 2816 1658 2700 1389 2335 
C 1344 2660 1088 2816 832 2816 
C 582 2816 454 2642 378 2508 
C 269 2278 173 1892 173 1860 
C 173 1834 198 1801 243 1801 
C 294 1801 301 1808 339 1957 
C 435 2342 557 2687 813 2687 
C 966 2687 1011 2604 1011 2419 
C 1011 2278 947 2028 902 1827 
L 723 1130 
C 698 1007 627 716 595 600 
C 550 432 480 128 480 96 
C 480 6 550 -64 646 -64 
C 717 -64 838 -20 877 109 
C 896 160 1133 1136 1171 1285 
C 1203 1427 1242 1562 1274 1705 
C 1299 1795 1325 1898 1344 1982 
C 1363 2040 1536 2355 1696 2495 
C 1773 2566 1939 2687 2202 2687 
C 2304 2687 2406 2674 2490 2633 
z
" transform="scale(0.015625)"/>
      </defs>
      <use xlink:href="#CMMI12-72" transform="scale(0.996264)"/>
     </g>
    </g>
   </g>
   <g id="matplotlib.axis_2">
    <g id="ytick_1">
     <g id="line2d_7">
      <defs>
       <path id="mb5dde8d96f" d="M 0 0 
L -3.5 0 
" style="stroke: #000000; stroke-width: 0.8"/>
      </defs>
      <g>
       <use xlink:href="#mb5dde8d96f" x="34.119465" y="252.746209" style="stroke: #000000; stroke-width: 0.8"/>
      </g>
     </g>
     <g id="text_8">
      <!-- $\mathdefault{0}$ -->
      <g transform="translate(21.266474 256.897299) scale(0.12 -0.12)">
       <use xlink:href="#CMR17-30" transform="scale(0.996264)"/>
      </g>
     </g>
    </g>
    <g id="ytick_2">
     <g id="line2d_8">
      <g>
       <use xlink:href="#mb5dde8d96f" x="34.119465" y="205.98954" style="stroke: #000000; stroke-width: 0.8"/>
      </g>
     </g>
     <g id="text_9">
      <!-- $\mathdefault{1}$ -->
      <g transform="translate(21.266474 210.14063) scale(0.12 -0.12)">
       <use xlink:href="#CMR17-31" transform="scale(0.996264)"/>
      </g>
     </g>
    </g>
    <g id="ytick_3">
     <g id="line2d_9">
      <g>
       <use xlink:href="#mb5dde8d96f" x="34.119465" y="159.232871" style="stroke: #000000; stroke-width: 0.8"/>
      </g>
     </g>
     <g id="text_10">
      <!-- $\mathdefault{2}$ -->
      <g transform="translate(21.266474 163.383961) scale(0.12 -0.12)">
       <use xlink:href="#CMR17-32" transform="scale(0.996264)"/>
      </g>
     </g>
    </g>
    <g id="ytick_4">
     <g id="line2d_10">
      <g>
       <use xlink:href="#mb5dde8d96f" x="34.119465" y="112.476202" style="stroke: #000000; stroke-width: 0.8"/>
      </g>
     </g>
     <g id="text_11">
      <!-- $\mathdefault{3}$ -->
      <g transform="translate(21.266474 116.627292) scale(0.12 -0.12)">
       <use xlink:href="#CMR17-33" transform="scale(0.996264)"/>
      </g>
     </g>
    </g>
    <g id="ytick_5">
     <g id="line2d_11">
      <g>
       <use xlink:href="#mb5dde8d96f" x="34.119465" y="65.719534" style="stroke: #000000; stroke-width: 0.8"/>
      </g>
     </g>
     <g id="text_12">
      <!-- $\mathdefault{4}$ -->
      <g transform="translate(21.266474 69.870624) scale(0.12 -0.12)">
       <use xlink:href="#CMR17-34" transform="scale(0.996264)"/>
      </g>
     </g>
    </g>
    <g id="ytick_6">
     <g id="line2d_12">
      <g>
       <use xlink:href="#mb5dde8d96f" x="34.119465" y="18.962865" style="stroke: #000000; stroke-width: 0.8"/>
      </g>
     </g>
     <g id="text_13">
      <!-- $\mathdefault{5}$ -->
      <g transform="translate(21.266474 23.113955) scale(0.12 -0.12)">
       <use xlink:href="#CMR17-35" transform="scale(0.996264)"/>
      </g>
     </g>
    </g>
    <g id="text_14">
     <!-- $$v_{int}^{\alpha\beta}$$ -->
     <g transform="translate(14.202661 144.223848) rotate(-90) scale(0.12 -0.12)">
      <defs>
       <path id="CMMI12-76" d="M 2925 2388 
C 2925 2790 2720 2816 2669 2816 
C 2515 2816 2374 2662 2374 2534 
C 2374 2458 2419 2413 2445 2388 
C 2509 2330 2675 2158 2675 1826 
C 2675 1558 2291 64 1523 64 
C 1133 64 1056 389 1056 625 
C 1056 945 1203 1392 1376 1851 
C 1478 2113 1504 2177 1504 2305 
C 1504 2573 1312 2816 998 2816 
C 410 2816 173 1890 173 1838 
C 173 1813 198 1781 243 1781 
C 301 1781 307 1807 333 1896 
C 486 2445 736 2687 979 2687 
C 1037 2687 1146 2687 1146 2477 
C 1146 2311 1075 2126 979 1883 
C 672 1066 672 868 672 715 
C 672 574 691 313 890 134 
C 1120 -64 1440 -64 1498 -64 
C 2560 -64 2925 2024 2925 2388 
z
" transform="scale(0.015625)"/>
       <path id="CMMI12-b" d="M 2963 1615 
C 2963 2234 2611 2816 1933 2816 
C 1094 2816 256 1902 256 996 
C 256 440 602 -64 1254 -64 
C 1651 -64 2125 89 2579 472 
C 2669 115 2867 -64 3142 -64 
C 3488 -64 3661 293 3661 376 
C 3661 434 3616 434 3597 434 
C 3546 434 3539 415 3520 364 
C 3462 204 3315 64 3162 64 
C 2963 64 2963 472 2963 862 
C 3616 1641 3770 2445 3770 2451 
C 3770 2509 3718 2509 3699 2509 
C 3642 2509 3635 2490 3610 2375 
C 3526 2094 3360 1596 2963 1072 
L 2963 1615 
z
M 2560 625 
C 1997 121 1491 64 1267 64 
C 813 64 685 466 685 766 
C 685 1040 826 1692 1024 2043 
C 1286 2490 1645 2687 1933 2687 
C 2554 2687 2554 1877 2554 1340 
C 2554 1181 2547 1015 2547 855 
C 2547 728 2554 696 2560 625 
z
" transform="scale(0.015625)"/>
       <path id="CMMI12-c" d="M 3622 3739 
C 3622 4131 3296 4544 2714 4544 
C 1888 4544 1363 3510 1197 2830 
L 186 -1152 
C 173 -1204 211 -1216 243 -1216 
C 288 -1216 320 -1210 326 -1178 
L 774 592 
C 838 231 1190 -64 1568 -64 
C 2483 -64 3347 657 3347 1618 
C 3347 1863 3290 2108 3155 2314 
C 3078 2437 2982 2527 2880 2599 
C 3341 2823 3622 3222 3622 3739 
z
M 2509 2605 
C 2406 2571 2304 2560 2182 2560 
C 2093 2560 2010 2553 1894 2588 
C 1958 2627 2054 2639 2189 2639 
C 2304 2639 2419 2627 2509 2605 
z
M 3290 3798 
C 3290 3438 3117 2915 2701 2684 
C 2579 2723 2413 2752 2272 2752 
C 2138 2752 1754 2765 1754 2582 
C 1754 2411 2106 2430 2214 2430 
C 2381 2430 2528 2469 2682 2514 
C 2886 2347 2976 2127 2976 1805 
C 2976 1431 2874 1128 2752 850 
C 2541 373 2042 64 1600 64 
C 1133 64 890 438 890 876 
C 890 934 890 1018 915 1115 
L 1331 2784 
C 1542 3641 2080 4413 2701 4413 
C 3162 4413 3290 4086 3290 3798 
z
" transform="scale(0.015625)"/>
       <path id="CMMI12-69" d="M 1811 913 
C 1811 945 1786 970 1747 970 
C 1690 970 1683 951 1651 842 
C 1485 261 1222 64 1011 64 
C 934 64 845 83 845 274 
C 845 447 922 638 992 830 
L 1440 2017 
C 1459 2068 1504 2183 1504 2305 
C 1504 2573 1312 2816 998 2816 
C 410 2816 173 1890 173 1838 
C 173 1813 198 1781 243 1781 
C 301 1781 307 1807 333 1896 
C 486 2432 730 2687 979 2687 
C 1037 2687 1146 2681 1146 2477 
C 1146 2311 1062 2100 1011 1960 
L 563 772 
C 525 670 486 568 486 453 
C 486 166 685 -64 992 -64 
C 1581 -64 1811 868 1811 913 
z
M 1760 4012 
C 1760 4108 1683 4224 1542 4224 
C 1395 4224 1229 4083 1229 3916 
C 1229 3756 1363 3705 1440 3705 
C 1613 3705 1760 3871 1760 4012 
z
" transform="scale(0.015625)"/>
       <path id="CMMI12-6e" d="M 1318 1870 
C 1331 1909 1491 2228 1728 2432 
C 1894 2585 2112 2687 2362 2687 
C 2618 2687 2707 2496 2707 2241 
C 2707 1877 2445 1149 2317 804 
C 2259 651 2227 568 2227 453 
C 2227 166 2426 -64 2733 -64 
C 3328 -64 3552 874 3552 913 
C 3552 945 3526 970 3488 970 
C 3430 970 3424 951 3392 842 
C 3245 319 3002 64 2752 64 
C 2688 64 2586 70 2586 274 
C 2586 434 2656 625 2694 715 
C 2822 1066 3091 1781 3091 2145 
C 3091 2528 2867 2816 2381 2816 
C 1811 2816 1510 2413 1395 2253 
C 1376 2617 1114 2816 832 2816 
C 627 2816 486 2694 378 2477 
C 262 2247 173 1864 173 1838 
C 173 1813 198 1781 243 1781 
C 294 1781 301 1787 339 1934 
C 442 2324 557 2687 813 2687 
C 960 2687 1011 2585 1011 2394 
C 1011 2253 947 2004 902 1807 
L 723 1117 
C 698 996 627 708 595 593 
C 550 427 480 127 480 95 
C 480 6 550 -64 646 -64 
C 723 -64 813 -26 864 70 
C 877 102 934 325 966 453 
L 1107 1028 
L 1318 1870 
z
" transform="scale(0.015625)"/>
       <path id="CMMI12-74" d="M 1286 2566 
L 1875 2566 
C 1997 2566 2061 2566 2061 2681 
C 2061 2752 2022 2752 1894 2752 
L 1331 2752 
L 1568 3664 
C 1594 3752 1594 3764 1594 3808 
C 1594 3910 1510 3968 1427 3968 
C 1376 3968 1229 3948 1178 3746 
L 928 2752 
L 326 2752 
C 198 2752 141 2752 141 2630 
C 141 2566 186 2566 307 2566 
L 877 2566 
L 454 881 
C 403 657 384 593 384 510 
C 384 210 595 -64 954 -64 
C 1600 -64 1946 868 1946 913 
C 1946 951 1920 970 1882 970 
C 1869 970 1843 970 1830 944 
C 1824 938 1818 932 1773 830 
C 1638 510 1344 64 973 64 
C 781 64 768 223 768 364 
C 768 370 768 491 787 568 
L 1286 2566 
z
" transform="scale(0.015625)"/>
      </defs>
      <use xlink:href="#CMMI12-76" transform="scale(0.996264)"/>
      <use xlink:href="#CMMI12-b" transform="translate(50.735173 47.87587) scale(0.697382)"/>
      <use xlink:href="#CMMI12-c" transform="translate(94.611698 47.87587) scale(0.697382)"/>
      <use xlink:href="#CMMI12-69" transform="translate(47.160581 -27.34372) scale(0.697382)"/>
      <use xlink:href="#CMMI12-6e" transform="translate(70.455488 -27.34372) scale(0.697382)"/>
      <use xlink:href="#CMMI12-74" transform="translate(111.216331 -27.34372) scale(0.697382)"/>
     </g>
    </g>
   </g>
   <g id="line2d_13">
    <path d="M 41.185471 -1 
L 41.558079 21.824928 
L 44.037617 96.036547 
L 46.517155 139.308796 
L 48.996693 167.210863 
L 51.476231 186.407139 
L 53.955769 200.223395 
L 56.435307 210.502113 
L 58.914845 218.344574 
L 61.394383 224.448131 
L 63.873921 229.274812 
L 66.353459 233.142088 
L 68.832997 236.274705 
L 71.312535 238.835778 
L 73.792073 240.946198 
L 76.271611 242.697182 
L 78.751149 244.158625 
L 81.230687 245.384808 
L 83.710225 246.418382 
L 86.189763 247.293204 
L 88.669301 248.036403 
L 91.148839 248.669888 
L 93.628377 249.211484 
L 96.107915 249.675792 
L 98.587453 250.074836 
L 101.066991 250.418575 
L 103.546529 250.715297 
L 106.026067 250.971931 
L 108.505605 251.194291 
L 110.985143 251.387273 
L 113.464681 251.555018 
L 115.944219 251.701037 
L 118.423757 251.828313 
L 120.903295 251.939392 
L 123.382833 252.03645 
L 125.862371 252.12135 
L 128.341909 252.195692 
L 130.821447 252.260853 
L 133.300985 252.31802 
L 135.780523 252.368217 
L 138.260061 252.412331 
L 140.739599 252.45113 
L 143.219137 252.485278 
L 145.698675 252.515356 
L 148.178213 252.541865 
L 150.657751 252.565245 
L 153.137289 252.585877 
L 155.616827 252.604096 
L 158.096365 252.620191 
L 160.575903 252.634419 
L 163.055441 252.647003 
L 165.534979 252.658137 
L 168.014517 252.667994 
L 170.494055 252.676724 
L 172.973593 252.684459 
L 175.453131 252.691315 
L 177.932669 252.697396 
L 180.412207 252.702789 
L 182.891745 252.707576 
L 185.371283 252.711826 
L 187.850821 252.715599 
L 190.330359 252.718952 
L 192.809897 252.721931 
L 195.289435 252.724579 
L 197.768973 252.726934 
L 200.248511 252.729029 
L 202.728049 252.730892 
L 205.207587 252.732551 
L 207.687125 252.734027 
L 210.166663 252.735341 
L 212.646201 252.736512 
L 215.125739 252.737555 
L 217.605277 252.738485 
L 220.084815 252.739313 
L 222.564353 252.740051 
L 225.043891 252.740709 
L 227.523429 252.741297 
L 230.002967 252.74182 
L 232.482505 252.742288 
L 234.962043 252.742705 
L 237.441581 252.743077 
L 239.921119 252.743409 
L 242.400657 252.743706 
L 244.880195 252.74397 
L 247.359733 252.744207 
L 249.839271 252.744418 
L 252.318809 252.744607 
L 254.798347 252.744776 
L 257.277885 252.744927 
L 259.757423 252.745061 
L 262.236961 252.745182 
L 264.716499 252.74529 
L 267.196037 252.745386 
L 269.675575 252.745472 
L 272.155113 252.745549 
L 274.634651 252.745618 
L 277.114189 252.74568 
L 279.593727 252.745735 
" clip-path="url(#p37921db7a1)" style="fill: none; stroke: #ff0000; stroke-width: 2; stroke-linecap: square"/>
   </g>
   <g id="line2d_14">
    <path d="M 34.119465 205.98954 
L 36.599003 210.439025 
L 39.078541 214.465086 
L 41.558079 218.108017 
L 44.037617 221.404276 
L 46.517155 224.386856 
L 48.996693 227.085605 
L 51.476231 229.527534 
L 53.955769 231.737083 
L 56.435307 233.736366 
L 58.914845 235.545392 
L 61.394383 237.182266 
L 63.873921 238.663371 
L 66.353459 240.00353 
L 68.832997 241.216156 
L 71.312535 242.313386 
L 73.792073 243.3062 
L 76.271611 244.204536 
L 78.751149 245.017383 
L 81.230687 245.752878 
L 83.710225 246.418382 
L 86.189763 247.020554 
L 88.669301 247.565422 
L 91.148839 248.058439 
L 93.628377 248.50454 
L 96.107915 248.908188 
L 98.587453 249.273424 
L 101.066991 249.603903 
L 103.546529 249.902933 
L 106.026067 250.173506 
L 108.505605 250.418331 
L 110.985143 250.639858 
L 113.464681 250.840304 
L 115.944219 251.021675 
L 118.423757 251.185786 
L 120.903295 251.33428 
L 123.382833 251.468643 
L 125.862371 251.590219 
L 128.341909 251.700226 
L 130.821447 251.799765 
L 133.300985 251.889831 
L 135.780523 251.971326 
L 138.260061 252.045066 
L 140.739599 252.111788 
L 143.219137 252.172161 
L 145.698675 252.226789 
L 148.178213 252.276219 
L 150.657751 252.320944 
L 153.137289 252.361413 
L 155.616827 252.398031 
L 158.096365 252.431165 
L 160.575903 252.461145 
L 163.055441 252.488273 
L 165.534979 252.512819 
L 168.014517 252.535029 
L 170.494055 252.555125 
L 172.973593 252.573309 
L 175.453131 252.589763 
L 177.932669 252.60465 
L 180.412207 252.618122 
L 182.891745 252.630311 
L 185.371283 252.64134 
L 187.850821 252.651319 
L 190.330359 252.660349 
L 192.809897 252.66852 
L 195.289435 252.675913 
L 197.768973 252.682603 
L 200.248511 252.688656 
L 202.728049 252.694132 
L 205.207587 252.699088 
L 207.687125 252.703572 
L 210.166663 252.70763 
L 212.646201 252.711301 
L 215.125739 252.714623 
L 217.605277 252.717629 
L 220.084815 252.720348 
L 222.564353 252.722809 
L 225.043891 252.725036 
L 227.523429 252.727051 
L 230.002967 252.728874 
L 232.482505 252.730524 
L 234.962043 252.732016 
L 237.441581 252.733367 
L 239.921119 252.734589 
L 242.400657 252.735695 
L 244.880195 252.736695 
L 247.359733 252.737601 
L 249.839271 252.73842 
L 252.318809 252.739161 
L 254.798347 252.739832 
L 257.277885 252.740439 
L 259.757423 252.740988 
L 262.236961 252.741485 
L 264.716499 252.741934 
L 267.196037 252.742341 
L 269.675575 252.742709 
L 272.155113 252.743042 
L 274.634651 252.743343 
L 277.114189 252.743616 
L 279.593727 252.743863 
" clip-path="url(#p37921db7a1)" style="fill: none; stroke: #0000ff; stroke-linecap: square"/>
   </g>
   <g id="line2d_15">
    <path d="M 43.40243 -1 
L 44.037617 18.962865 
L 46.517155 65.719534 
L 48.996693 96.890646 
L 51.476231 119.155727 
L 53.955769 135.854537 
L 56.435307 148.8425 
L 58.914845 159.232871 
L 61.394383 167.734084 
L 63.873921 174.818428 
L 66.353459 180.812872 
L 68.832997 185.950968 
L 71.312535 190.403984 
L 73.792073 194.300373 
L 76.271611 197.738363 
L 78.751149 200.794355 
L 81.230687 203.528663 
L 83.710225 205.98954 
L 86.189763 208.216048 
L 88.669301 210.240146 
L 91.148839 212.088236 
L 93.628377 213.782318 
L 96.107915 215.340874 
L 98.587453 216.779541 
L 101.066991 218.111639 
L 103.546529 219.348588 
L 106.026067 220.50023 
L 108.505605 221.575096 
L 110.985143 222.580616 
L 113.464681 223.523291 
L 115.944219 224.408834 
L 118.423757 225.242286 
L 120.903295 226.028112 
L 123.382833 226.770282 
L 125.862371 227.472334 
L 128.341909 228.137436 
L 130.821447 228.76843 
L 133.300985 229.367874 
L 135.780523 229.938078 
L 138.260061 230.481128 
L 140.739599 230.998921 
L 143.219137 231.493178 
L 145.698675 231.965467 
L 148.178213 232.417222 
L 150.657751 232.849754 
L 153.137289 233.264264 
L 155.616827 233.661854 
L 158.096365 234.043541 
L 160.575903 234.41026 
L 163.055441 234.762875 
L 165.534979 235.102183 
L 168.014517 235.428924 
L 170.494055 235.743784 
L 172.973593 236.047399 
L 175.453131 236.34036 
L 177.932669 236.62322 
L 180.412207 236.896491 
L 182.891745 237.160653 
L 185.371283 237.416154 
L 187.850821 237.663412 
L 190.330359 237.902822 
L 192.809897 238.13475 
L 195.289435 238.359542 
L 197.768973 238.577521 
L 200.248511 238.788994 
L 202.728049 238.994247 
L 205.207587 239.193551 
L 207.687125 239.387161 
L 210.166663 239.575316 
L 212.646201 239.758245 
L 215.125739 239.936163 
L 217.605277 240.109271 
L 220.084815 240.277764 
L 222.564353 240.441822 
L 225.043891 240.60162 
L 227.523429 240.757319 
L 230.002967 240.909078 
L 232.482505 241.057042 
L 234.962043 241.201352 
L 237.441581 241.342143 
L 239.921119 241.479542 
L 242.400657 241.613669 
L 244.880195 241.74464 
L 247.359733 241.872565 
L 249.839271 241.997549 
L 252.318809 242.119693 
L 254.798347 242.239092 
L 257.277885 242.355838 
L 259.757423 242.470018 
L 262.236961 242.581716 
L 264.716499 242.691011 
L 267.196037 242.797981 
L 269.675575 242.9027 
L 272.155113 243.005236 
L 274.634651 243.105659 
L 277.114189 243.204032 
L 279.593727 243.300417 
" clip-path="url(#p37921db7a1)" style="fill: none; stroke: #008000; stroke-linecap: square"/>
   </g>
   <g id="patch_3">
    <path d="M 34.119465 252.746209 
L 34.119465 18.962865 
" style="fill: none; stroke: #000000; stroke-width: 0.8; stroke-linejoin: miter; stroke-linecap: square"/>
   </g>
   <g id="patch_4">
    <path d="M 282.073265 252.746209 
L 282.073265 18.962865 
" style="fill: none; stroke: #000000; stroke-width: 0.8; stroke-linejoin: miter; stroke-linecap: square"/>
   </g>
   <g id="patch_5">
    <path d="M 34.119465 252.746209 
L 282.073265 252.746209 
" style="fill: none; stroke: #000000; stroke-width: 0.8; stroke-linejoin: miter; stroke-linecap: square"/>
   </g>
   <g id="patch_6">
    <path d="M 34.119465 18.962865 
L 282.073265 18.962865 
" style="fill: none; stroke: #000000; stroke-width: 0.8; stroke-linejoin: miter; stroke-linecap: square"/>
   </g>
   <g id="text_15">
    <!-- $$r_{int}=0.5$$ -->
    <g transform="translate(129.754876 12.962865) scale(0.144 -0.144)">
     <defs>
      <path id="CMR17-3d" d="M 4115 2048 
C 4211 2048 4307 2048 4307 2156 
C 4307 2272 4198 2272 4090 2272 
L 512 2272 
C 403 2272 294 2272 294 2156 
C 294 2048 390 2048 486 2048 
L 4115 2048 
z
M 4090 927 
C 4198 927 4307 927 4307 1043 
C 4307 1152 4211 1152 4115 1152 
L 486 1152 
C 390 1152 294 1152 294 1043 
C 294 927 403 927 512 927 
L 4090 927 
z
" transform="scale(0.015625)"/>
      <path id="CMMI12-3a" d="M 1178 307 
C 1178 492 1024 620 870 620 
C 685 620 557 467 557 313 
C 557 128 710 0 864 0 
C 1050 0 1178 153 1178 307 
z
" transform="scale(0.015625)"/>
     </defs>
     <use xlink:href="#CMMI12-72" transform="scale(0.996264)"/>
     <use xlink:href="#CMMI12-69" transform="translate(43.960894 -14.943915) scale(0.697382)"/>
     <use xlink:href="#CMMI12-6e" transform="translate(67.255802 -14.943915) scale(0.697382)"/>
     <use xlink:href="#CMMI12-74" transform="translate(108.016645 -14.943915) scale(0.697382)"/>
     <use xlink:href="#CMR17-3d" transform="translate(160.847095 0) scale(0.996264)"/>
     <use xlink:href="#CMR17-30" transform="translate(260.235892 0) scale(0.996264)"/>
     <use xlink:href="#CMMI12-3a" transform="translate(305.926369 0) scale(0.996264)"/>
     <use xlink:href="#CMR17-35" transform="translate(333.023546 0) scale(0.996264)"/>
    </g>
   </g>
   <g id="legend_1">
    <g id="patch_7">
     <path d="M 170.679721 107.765682 
L 273.673265 107.765682 
Q 276.073265 107.765682 276.073265 105.365682 
L 276.073265 27.362865 
Q 276.073265 24.962865 273.673265 24.962865 
L 170.679721 24.962865 
Q 168.279721 24.962865 168.279721 27.362865 
L 168.279721 105.365682 
Q 168.279721 107.765682 170.679721 107.765682 
z
" style="fill: #ffffff; opacity: 0.8; stroke: #cccccc; stroke-linejoin: miter"/>
    </g>
    <g id="line2d_16">
     <path d="M 173.079721 42.617 
L 185.079721 42.617 
L 197.079721 42.617 
" style="fill: none; stroke: #ff0000; stroke-width: 2; stroke-linecap: square"/>
    </g>
    <g id="text_16">
     <!-- $$\frac{\exp(-r/r_{int})}{r}$$ -->
     <g transform="translate(206.679721 46.817) scale(0.12 -0.12)">
      <defs>
       <path id="CMR17-65" d="M 2438 1503 
C 2464 1529 2464 1542 2464 1606 
C 2464 2251 2118 2816 1389 2816 
C 710 2816 173 2175 173 1394 
C 173 554 781 -64 1459 -64 
C 2176 -64 2458 619 2458 755 
C 2458 800 2419 800 2406 800 
C 2362 800 2355 787 2330 709 
C 2189 270 1837 51 1504 51 
C 1229 51 954 206 781 490 
C 582 819 582 1200 582 1503 
L 2438 1503 
z
M 589 1600 
C 634 2511 1126 2713 1382 2713 
C 1818 2713 2112 2308 2118 1600 
L 589 1600 
z
" transform="scale(0.015625)"/>
       <path id="CMR17-78" d="M 1664 1491 
C 1856 1740 2074 2022 2253 2233 
C 2464 2476 2707 2579 2989 2585 
L 2989 2752 
C 2880 2745 2656 2739 2541 2739 
C 2368 2739 2170 2739 2022 2752 
L 2022 2585 
C 2112 2572 2163 2508 2163 2419 
C 2163 2304 2099 2233 2067 2188 
L 1594 1587 
L 1030 2323 
C 973 2393 973 2406 973 2438 
C 973 2515 1037 2579 1146 2585 
L 1146 2752 
C 992 2739 717 2739 557 2739 
C 384 2739 179 2739 38 2752 
L 38 2585 
C 384 2585 461 2560 614 2368 
L 1350 1414 
C 1363 1401 1395 1363 1395 1344 
C 1395 1318 838 633 768 544 
C 480 198 179 172 6 166 
L 6 0 
C 115 6 339 12 454 12 
C 582 12 864 12 979 0 
L 979 166 
C 941 172 838 185 838 332 
C 838 448 890 518 947 595 
L 1478 1248 
L 2035 524 
C 2086 454 2163 358 2163 313 
C 2163 224 2086 172 1984 166 
L 1984 0 
C 2138 12 2413 12 2573 12 
C 2746 12 2950 12 3091 0 
L 3091 166 
C 2771 166 2675 179 2522 377 
L 1664 1491 
z
" transform="scale(0.015625)"/>
       <path id="CMR17-70" d="M 1408 -1114 
C 998 -1114 973 -1088 973 -834 
L 973 380 
C 1158 109 1427 -64 1766 -64 
C 2406 -64 3053 503 3053 1382 
C 3053 2196 2496 2816 1837 2816 
C 1453 2816 1139 2603 960 2345 
L 960 2816 
L 198 2745 
L 198 2577 
C 576 2577 634 2539 634 2228 
L 634 -834 
C 634 -1081 608 -1114 198 -1114 
L 198 -1280 
C 352 -1268 634 -1268 800 -1268 
C 966 -1268 1254 -1268 1408 -1280 
L 1408 -1114 
z
M 973 2015 
C 973 2106 973 2241 1222 2481 
C 1254 2506 1472 2700 1792 2700 
C 2259 2700 2643 2112 2643 1376 
C 2643 639 2234 38 1728 38 
C 1498 38 1248 148 1056 451 
C 973 594 973 632 973 736 
L 973 2015 
z
" transform="scale(0.015625)"/>
       <path id="CMR17-28" d="M 1958 -1562 
C 1958 -1556 1958 -1543 1939 -1524 
C 1645 -1223 858 -403 858 1596 
C 858 3595 1632 4408 1946 4729 
C 1946 4735 1958 4748 1958 4767 
C 1958 4787 1939 4800 1914 4800 
C 1843 4800 1299 4325 986 3620 
C 666 2909 576 2218 576 1603 
C 576 1141 621 360 1005 -467 
C 1312 -1133 1837 -1600 1914 -1600 
C 1946 -1600 1958 -1588 1958 -1562 
z
" transform="scale(0.015625)"/>
       <path id="CMSY10-0" d="M 4218 1472 
C 4326 1472 4442 1472 4442 1600 
C 4442 1728 4326 1728 4218 1728 
L 755 1728 
C 646 1728 531 1728 531 1600 
C 531 1472 646 1472 755 1472 
L 4218 1472 
z
" transform="scale(0.015625)"/>
       <path id="CMMI12-3d" d="M 2746 4563 
C 2746 4569 2784 4665 2784 4678 
C 2784 4755 2720 4800 2669 4800 
C 2637 4800 2579 4800 2528 4659 
L 384 -1364 
C 384 -1370 346 -1466 346 -1479 
C 346 -1556 410 -1600 461 -1600 
C 499 -1600 557 -1594 602 -1460 
L 2746 4563 
z
" transform="scale(0.015625)"/>
       <path id="CMR17-29" d="M 1683 1596 
C 1683 2057 1638 2839 1254 3665 
C 947 4332 422 4800 346 4800 
C 326 4800 301 4793 301 4761 
C 301 4748 307 4742 314 4729 
C 621 4408 1402 3595 1402 1603 
C 1402 -396 627 -1210 314 -1530 
C 307 -1543 301 -1549 301 -1562 
C 301 -1594 326 -1600 346 -1600 
C 416 -1600 960 -1127 1274 -422 
C 1594 289 1683 981 1683 1596 
z
" transform="scale(0.015625)"/>
      </defs>
      <use xlink:href="#CMR17-65" transform="translate(0 67.398045) scale(0.996264)"/>
      <use xlink:href="#CMR17-78" transform="translate(40.48566 67.398045) scale(0.996264)"/>
      <use xlink:href="#CMR17-70" transform="translate(88.778576 67.398045) scale(0.996264)"/>
      <use xlink:href="#CMR17-28" transform="translate(139.673946 67.398045) scale(0.996264)"/>
      <use xlink:href="#CMSY10-0" transform="translate(174.954714 67.398045) scale(0.996264)"/>
      <use xlink:href="#CMMI12-72" transform="translate(252.442182 67.398045) scale(0.996264)"/>
      <use xlink:href="#CMMI12-3d" transform="translate(299.112794 67.398045) scale(0.996264)"/>
      <use xlink:href="#CMMI12-72" transform="translate(347.887712 67.398045) scale(0.996264)"/>
      <use xlink:href="#CMMI12-69" transform="translate(391.848607 52.45413) scale(0.697382)"/>
      <use xlink:href="#CMMI12-6e" transform="translate(415.143514 52.45413) scale(0.697382)"/>
      <use xlink:href="#CMMI12-74" transform="translate(455.904357 52.45413) scale(0.697382)"/>
      <use xlink:href="#CMR17-29" transform="translate(481.060799 67.398045) scale(0.996264)"/>
      <use xlink:href="#CMMI12-72" transform="translate(234.835477 -68.338837) scale(0.996264)"/>
      <path d="M 0 22.914133 
L 516.341566 22.914133 
L 516.341566 26.899083 
L 0 26.899083 
L 0 22.914133 
z
"/>
     </g>
    </g>
    <g id="line2d_17">
     <path d="M 173.079721 65.784038 
L 185.079721 65.784038 
L 197.079721 65.784038 
" style="fill: none; stroke: #0000ff; stroke-linecap: square"/>
    </g>
    <g id="text_17">
     <!-- $$\exp(-r/r_{int})$$ -->
     <g transform="translate(206.679721 69.984038) scale(0.12 -0.12)">
      <use xlink:href="#CMR17-65" transform="scale(0.996264)"/>
      <use xlink:href="#CMR17-78" transform="translate(40.48566 0) scale(0.996264)"/>
      <use xlink:href="#CMR17-70" transform="translate(88.778576 0) scale(0.996264)"/>
      <use xlink:href="#CMR17-28" transform="translate(139.673946 0) scale(0.996264)"/>
      <use xlink:href="#CMSY10-0" transform="translate(174.954714 0) scale(0.996264)"/>
      <use xlink:href="#CMMI12-72" transform="translate(252.442182 0) scale(0.996264)"/>
      <use xlink:href="#CMMI12-3d" transform="translate(299.112794 0) scale(0.996264)"/>
      <use xlink:href="#CMMI12-72" transform="translate(347.887712 0) scale(0.996264)"/>
      <use xlink:href="#CMMI12-69" transform="translate(391.848607 -14.943915) scale(0.697382)"/>
      <use xlink:href="#CMMI12-6e" transform="translate(415.143514 -14.943915) scale(0.697382)"/>
      <use xlink:href="#CMMI12-74" transform="translate(455.904357 -14.943915) scale(0.697382)"/>
      <use xlink:href="#CMR17-29" transform="translate(481.060799 0) scale(0.996264)"/>
     </g>
    </g>
    <g id="line2d_18">
     <path d="M 173.079721 90.565019 
L 185.079721 90.565019 
L 197.079721 90.565019 
" style="fill: none; stroke: #008000; stroke-linecap: square"/>
    </g>
    <g id="text_18">
     <!-- $$\frac{1}{r}$$ -->
     <g transform="translate(206.679721 94.765019) scale(0.12 -0.12)">
      <use xlink:href="#CMR17-31" transform="translate(0.490075 67.398045) scale(0.996264)"/>
      <use xlink:href="#CMMI12-72" transform="translate(0 -68.338837) scale(0.996264)"/>
      <path d="M 0 22.914133 
L 46.670612 22.914133 
L 46.670612 26.899083 
L 0 26.899083 
L 0 22.914133 
z
"/>
     </g>
    </g>
   </g>
  </g>
 </g>
 <defs>
  <clipPath id="p37921db7a1">
   <rect x="34.119465" y="18.962865" width="247.9538" height="233.783344"/>
  </clipPath>
 </defs>
</svg>
