<?xml version="1.0" encoding="utf-8" standalone="no"?>
<!DOCTYPE svg PUBLIC "-//W3C//DTD SVG 1.1//EN"
  "http://www.w3.org/Graphics/SVG/1.1/DTD/svg11.dtd">
<svg xmlns:xlink="http://www.w3.org/1999/xlink" width="288pt" height="288pt" viewBox="0 0 288 288" xmlns="http://www.w3.org/2000/svg" version="1.1">
 <metadata>
  <rdf:RDF xmlns:dc="http://purl.org/dc/elements/1.1/" xmlns:cc="http://creativecommons.org/ns#" xmlns:rdf="http://www.w3.org/1999/02/22-rdf-syntax-ns#">
   <cc:Work>
    <dc:type rdf:resource="http://purl.org/dc/dcmitype/StillImage"/>
    <dc:date>2025-07-01T18:26:37.318508</dc:date>
    <dc:format>image/svg+xml</dc:format>
    <dc:creator>
     <cc:Agent>
      <dc:title>Matplotlib v3.6.3, https://matplotlib.org/</dc:title>
     </cc:Agent>
    </dc:creator>
   </cc:Work>
  </rdf:RDF>
 </metadata>
 <defs>
  <style type="text/css">*{stroke-linejoin: round; stroke-linecap: butt}</style>
 </defs>
 <g id="figure_1">
  <g id="patch_1">
   <path d="M 0 288 
L 288 288 
L 288 0 
L 0 0 
z
" style="fill: #ffffff"/>
  </g>
  <g id="axes_1">
   <g id="patch_2">
    <path d="M 43.224116 252.746209 
L 279.14677 252.746209 
L 279.14677 18.962865 
L 43.224116 18.962865 
z
" style="fill: #ffffff"/>
   </g>
   <g id="matplotlib.axis_1">
    <g id="xtick_1">
     <g id="line2d_1">
      <defs>
       <path id="mdd68908890" d="M 0 0 
L 0 3.5 
" style="stroke: #000000; stroke-width: 0.8"/>
      </defs>
      <g>
       <use xlink:href="#mdd68908890" x="43.224116" y="252.746209" style="stroke: #000000; stroke-width: 0.8"/>
      </g>
     </g>
     <g id="text_1">
      <!-- $\mathdefault{0}$ -->
      <g transform="translate(40.297621 268.048389) scale(0.12 -0.12)">
       <defs>
        <path id="CMR17-30" d="M 2688 2038 
C 2688 2430 2682 3099 2413 3613 
C 2176 4063 1798 4224 1466 4224 
C 1158 4224 768 4082 525 3620 
C 269 3137 243 2539 243 2038 
C 243 1671 250 1112 448 623 
C 723 -39 1216 -128 1466 -128 
C 1760 -128 2208 -7 2470 604 
C 2662 1048 2688 1568 2688 2038 
z
M 1466 -26 
C 1056 -26 813 328 723 816 
C 653 1196 653 1749 653 2109 
C 653 2604 653 3015 736 3407 
C 858 3954 1216 4121 1466 4121 
C 1728 4121 2067 3947 2189 3420 
C 2272 3054 2278 2623 2278 2109 
C 2278 1691 2278 1176 2202 797 
C 2067 96 1690 -26 1466 -26 
z
" transform="scale(0.015625)"/>
       </defs>
       <use xlink:href="#CMR17-30" transform="scale(0.996264)"/>
      </g>
     </g>
    </g>
    <g id="xtick_2">
     <g id="line2d_2">
      <g>
       <use xlink:href="#mdd68908890" x="82.544558" y="252.746209" style="stroke: #000000; stroke-width: 0.8"/>
      </g>
     </g>
     <g id="text_2">
      <!-- $\mathdefault{5}$ -->
      <g transform="translate(79.618063 268.048389) scale(0.12 -0.12)">
       <defs>
        <path id="CMR17-35" d="M 730 3750 
C 794 3724 1056 3641 1325 3641 
C 1920 3641 2246 3961 2432 4140 
C 2432 4191 2432 4224 2394 4224 
C 2387 4224 2374 4224 2323 4198 
C 2099 4102 1837 4032 1517 4032 
C 1325 4032 1037 4055 723 4191 
C 653 4224 640 4224 634 4224 
C 602 4224 595 4217 595 4090 
L 595 2231 
C 595 2113 595 2080 659 2080 
C 691 2080 704 2093 736 2139 
C 941 2435 1222 2560 1542 2560 
C 1766 2560 2246 2415 2246 1293 
C 2246 1087 2246 716 2054 422 
C 1894 159 1645 25 1370 25 
C 947 25 518 319 403 812 
C 429 806 480 793 506 793 
C 589 793 749 838 749 1036 
C 749 1209 627 1280 506 1280 
C 358 1280 262 1190 262 1011 
C 262 454 704 -128 1382 -128 
C 2042 -128 2669 441 2669 1267 
C 2669 2054 2170 2662 1549 2662 
C 1222 2662 947 2540 730 2304 
L 730 3750 
z
" transform="scale(0.015625)"/>
       </defs>
       <use xlink:href="#CMR17-35" transform="scale(0.996264)"/>
      </g>
     </g>
    </g>
    <g id="xtick_3">
     <g id="line2d_3">
      <g>
       <use xlink:href="#mdd68908890" x="121.865001" y="252.746209" style="stroke: #000000; stroke-width: 0.8"/>
      </g>
     </g>
     <g id="text_3">
      <!-- $\mathdefault{10}$ -->
      <g transform="translate(116.01201 268.048389) scale(0.12 -0.12)">
       <defs>
        <path id="CMR17-31" d="M 1702 4083 
C 1702 4217 1696 4224 1606 4224 
C 1357 3927 979 3833 621 3820 
C 602 3820 570 3820 563 3808 
C 557 3795 557 3782 557 3648 
C 755 3648 1088 3686 1344 3839 
L 1344 467 
C 1344 243 1331 166 781 166 
L 589 166 
L 589 0 
C 896 6 1216 12 1523 12 
C 1830 12 2150 6 2458 0 
L 2458 166 
L 2266 166 
C 1715 166 1702 236 1702 467 
L 1702 4083 
z
" transform="scale(0.015625)"/>
       </defs>
       <use xlink:href="#CMR17-31" transform="scale(0.996264)"/>
       <use xlink:href="#CMR17-30" transform="translate(45.690477 0) scale(0.996264)"/>
      </g>
     </g>
    </g>
    <g id="xtick_4">
     <g id="line2d_4">
      <g>
       <use xlink:href="#mdd68908890" x="161.185443" y="252.746209" style="stroke: #000000; stroke-width: 0.8"/>
      </g>
     </g>
     <g id="text_4">
      <!-- $\mathdefault{15}$ -->
      <g transform="translate(155.332453 268.048389) scale(0.12 -0.12)">
       <use xlink:href="#CMR17-31" transform="scale(0.996264)"/>
       <use xlink:href="#CMR17-35" transform="translate(45.690477 0) scale(0.996264)"/>
      </g>
     </g>
    </g>
    <g id="xtick_5">
     <g id="line2d_5">
      <g>
       <use xlink:href="#mdd68908890" x="200.505885" y="252.746209" style="stroke: #000000; stroke-width: 0.8"/>
      </g>
     </g>
     <g id="text_5">
      <!-- $\mathdefault{20}$ -->
      <g transform="translate(194.652895 268.048389) scale(0.12 -0.12)">
       <defs>
        <path id="CMR17-32" d="M 2669 990 
L 2554 990 
C 2490 537 2438 460 2413 422 
C 2381 371 1920 371 1830 371 
L 602 371 
C 832 620 1280 1073 1824 1596 
C 2214 1966 2669 2400 2669 3033 
C 2669 3788 2067 4224 1395 4224 
C 691 4224 262 3603 262 3027 
C 262 2777 448 2745 525 2745 
C 589 2745 781 2783 781 3007 
C 781 3206 614 3264 525 3264 
C 486 3264 448 3257 422 3244 
C 544 3788 915 4057 1306 4057 
C 1862 4057 2227 3616 2227 3033 
C 2227 2477 1901 1998 1536 1583 
L 262 147 
L 262 0 
L 2515 0 
L 2669 990 
z
" transform="scale(0.015625)"/>
       </defs>
       <use xlink:href="#CMR17-32" transform="scale(0.996264)"/>
       <use xlink:href="#CMR17-30" transform="translate(45.690477 0) scale(0.996264)"/>
      </g>
     </g>
    </g>
    <g id="xtick_6">
     <g id="line2d_6">
      <g>
       <use xlink:href="#mdd68908890" x="239.826327" y="252.746209" style="stroke: #000000; stroke-width: 0.8"/>
      </g>
     </g>
     <g id="text_6">
      <!-- $\mathdefault{25}$ -->
      <g transform="translate(233.973337 268.048389) scale(0.12 -0.12)">
       <use xlink:href="#CMR17-32" transform="scale(0.996264)"/>
       <use xlink:href="#CMR17-35" transform="translate(45.690477 0) scale(0.996264)"/>
      </g>
     </g>
    </g>
    <g id="xtick_7">
     <g id="line2d_7">
      <g>
       <use xlink:href="#mdd68908890" x="279.14677" y="252.746209" style="stroke: #000000; stroke-width: 0.8"/>
      </g>
     </g>
     <g id="text_7">
      <!-- $\mathdefault{30}$ -->
      <g transform="translate(273.293779 268.048389) scale(0.12 -0.12)">
       <defs>
        <path id="CMR17-33" d="M 1414 2176 
C 1984 2176 2234 1673 2234 1094 
C 2234 322 1824 25 1453 25 
C 1114 25 563 193 390 691 
C 422 678 454 678 486 678 
C 640 678 755 780 755 947 
C 755 1132 614 1216 486 1216 
C 378 1216 211 1164 211 927 
C 211 335 787 -128 1466 -128 
C 2176 -128 2720 432 2720 1087 
C 2720 1718 2208 2176 1600 2246 
C 2086 2347 2554 2776 2554 3353 
C 2554 3856 2048 4224 1472 4224 
C 890 4224 378 3862 378 3347 
C 378 3123 544 3084 627 3084 
C 762 3084 877 3167 877 3334 
C 877 3500 762 3584 627 3584 
C 602 3584 570 3584 544 3571 
C 730 3999 1235 4076 1459 4076 
C 1683 4076 2106 3966 2106 3347 
C 2106 3167 2080 2851 1862 2574 
C 1670 2329 1453 2316 1242 2297 
C 1210 2297 1062 2284 1037 2284 
C 992 2278 966 2272 966 2227 
C 966 2182 973 2176 1101 2176 
L 1414 2176 
z
" transform="scale(0.015625)"/>
       </defs>
       <use xlink:href="#CMR17-33" transform="scale(0.996264)"/>
       <use xlink:href="#CMR17-30" transform="translate(45.690477 0) scale(0.996264)"/>
      </g>
     </g>
    </g>
    <g id="text_8">
     <!-- $$r$$ -->
     <g transform="translate(158.547789 282.675164) scale(0.12 -0.12)">
      <defs>
       <path id="CMMI12-72" d="M 2490 2633 
C 2291 2598 2189 2457 2189 2316 
C 2189 2163 2310 2111 2400 2111 
C 2579 2111 2726 2265 2726 2457 
C 2726 2651 2528 2816 2208 2816 
C 1952 2816 1658 2700 1389 2335 
C 1344 2660 1088 2816 832 2816 
C 582 2816 454 2642 378 2508 
C 269 2278 173 1892 173 1860 
C 173 1834 198 1801 243 1801 
C 294 1801 301 1808 339 1957 
C 435 2342 557 2687 813 2687 
C 966 2687 1011 2604 1011 2419 
C 1011 2278 947 2028 902 1827 
L 723 1130 
C 698 1007 627 716 595 600 
C 550 432 480 128 480 96 
C 480 6 550 -64 646 -64 
C 717 -64 838 -20 877 109 
C 896 160 1133 1136 1171 1285 
C 1203 1427 1242 1562 1274 1705 
C 1299 1795 1325 1898 1344 1982 
C 1363 2040 1536 2355 1696 2495 
C 1773 2566 1939 2687 2202 2687 
C 2304 2687 2406 2674 2490 2633 
z
" transform="scale(0.015625)"/>
      </defs>
      <use xlink:href="#CMMI12-72" transform="scale(0.996264)"/>
     </g>
    </g>
   </g>
   <g id="matplotlib.axis_2">
    <g id="ytick_1">
     <g id="line2d_8">
      <defs>
       <path id="m4fe5f080b8" d="M 0 0 
L -3.5 0 
" style="stroke: #000000; stroke-width: 0.8"/>
      </defs>
      <g>
       <use xlink:href="#m4fe5f080b8" x="43.224116" y="252.746209" style="stroke: #000000; stroke-width: 0.8"/>
      </g>
     </g>
     <g id="text_9">
      <!-- $\mathdefault{0.0}$ -->
      <g transform="translate(21.266474 256.897299) scale(0.12 -0.12)">
       <defs>
        <path id="CMMI12-3a" d="M 1178 307 
C 1178 492 1024 620 870 620 
C 685 620 557 467 557 313 
C 557 128 710 0 864 0 
C 1050 0 1178 153 1178 307 
z
" transform="scale(0.015625)"/>
       </defs>
       <use xlink:href="#CMR17-30" transform="scale(0.996264)"/>
       <use xlink:href="#CMMI12-3a" transform="translate(45.690477 0) scale(0.996264)"/>
       <use xlink:href="#CMR17-30" transform="translate(72.787654 0) scale(0.996264)"/>
      </g>
     </g>
    </g>
    <g id="ytick_2">
     <g id="line2d_9">
      <g>
       <use xlink:href="#m4fe5f080b8" x="43.224116" y="215.340874" style="stroke: #000000; stroke-width: 0.8"/>
      </g>
     </g>
     <g id="text_10">
      <!-- $\mathdefault{0.2}$ -->
      <g transform="translate(21.266474 219.491964) scale(0.12 -0.12)">
       <use xlink:href="#CMR17-30" transform="scale(0.996264)"/>
       <use xlink:href="#CMMI12-3a" transform="translate(45.690477 0) scale(0.996264)"/>
       <use xlink:href="#CMR17-32" transform="translate(72.787654 0) scale(0.996264)"/>
      </g>
     </g>
    </g>
    <g id="ytick_3">
     <g id="line2d_10">
      <g>
       <use xlink:href="#m4fe5f080b8" x="43.224116" y="177.935539" style="stroke: #000000; stroke-width: 0.8"/>
      </g>
     </g>
     <g id="text_11">
      <!-- $\mathdefault{0.4}$ -->
      <g transform="translate(21.266474 182.086629) scale(0.12 -0.12)">
       <defs>
        <path id="CMR17-34" d="M 2150 4147 
C 2150 4281 2144 4288 2029 4288 
L 128 1254 
L 128 1088 
L 1779 1088 
L 1779 460 
C 1779 230 1766 166 1318 166 
L 1197 166 
L 1197 0 
C 1402 12 1747 12 1965 12 
C 2182 12 2528 12 2733 0 
L 2733 166 
L 2611 166 
C 2163 166 2150 230 2150 460 
L 2150 1088 
L 2803 1088 
L 2803 1254 
L 2150 1254 
L 2150 4147 
z
M 1798 3723 
L 1798 1254 
L 256 1254 
L 1798 3723 
z
" transform="scale(0.015625)"/>
       </defs>
       <use xlink:href="#CMR17-30" transform="scale(0.996264)"/>
       <use xlink:href="#CMMI12-3a" transform="translate(45.690477 0) scale(0.996264)"/>
       <use xlink:href="#CMR17-34" transform="translate(72.787654 0) scale(0.996264)"/>
      </g>
     </g>
    </g>
    <g id="ytick_4">
     <g id="line2d_11">
      <g>
       <use xlink:href="#m4fe5f080b8" x="43.224116" y="140.530204" style="stroke: #000000; stroke-width: 0.8"/>
      </g>
     </g>
     <g id="text_12">
      <!-- $\mathdefault{0.6}$ -->
      <g transform="translate(21.266474 144.681294) scale(0.12 -0.12)">
       <defs>
        <path id="CMR17-36" d="M 678 2198 
C 678 3712 1395 4076 1811 4076 
C 1946 4076 2272 4049 2400 3782 
C 2298 3782 2106 3782 2106 3558 
C 2106 3385 2246 3328 2336 3328 
C 2394 3328 2566 3353 2566 3571 
C 2566 3987 2246 4224 1805 4224 
C 1043 4224 243 3411 243 2011 
C 243 257 966 -128 1478 -128 
C 2099 -128 2688 431 2688 1295 
C 2688 2101 2170 2688 1517 2688 
C 1126 2688 838 2430 678 1979 
L 678 2198 
z
M 1478 25 
C 691 25 691 1212 691 1450 
C 691 1914 909 2585 1504 2585 
C 1613 2585 1926 2585 2138 2140 
C 2253 1889 2253 1624 2253 1302 
C 2253 954 2253 696 2118 438 
C 1978 173 1773 25 1478 25 
z
" transform="scale(0.015625)"/>
       </defs>
       <use xlink:href="#CMR17-30" transform="scale(0.996264)"/>
       <use xlink:href="#CMMI12-3a" transform="translate(45.690477 0) scale(0.996264)"/>
       <use xlink:href="#CMR17-36" transform="translate(72.787654 0) scale(0.996264)"/>
      </g>
     </g>
    </g>
    <g id="ytick_5">
     <g id="line2d_12">
      <g>
       <use xlink:href="#m4fe5f080b8" x="43.224116" y="103.124869" style="stroke: #000000; stroke-width: 0.8"/>
      </g>
     </g>
     <g id="text_13">
      <!-- $\mathdefault{0.8}$ -->
      <g transform="translate(21.266474 107.275959) scale(0.12 -0.12)">
       <defs>
        <path id="CMR17-38" d="M 1741 2289 
C 2144 2494 2554 2803 2554 3298 
C 2554 3884 1990 4224 1472 4224 
C 890 4224 378 3800 378 3215 
C 378 3054 416 2777 666 2533 
C 730 2469 998 2276 1171 2154 
C 883 2006 211 1652 211 945 
C 211 282 838 -128 1459 -128 
C 2144 -128 2720 366 2720 1022 
C 2720 1607 2330 1877 2074 2051 
L 1741 2289 
z
M 902 2855 
C 851 2887 595 3086 595 3388 
C 595 3781 998 4076 1459 4076 
C 1965 4076 2336 3716 2336 3298 
C 2336 2700 1670 2359 1638 2359 
C 1632 2359 1626 2359 1574 2398 
L 902 2855 
z
M 2080 1536 
C 2176 1466 2483 1253 2483 861 
C 2483 385 2010 25 1472 25 
C 890 25 448 443 448 951 
C 448 1459 838 1884 1280 2083 
L 2080 1536 
z
" transform="scale(0.015625)"/>
       </defs>
       <use xlink:href="#CMR17-30" transform="scale(0.996264)"/>
       <use xlink:href="#CMMI12-3a" transform="translate(45.690477 0) scale(0.996264)"/>
       <use xlink:href="#CMR17-38" transform="translate(72.787654 0) scale(0.996264)"/>
      </g>
     </g>
    </g>
    <g id="ytick_6">
     <g id="line2d_13">
      <g>
       <use xlink:href="#m4fe5f080b8" x="43.224116" y="65.719534" style="stroke: #000000; stroke-width: 0.8"/>
      </g>
     </g>
     <g id="text_14">
      <!-- $\mathdefault{1.0}$ -->
      <g transform="translate(21.266474 69.870624) scale(0.12 -0.12)">
       <use xlink:href="#CMR17-31" transform="scale(0.996264)"/>
       <use xlink:href="#CMMI12-3a" transform="translate(45.690477 0) scale(0.996264)"/>
       <use xlink:href="#CMR17-30" transform="translate(72.787654 0) scale(0.996264)"/>
      </g>
     </g>
    </g>
    <g id="ytick_7">
     <g id="line2d_14">
      <g>
       <use xlink:href="#m4fe5f080b8" x="43.224116" y="28.314199" style="stroke: #000000; stroke-width: 0.8"/>
      </g>
     </g>
     <g id="text_15">
      <!-- $\mathdefault{1.2}$ -->
      <g transform="translate(21.266474 32.465289) scale(0.12 -0.12)">
       <use xlink:href="#CMR17-31" transform="scale(0.996264)"/>
       <use xlink:href="#CMMI12-3a" transform="translate(45.690477 0) scale(0.996264)"/>
       <use xlink:href="#CMR17-32" transform="translate(72.787654 0) scale(0.996264)"/>
      </g>
     </g>
    </g>
    <g id="text_16">
     <!-- $$v_{int}^{\alpha\beta}$$ -->
     <g transform="translate(14.202661 144.223848) rotate(-90) scale(0.12 -0.12)">
      <defs>
       <path id="CMMI12-76" d="M 2925 2388 
C 2925 2790 2720 2816 2669 2816 
C 2515 2816 2374 2662 2374 2534 
C 2374 2458 2419 2413 2445 2388 
C 2509 2330 2675 2158 2675 1826 
C 2675 1558 2291 64 1523 64 
C 1133 64 1056 389 1056 625 
C 1056 945 1203 1392 1376 1851 
C 1478 2113 1504 2177 1504 2305 
C 1504 2573 1312 2816 998 2816 
C 410 2816 173 1890 173 1838 
C 173 1813 198 1781 243 1781 
C 301 1781 307 1807 333 1896 
C 486 2445 736 2687 979 2687 
C 1037 2687 1146 2687 1146 2477 
C 1146 2311 1075 2126 979 1883 
C 672 1066 672 868 672 715 
C 672 574 691 313 890 134 
C 1120 -64 1440 -64 1498 -64 
C 2560 -64 2925 2024 2925 2388 
z
" transform="scale(0.015625)"/>
       <path id="CMMI12-b" d="M 2963 1615 
C 2963 2234 2611 2816 1933 2816 
C 1094 2816 256 1902 256 996 
C 256 440 602 -64 1254 -64 
C 1651 -64 2125 89 2579 472 
C 2669 115 2867 -64 3142 -64 
C 3488 -64 3661 293 3661 376 
C 3661 434 3616 434 3597 434 
C 3546 434 3539 415 3520 364 
C 3462 204 3315 64 3162 64 
C 2963 64 2963 472 2963 862 
C 3616 1641 3770 2445 3770 2451 
C 3770 2509 3718 2509 3699 2509 
C 3642 2509 3635 2490 3610 2375 
C 3526 2094 3360 1596 2963 1072 
L 2963 1615 
z
M 2560 625 
C 1997 121 1491 64 1267 64 
C 813 64 685 466 685 766 
C 685 1040 826 1692 1024 2043 
C 1286 2490 1645 2687 1933 2687 
C 2554 2687 2554 1877 2554 1340 
C 2554 1181 2547 1015 2547 855 
C 2547 728 2554 696 2560 625 
z
" transform="scale(0.015625)"/>
       <path id="CMMI12-c" d="M 3622 3739 
C 3622 4131 3296 4544 2714 4544 
C 1888 4544 1363 3510 1197 2830 
L 186 -1152 
C 173 -1204 211 -1216 243 -1216 
C 288 -1216 320 -1210 326 -1178 
L 774 592 
C 838 231 1190 -64 1568 -64 
C 2483 -64 3347 657 3347 1618 
C 3347 1863 3290 2108 3155 2314 
C 3078 2437 2982 2527 2880 2599 
C 3341 2823 3622 3222 3622 3739 
z
M 2509 2605 
C 2406 2571 2304 2560 2182 2560 
C 2093 2560 2010 2553 1894 2588 
C 1958 2627 2054 2639 2189 2639 
C 2304 2639 2419 2627 2509 2605 
z
M 3290 3798 
C 3290 3438 3117 2915 2701 2684 
C 2579 2723 2413 2752 2272 2752 
C 2138 2752 1754 2765 1754 2582 
C 1754 2411 2106 2430 2214 2430 
C 2381 2430 2528 2469 2682 2514 
C 2886 2347 2976 2127 2976 1805 
C 2976 1431 2874 1128 2752 850 
C 2541 373 2042 64 1600 64 
C 1133 64 890 438 890 876 
C 890 934 890 1018 915 1115 
L 1331 2784 
C 1542 3641 2080 4413 2701 4413 
C 3162 4413 3290 4086 3290 3798 
z
" transform="scale(0.015625)"/>
       <path id="CMMI12-69" d="M 1811 913 
C 1811 945 1786 970 1747 970 
C 1690 970 1683 951 1651 842 
C 1485 261 1222 64 1011 64 
C 934 64 845 83 845 274 
C 845 447 922 638 992 830 
L 1440 2017 
C 1459 2068 1504 2183 1504 2305 
C 1504 2573 1312 2816 998 2816 
C 410 2816 173 1890 173 1838 
C 173 1813 198 1781 243 1781 
C 301 1781 307 1807 333 1896 
C 486 2432 730 2687 979 2687 
C 1037 2687 1146 2681 1146 2477 
C 1146 2311 1062 2100 1011 1960 
L 563 772 
C 525 670 486 568 486 453 
C 486 166 685 -64 992 -64 
C 1581 -64 1811 868 1811 913 
z
M 1760 4012 
C 1760 4108 1683 4224 1542 4224 
C 1395 4224 1229 4083 1229 3916 
C 1229 3756 1363 3705 1440 3705 
C 1613 3705 1760 3871 1760 4012 
z
" transform="scale(0.015625)"/>
       <path id="CMMI12-6e" d="M 1318 1870 
C 1331 1909 1491 2228 1728 2432 
C 1894 2585 2112 2687 2362 2687 
C 2618 2687 2707 2496 2707 2241 
C 2707 1877 2445 1149 2317 804 
C 2259 651 2227 568 2227 453 
C 2227 166 2426 -64 2733 -64 
C 3328 -64 3552 874 3552 913 
C 3552 945 3526 970 3488 970 
C 3430 970 3424 951 3392 842 
C 3245 319 3002 64 2752 64 
C 2688 64 2586 70 2586 274 
C 2586 434 2656 625 2694 715 
C 2822 1066 3091 1781 3091 2145 
C 3091 2528 2867 2816 2381 2816 
C 1811 2816 1510 2413 1395 2253 
C 1376 2617 1114 2816 832 2816 
C 627 2816 486 2694 378 2477 
C 262 2247 173 1864 173 1838 
C 173 1813 198 1781 243 1781 
C 294 1781 301 1787 339 1934 
C 442 2324 557 2687 813 2687 
C 960 2687 1011 2585 1011 2394 
C 1011 2253 947 2004 902 1807 
L 723 1117 
C 698 996 627 708 595 593 
C 550 427 480 127 480 95 
C 480 6 550 -64 646 -64 
C 723 -64 813 -26 864 70 
C 877 102 934 325 966 453 
L 1107 1028 
L 1318 1870 
z
" transform="scale(0.015625)"/>
       <path id="CMMI12-74" d="M 1286 2566 
L 1875 2566 
C 1997 2566 2061 2566 2061 2681 
C 2061 2752 2022 2752 1894 2752 
L 1331 2752 
L 1568 3664 
C 1594 3752 1594 3764 1594 3808 
C 1594 3910 1510 3968 1427 3968 
C 1376 3968 1229 3948 1178 3746 
L 928 2752 
L 326 2752 
C 198 2752 141 2752 141 2630 
C 141 2566 186 2566 307 2566 
L 877 2566 
L 454 881 
C 403 657 384 593 384 510 
C 384 210 595 -64 954 -64 
C 1600 -64 1946 868 1946 913 
C 1946 951 1920 970 1882 970 
C 1869 970 1843 970 1830 944 
C 1824 938 1818 932 1773 830 
C 1638 510 1344 64 973 64 
C 781 64 768 223 768 364 
C 768 370 768 491 787 568 
L 1286 2566 
z
" transform="scale(0.015625)"/>
      </defs>
      <use xlink:href="#CMMI12-76" transform="scale(0.996264)"/>
      <use xlink:href="#CMMI12-b" transform="translate(50.735173 47.87587) scale(0.697382)"/>
      <use xlink:href="#CMMI12-c" transform="translate(94.611698 47.87587) scale(0.697382)"/>
      <use xlink:href="#CMMI12-69" transform="translate(47.160581 -27.34372) scale(0.697382)"/>
      <use xlink:href="#CMMI12-6e" transform="translate(70.455488 -27.34372) scale(0.697382)"/>
      <use xlink:href="#CMMI12-74" transform="translate(111.216331 -27.34372) scale(0.697382)"/>
     </g>
    </g>
   </g>
   <g id="line2d_15">
    <path d="M 47.976615 -1 
L 50.301796 98.798688 
L 52.661022 148.273101 
L 55.020249 177.121267 
L 57.379475 195.722645 
L 59.738702 208.520162 
L 62.097928 217.731 
L 64.457155 224.583479 
L 66.816381 229.811786 
L 69.175608 233.880823 
L 71.534834 237.098611 
L 73.894061 239.676795 
L 76.253288 241.765206 
L 78.612514 243.472588 
L 80.971741 244.879535 
L 83.330967 246.046857 
L 85.690194 247.021153 
L 88.04942 247.838609 
L 90.408647 248.527658 
L 92.767873 249.110873 
L 95.1271 249.606338 
L 97.486326 250.028661 
L 99.845553 250.389726 
L 102.204779 250.699264 
L 104.564006 250.965293 
L 106.923233 251.194453 
L 109.282459 251.392268 
L 111.641686 251.563357 
L 114.000912 251.711597 
L 116.360139 251.840252 
L 118.719365 251.952082 
L 121.078592 252.049427 
L 123.437818 252.134278 
L 125.797045 252.208331 
L 128.156271 252.273036 
L 130.515498 252.329636 
L 132.874724 252.379197 
L 135.233951 252.422638 
L 137.593178 252.460749 
L 139.952404 252.494214 
L 142.311631 252.523624 
L 144.670857 252.549489 
L 147.030084 252.572255 
L 149.38931 252.592307 
L 151.748537 252.60998 
L 154.107763 252.625566 
L 156.46699 252.639321 
L 158.826216 252.651467 
L 161.185443 252.662197 
L 163.544669 252.671682 
L 165.903896 252.680071 
L 168.263123 252.687494 
L 170.622349 252.694066 
L 172.981576 252.699886 
L 175.340802 252.705042 
L 177.700029 252.709613 
L 180.059255 252.713667 
L 182.418482 252.717263 
L 184.777708 252.720454 
L 187.136935 252.723287 
L 189.496161 252.725803 
L 191.855388 252.728038 
L 194.214614 252.730024 
L 196.573841 252.731789 
L 198.933067 252.733359 
L 201.292294 252.734755 
L 203.651521 252.735998 
L 206.010747 252.737103 
L 208.369974 252.738088 
L 210.7292 252.738964 
L 213.088427 252.739744 
L 215.447653 252.74044 
L 217.80688 252.741059 
L 220.166106 252.741611 
L 222.525333 252.742104 
L 224.884559 252.742543 
L 227.243786 252.742934 
L 229.603012 252.743283 
L 231.962239 252.743595 
L 234.321466 252.743873 
L 236.680692 252.744121 
L 239.039919 252.744342 
L 241.399145 252.74454 
L 243.758372 252.744717 
L 246.117598 252.744874 
L 248.476825 252.745015 
L 250.836051 252.745141 
L 253.195278 252.745253 
L 255.554504 252.745354 
L 257.913731 252.745444 
L 260.272957 252.745524 
L 262.632184 252.745596 
L 264.991411 252.74566 
L 267.350637 252.745718 
L 269.709864 252.745769 
L 272.06909 252.745815 
L 274.428317 252.745856 
L 276.787543 252.745893 
" clip-path="url(#pa5fea0052c)" style="fill: none; stroke: #ff0000; stroke-width: 2; stroke-linecap: square"/>
   </g>
   <g id="line2d_16">
    <path d="M 43.224116 65.719534 
L 45.583343 83.517475 
L 47.942569 99.621718 
L 50.301796 114.19344 
L 52.661022 127.378479 
L 55.020249 139.308796 
L 57.379475 150.103793 
L 59.738702 159.871511 
L 62.097928 168.709707 
L 64.457155 176.706837 
L 66.816381 183.94294 
L 69.175608 190.490437 
L 71.534834 196.414857 
L 73.894061 201.775494 
L 76.253288 206.625999 
L 78.612514 211.014917 
L 80.971741 214.986174 
L 83.330967 218.579517 
L 85.690194 221.830907 
L 88.04942 224.772887 
L 90.408647 227.434901 
L 92.767873 229.84359 
L 95.1271 232.023063 
L 97.486326 233.995131 
L 99.845553 235.779532 
L 102.204779 237.394124 
L 104.564006 238.855068 
L 106.923233 240.176985 
L 109.282459 241.373105 
L 111.641686 242.455399 
L 114.000912 243.434699 
L 116.360139 244.320806 
L 118.719365 245.122589 
L 121.078592 245.848073 
L 123.437818 246.504517 
L 125.797045 247.098493 
L 128.156271 247.635944 
L 130.515498 248.12225 
L 132.874724 248.562278 
L 135.233951 248.960431 
L 137.593178 249.320696 
L 139.952404 249.646676 
L 142.311631 249.941636 
L 144.670857 250.208526 
L 147.030084 250.450019 
L 149.38931 250.66853 
L 151.748537 250.866247 
L 154.107763 251.045149 
L 156.46699 251.207027 
L 158.826216 251.353499 
L 161.185443 251.486033 
L 163.544669 251.605955 
L 165.903896 251.714464 
L 168.263123 251.812648 
L 170.622349 251.901488 
L 172.981576 251.981874 
L 175.340802 252.05461 
L 177.700029 252.120424 
L 180.059255 252.179975 
L 182.418482 252.23386 
L 184.777708 252.282616 
L 187.136935 252.326733 
L 189.496161 252.366651 
L 191.855388 252.402771 
L 194.214614 252.435453 
L 196.573841 252.465026 
L 198.933067 252.491784 
L 201.292294 252.515996 
L 203.651521 252.537903 
L 206.010747 252.557726 
L 208.369974 252.575663 
L 210.7292 252.591892 
L 213.088427 252.606577 
L 215.447653 252.619865 
L 217.80688 252.631888 
L 220.166106 252.642767 
L 222.525333 252.652611 
L 224.884559 252.661518 
L 227.243786 252.669577 
L 229.603012 252.67687 
L 231.962239 252.683468 
L 234.321466 252.689439 
L 236.680692 252.694841 
L 239.039919 252.69973 
L 241.399145 252.704153 
L 243.758372 252.708155 
L 246.117598 252.711776 
L 248.476825 252.715053 
L 250.836051 252.718018 
L 253.195278 252.7207 
L 255.554504 252.723128 
L 257.913731 252.725324 
L 260.272957 252.727312 
L 262.632184 252.72911 
L 264.991411 252.730737 
L 267.350637 252.73221 
L 269.709864 252.733542 
L 272.06909 252.734747 
L 274.428317 252.735838 
L 276.787543 252.736825 
" clip-path="url(#pa5fea0052c)" style="fill: none; stroke: #0000ff; stroke-linecap: square"/>
   </g>
   <g id="line2d_17">
    <path d="M 49.258714 -1 
L 50.301796 44.938792 
L 52.661022 96.890646 
L 55.020249 128.061759 
L 57.379475 148.8425 
L 59.738702 163.685887 
L 62.097928 174.818428 
L 64.457155 183.47707 
L 66.816381 190.403984 
L 69.175608 196.071459 
L 71.534834 200.794355 
L 73.894061 204.790651 
L 76.253288 208.216048 
L 78.612514 211.184725 
L 80.971741 213.782318 
L 83.330967 216.074312 
L 85.690194 218.111639 
L 88.04942 219.934511 
L 90.408647 221.575096 
L 92.767873 223.059435 
L 95.1271 224.408834 
L 97.486326 225.640894 
L 99.845553 226.770282 
L 102.204779 227.809319 
L 104.564006 228.76843 
L 106.923233 229.656496 
L 109.282459 230.481128 
L 111.641686 231.24889 
L 114.000912 231.965467 
L 116.360139 232.635814 
L 118.719365 233.264264 
L 121.078592 233.854626 
L 123.437818 234.41026 
L 125.797045 234.934145 
L 128.156271 235.428924 
L 130.515498 235.896959 
L 132.874724 236.34036 
L 135.233951 236.761023 
L 137.593178 237.160653 
L 139.952404 237.540788 
L 142.311631 237.902822 
L 144.670857 238.248017 
L 147.030084 238.577521 
L 149.38931 238.892381 
L 151.748537 239.193551 
L 154.107763 239.481906 
L 156.46699 239.758245 
L 158.826216 240.023306 
L 161.185443 240.277764 
L 163.544669 240.522243 
L 165.903896 240.757319 
L 168.263123 240.983525 
L 170.622349 241.201352 
L 172.981576 241.411259 
L 175.340802 241.613669 
L 177.700029 241.808976 
L 180.059255 241.997549 
L 182.418482 242.17973 
L 184.777708 242.355838 
L 187.136935 242.526172 
L 189.496161 242.691011 
L 191.855388 242.850618 
L 194.214614 243.005236 
L 196.573841 243.155097 
L 198.933067 243.300417 
L 201.292294 243.441399 
L 203.651521 243.578235 
L 206.010747 243.711104 
L 208.369974 243.840177 
L 210.7292 243.965614 
L 213.088427 244.087566 
L 215.447653 244.206178 
L 217.80688 244.321584 
L 220.166106 244.433912 
L 222.525333 244.543285 
L 224.884559 244.649816 
L 227.243786 244.753616 
L 229.603012 244.854788 
L 231.962239 244.953431 
L 234.321466 245.049638 
L 236.680692 245.143498 
L 239.039919 245.235097 
L 241.399145 245.324515 
L 243.758372 245.411829 
L 246.117598 245.497113 
L 248.476825 245.580436 
L 250.836051 245.661865 
L 253.195278 245.741464 
L 255.554504 245.819295 
L 257.913731 245.895415 
L 260.272957 245.96988 
L 262.632184 246.042744 
L 264.991411 246.114057 
L 267.350637 246.183869 
L 269.709864 246.252227 
L 272.06909 246.319175 
L 274.428317 246.384757 
L 276.787543 246.449014 
" clip-path="url(#pa5fea0052c)" style="fill: none; stroke: #008000; stroke-linecap: square"/>
   </g>
   <g id="patch_3">
    <path d="M 43.224116 252.746209 
L 43.224116 18.962865 
" style="fill: none; stroke: #000000; stroke-width: 0.8; stroke-linejoin: miter; stroke-linecap: square"/>
   </g>
   <g id="patch_4">
    <path d="M 279.14677 252.746209 
L 279.14677 18.962865 
" style="fill: none; stroke: #000000; stroke-width: 0.8; stroke-linejoin: miter; stroke-linecap: square"/>
   </g>
   <g id="patch_5">
    <path d="M 43.224116 252.746209 
L 279.14677 252.746209 
" style="fill: none; stroke: #000000; stroke-width: 0.8; stroke-linejoin: miter; stroke-linecap: square"/>
   </g>
   <g id="patch_6">
    <path d="M 43.224116 18.962865 
L 279.14677 18.962865 
" style="fill: none; stroke: #000000; stroke-width: 0.8; stroke-linejoin: miter; stroke-linecap: square"/>
   </g>
   <g id="text_17">
    <!-- $$r_{int}=3$$ -->
    <g transform="translate(138.30673 12.962865) scale(0.144 -0.144)">
     <defs>
      <path id="CMR17-3d" d="M 4115 2048 
C 4211 2048 4307 2048 4307 2156 
C 4307 2272 4198 2272 4090 2272 
L 512 2272 
C 403 2272 294 2272 294 2156 
C 294 2048 390 2048 486 2048 
L 4115 2048 
z
M 4090 927 
C 4198 927 4307 927 4307 1043 
C 4307 1152 4211 1152 4115 1152 
L 486 1152 
C 390 1152 294 1152 294 1043 
C 294 927 403 927 512 927 
L 4090 927 
z
" transform="scale(0.015625)"/>
     </defs>
     <use xlink:href="#CMMI12-72" transform="scale(0.996264)"/>
     <use xlink:href="#CMMI12-69" transform="translate(43.960894 -14.943915) scale(0.697382)"/>
     <use xlink:href="#CMMI12-6e" transform="translate(67.255802 -14.943915) scale(0.697382)"/>
     <use xlink:href="#CMMI12-74" transform="translate(108.016645 -14.943915) scale(0.697382)"/>
     <use xlink:href="#CMR17-3d" transform="translate(160.847095 0) scale(0.996264)"/>
     <use xlink:href="#CMR17-33" transform="translate(260.235892 0) scale(0.996264)"/>
    </g>
   </g>
   <g id="legend_1">
    <g id="patch_7">
     <path d="M 167.753226 107.765682 
L 270.74677 107.765682 
Q 273.14677 107.765682 273.14677 105.365682 
L 273.14677 27.362865 
Q 273.14677 24.962865 270.74677 24.962865 
L 167.753226 24.962865 
Q 165.353226 24.962865 165.353226 27.362865 
L 165.353226 105.365682 
Q 165.353226 107.765682 167.753226 107.765682 
z
" style="fill: #ffffff; opacity: 0.8; stroke: #cccccc; stroke-linejoin: miter"/>
    </g>
    <g id="line2d_18">
     <path d="M 170.153226 42.617 
L 182.153226 42.617 
L 194.153226 42.617 
" style="fill: none; stroke: #ff0000; stroke-width: 2; stroke-linecap: square"/>
    </g>
    <g id="text_18">
     <!-- $$\frac{\exp(-r/r_{int})}{r}$$ -->
     <g transform="translate(203.753226 46.817) scale(0.12 -0.12)">
      <defs>
       <path id="CMR17-65" d="M 2438 1503 
C 2464 1529 2464 1542 2464 1606 
C 2464 2251 2118 2816 1389 2816 
C 710 2816 173 2175 173 1394 
C 173 554 781 -64 1459 -64 
C 2176 -64 2458 619 2458 755 
C 2458 800 2419 800 2406 800 
C 2362 800 2355 787 2330 709 
C 2189 270 1837 51 1504 51 
C 1229 51 954 206 781 490 
C 582 819 582 1200 582 1503 
L 2438 1503 
z
M 589 1600 
C 634 2511 1126 2713 1382 2713 
C 1818 2713 2112 2308 2118 1600 
L 589 1600 
z
" transform="scale(0.015625)"/>
       <path id="CMR17-78" d="M 1664 1491 
C 1856 1740 2074 2022 2253 2233 
C 2464 2476 2707 2579 2989 2585 
L 2989 2752 
C 2880 2745 2656 2739 2541 2739 
C 2368 2739 2170 2739 2022 2752 
L 2022 2585 
C 2112 2572 2163 2508 2163 2419 
C 2163 2304 2099 2233 2067 2188 
L 1594 1587 
L 1030 2323 
C 973 2393 973 2406 973 2438 
C 973 2515 1037 2579 1146 2585 
L 1146 2752 
C 992 2739 717 2739 557 2739 
C 384 2739 179 2739 38 2752 
L 38 2585 
C 384 2585 461 2560 614 2368 
L 1350 1414 
C 1363 1401 1395 1363 1395 1344 
C 1395 1318 838 633 768 544 
C 480 198 179 172 6 166 
L 6 0 
C 115 6 339 12 454 12 
C 582 12 864 12 979 0 
L 979 166 
C 941 172 838 185 838 332 
C 838 448 890 518 947 595 
L 1478 1248 
L 2035 524 
C 2086 454 2163 358 2163 313 
C 2163 224 2086 172 1984 166 
L 1984 0 
C 2138 12 2413 12 2573 12 
C 2746 12 2950 12 3091 0 
L 3091 166 
C 2771 166 2675 179 2522 377 
L 1664 1491 
z
" transform="scale(0.015625)"/>
       <path id="CMR17-70" d="M 1408 -1114 
C 998 -1114 973 -1088 973 -834 
L 973 380 
C 1158 109 1427 -64 1766 -64 
C 2406 -64 3053 503 3053 1382 
C 3053 2196 2496 2816 1837 2816 
C 1453 2816 1139 2603 960 2345 
L 960 2816 
L 198 2745 
L 198 2577 
C 576 2577 634 2539 634 2228 
L 634 -834 
C 634 -1081 608 -1114 198 -1114 
L 198 -1280 
C 352 -1268 634 -1268 800 -1268 
C 966 -1268 1254 -1268 1408 -1280 
L 1408 -1114 
z
M 973 2015 
C 973 2106 973 2241 1222 2481 
C 1254 2506 1472 2700 1792 2700 
C 2259 2700 2643 2112 2643 1376 
C 2643 639 2234 38 1728 38 
C 1498 38 1248 148 1056 451 
C 973 594 973 632 973 736 
L 973 2015 
z
" transform="scale(0.015625)"/>
       <path id="CMR17-28" d="M 1958 -1562 
C 1958 -1556 1958 -1543 1939 -1524 
C 1645 -1223 858 -403 858 1596 
C 858 3595 1632 4408 1946 4729 
C 1946 4735 1958 4748 1958 4767 
C 1958 4787 1939 4800 1914 4800 
C 1843 4800 1299 4325 986 3620 
C 666 2909 576 2218 576 1603 
C 576 1141 621 360 1005 -467 
C 1312 -1133 1837 -1600 1914 -1600 
C 1946 -1600 1958 -1588 1958 -1562 
z
" transform="scale(0.015625)"/>
       <path id="CMSY10-0" d="M 4218 1472 
C 4326 1472 4442 1472 4442 1600 
C 4442 1728 4326 1728 4218 1728 
L 755 1728 
C 646 1728 531 1728 531 1600 
C 531 1472 646 1472 755 1472 
L 4218 1472 
z
" transform="scale(0.015625)"/>
       <path id="CMMI12-3d" d="M 2746 4563 
C 2746 4569 2784 4665 2784 4678 
C 2784 4755 2720 4800 2669 4800 
C 2637 4800 2579 4800 2528 4659 
L 384 -1364 
C 384 -1370 346 -1466 346 -1479 
C 346 -1556 410 -1600 461 -1600 
C 499 -1600 557 -1594 602 -1460 
L 2746 4563 
z
" transform="scale(0.015625)"/>
       <path id="CMR17-29" d="M 1683 1596 
C 1683 2057 1638 2839 1254 3665 
C 947 4332 422 4800 346 4800 
C 326 4800 301 4793 301 4761 
C 301 4748 307 4742 314 4729 
C 621 4408 1402 3595 1402 1603 
C 1402 -396 627 -1210 314 -1530 
C 307 -1543 301 -1549 301 -1562 
C 301 -1594 326 -1600 346 -1600 
C 416 -1600 960 -1127 1274 -422 
C 1594 289 1683 981 1683 1596 
z
" transform="scale(0.015625)"/>
      </defs>
      <use xlink:href="#CMR17-65" transform="translate(0 67.398045) scale(0.996264)"/>
      <use xlink:href="#CMR17-78" transform="translate(40.48566 67.398045) scale(0.996264)"/>
      <use xlink:href="#CMR17-70" transform="translate(88.778576 67.398045) scale(0.996264)"/>
      <use xlink:href="#CMR17-28" transform="translate(139.673946 67.398045) scale(0.996264)"/>
      <use xlink:href="#CMSY10-0" transform="translate(174.954714 67.398045) scale(0.996264)"/>
      <use xlink:href="#CMMI12-72" transform="translate(252.442182 67.398045) scale(0.996264)"/>
      <use xlink:href="#CMMI12-3d" transform="translate(299.112794 67.398045) scale(0.996264)"/>
      <use xlink:href="#CMMI12-72" transform="translate(347.887712 67.398045) scale(0.996264)"/>
      <use xlink:href="#CMMI12-69" transform="translate(391.848607 52.45413) scale(0.697382)"/>
      <use xlink:href="#CMMI12-6e" transform="translate(415.143514 52.45413) scale(0.697382)"/>
      <use xlink:href="#CMMI12-74" transform="translate(455.904357 52.45413) scale(0.697382)"/>
      <use xlink:href="#CMR17-29" transform="translate(481.060799 67.398045) scale(0.996264)"/>
      <use xlink:href="#CMMI12-72" transform="translate(234.835477 -68.338837) scale(0.996264)"/>
      <path d="M 0 22.914133 
L 516.341566 22.914133 
L 516.341566 26.899083 
L 0 26.899083 
L 0 22.914133 
z
"/>
     </g>
    </g>
    <g id="line2d_19">
     <path d="M 170.153226 65.784038 
L 182.153226 65.784038 
L 194.153226 65.784038 
" style="fill: none; stroke: #0000ff; stroke-linecap: square"/>
    </g>
    <g id="text_19">
     <!-- $$\exp(-r/r_{int})$$ -->
     <g transform="translate(203.753226 69.984038) scale(0.12 -0.12)">
      <use xlink:href="#CMR17-65" transform="scale(0.996264)"/>
      <use xlink:href="#CMR17-78" transform="translate(40.48566 0) scale(0.996264)"/>
      <use xlink:href="#CMR17-70" transform="translate(88.778576 0) scale(0.996264)"/>
      <use xlink:href="#CMR17-28" transform="translate(139.673946 0) scale(0.996264)"/>
      <use xlink:href="#CMSY10-0" transform="translate(174.954714 0) scale(0.996264)"/>
      <use xlink:href="#CMMI12-72" transform="translate(252.442182 0) scale(0.996264)"/>
      <use xlink:href="#CMMI12-3d" transform="translate(299.112794 0) scale(0.996264)"/>
      <use xlink:href="#CMMI12-72" transform="translate(347.887712 0) scale(0.996264)"/>
      <use xlink:href="#CMMI12-69" transform="translate(391.848607 -14.943915) scale(0.697382)"/>
      <use xlink:href="#CMMI12-6e" transform="translate(415.143514 -14.943915) scale(0.697382)"/>
      <use xlink:href="#CMMI12-74" transform="translate(455.904357 -14.943915) scale(0.697382)"/>
      <use xlink:href="#CMR17-29" transform="translate(481.060799 0) scale(0.996264)"/>
     </g>
    </g>
    <g id="line2d_20">
     <path d="M 170.153226 90.565019 
L 182.153226 90.565019 
L 194.153226 90.565019 
" style="fill: none; stroke: #008000; stroke-linecap: square"/>
    </g>
    <g id="text_20">
     <!-- $$\frac{1}{r}$$ -->
     <g transform="translate(203.753226 94.765019) scale(0.12 -0.12)">
      <use xlink:href="#CMR17-31" transform="translate(0.490075 67.398045) scale(0.996264)"/>
      <use xlink:href="#CMMI12-72" transform="translate(0 -68.338837) scale(0.996264)"/>
      <path d="M 0 22.914133 
L 46.670612 22.914133 
L 46.670612 26.899083 
L 0 26.899083 
L 0 22.914133 
z
"/>
     </g>
    </g>
   </g>
  </g>
 </g>
 <defs>
  <clipPath id="pa5fea0052c">
   <rect x="43.224116" y="18.962865" width="235.922654" height="233.783344"/>
  </clipPath>
 </defs>
</svg>
