<?xml version="1.0" encoding="UTF-8" standalone="no"?>
<!-- Created with Inkscape (http://www.inkscape.org/) -->

<svg
   width="5cm"
   height="5cm"
   viewBox="0 0 50 50"
   version="1.1"
   id="svg5"
   inkscape:version="1.2.2 (b0a8486541, 2022-12-01)"
   sodipodi:docname="C1_P12_数学の定理1.2-10図10.svg"
   inkscape:export-filename="C1_P12_数学の定理1.2-10図10.pdf"
   inkscape:export-xdpi="96"
   inkscape:export-ydpi="96"
   xmlns:inkscape="http://www.inkscape.org/namespaces/inkscape"
   xmlns:sodipodi="http://sodipodi.sourceforge.net/DTD/sodipodi-0.dtd"
   xmlns="http://www.w3.org/2000/svg"
   xmlns:svg="http://www.w3.org/2000/svg">
  <sodipodi:namedview
     id="namedview7"
     pagecolor="#ffffff"
     bordercolor="#000000"
     borderopacity="0.25"
     inkscape:showpageshadow="2"
     inkscape:pageopacity="0.0"
     inkscape:pagecheckerboard="0"
     inkscape:deskcolor="#d1d1d1"
     inkscape:document-units="mm"
     showgrid="true"
     inkscape:zoom="2.2974469"
     inkscape:cx="91.623445"
     inkscape:cy="100.11113"
     inkscape:window-width="1303"
     inkscape:window-height="748"
     inkscape:window-x="76"
     inkscape:window-y="41"
     inkscape:window-maximized="0"
     inkscape:current-layer="layer1">
    <inkscape:grid
       type="xygrid"
       id="grid6514"
       dotted="false"
       units="mm"
       spacingx="5"
       spacingy="5" />
    <inkscape:grid
       type="xygrid"
       id="grid7242" />
    <inkscape:grid
       type="xygrid"
       id="grid7244" />
  </sodipodi:namedview>
  <defs
     id="defs2">
    <rect
       x="78.398415"
       y="139.18444"
       width="37.046625"
       height="27.759258"
       id="rect5255" />
    <clipPath
       id="clipPath4742">
      <path
         clip-rule="nonzero"
         d="M 2,0 H 8 V 24.742188 H 2 Z m 0,0"
         id="path8908" />
    </clipPath>
    <clipPath
       id="clipPath821">
      <path
         clip-rule="nonzero"
         d="m 43,0 h 7 v 24.742188 h -7 z m 0,0"
         id="path8351" />
    </clipPath>
    <clipPath
       id="clipPath4424">
      <path
         clip-rule="nonzero"
         d="M 1,0 H 5 V 14.347656 H 1 Z m 0,0"
         id="path8279" />
    </clipPath>
    <clipPath
       id="clipPath9221">
      <path
         clip-rule="nonzero"
         d="m 25,0 h 5 v 14.347656 h -5 z m 0,0"
         id="path342" />
    </clipPath>
    <clipPath
       id="clipPath903">
      <path
         clip-rule="nonzero"
         d="M 1,0 H 5 V 14.347656 H 1 Z m 0,0"
         id="path6956" />
    </clipPath>
    <clipPath
       id="clipPath8387">
      <path
         clip-rule="nonzero"
         d="m 27,0 h 4 v 14.347656 h -4 z m 0,0"
         id="path3228" />
    </clipPath>
    <clipPath
       id="clipPath6506">
      <path
         clip-rule="nonzero"
         d="M 1,0 H 5 V 14.347656 H 1 Z m 0,0"
         id="path3262" />
    </clipPath>
    <clipPath
       id="clipPath1237">
      <path
         clip-rule="nonzero"
         d="m 27,0 h 5 v 14.347656 h -5 z m 0,0"
         id="path4286" />
    </clipPath>
    <clipPath
       id="clipPath1698">
      <path
         clip-rule="nonzero"
         d="M 1,0 H 5 V 14.347656 H 1 Z m 0,0"
         id="path7968" />
    </clipPath>
    <clipPath
       id="clipPath4495">
      <path
         clip-rule="nonzero"
         d="m 26,0 h 4 v 14.347656 h -4 z m 0,0"
         id="path6333" />
    </clipPath>
    <clipPath
       id="clipPath8734">
      <path
         clip-rule="nonzero"
         d="m 12,0 h 4 v 14.347656 h -4 z m 0,0"
         id="path6413" />
    </clipPath>
    <clipPath
       id="clipPath4851">
      <path
         clip-rule="nonzero"
         d="m 24,0 h 4 v 14.347656 h -4 z m 0,0"
         id="path4389" />
    </clipPath>
    <clipPath
       id="clipPath7725">
      <path
         clip-rule="nonzero"
         d="m 12,0 h 4 v 14.347656 h -4 z m 0,0"
         id="path3432" />
    </clipPath>
    <clipPath
       id="clipPath3101">
      <path
         clip-rule="nonzero"
         d="m 25,0 h 4 v 14.347656 h -4 z m 0,0"
         id="path9884" />
    </clipPath>
    <clipPath
       id="clipPath8578">
      <path
         clip-rule="nonzero"
         d="m 9,0 h 5 V 14.347656 H 9 Z m 0,0"
         id="path8027" />
    </clipPath>
    <clipPath
       id="clipPath666">
      <path
         clip-rule="nonzero"
         d="m 36,0 h 4 v 14.347656 h -4 z m 0,0"
         id="path4197" />
    </clipPath>
    <clipPath
       id="clipPath6642">
      <path
         clip-rule="nonzero"
         d="m 9,0 h 5 V 14.347656 H 9 Z m 0,0"
         id="path3554" />
    </clipPath>
    <clipPath
       id="clipPath1352">
      <path
         clip-rule="nonzero"
         d="m 34,0 h 5 v 14.347656 h -5 z m 0,0"
         id="path2908" />
    </clipPath>
    <clipPath
       id="clipPath7820">
      <path
         clip-rule="nonzero"
         d="m 9,0 h 5 V 14.347656 H 9 Z m 0,0"
         id="path9857" />
    </clipPath>
    <clipPath
       id="clipPath7822">
      <path
         clip-rule="nonzero"
         d="m 35,0 h 4 v 14.347656 h -4 z m 0,0"
         id="path4081" />
    </clipPath>
    <clipPath
       id="clipPath3755">
      <path
         clip-rule="nonzero"
         d="m 9,0 h 5 V 14.347656 H 9 Z m 0,0"
         id="path609" />
    </clipPath>
    <clipPath
       id="clipPath6609">
      <path
         clip-rule="nonzero"
         d="m 34,0 h 4 v 14.347656 h -4 z m 0,0"
         id="path850" />
    </clipPath>
  </defs>
  <g
     inkscape:label="Layer 1"
     inkscape:groupmode="layer"
     id="layer1">
    <rect
       style="fill:none;stroke:#000000;stroke-width:0.469;stroke-linejoin:miter;stroke-miterlimit:1;stroke-dasharray:none;paint-order:stroke markers fill"
       id="rect288"
       width="21.854698"
       height="13.338212"
       x="13.267116"
       y="23.921555" />
    <rect
       style="fill:none;stroke:#000000;stroke-width:0.199265;stroke-linejoin:miter;stroke-miterlimit:1;stroke-dasharray:1.59412, 1.59412;stroke-dashoffset:0;paint-order:stroke markers fill"
       id="rect288-3"
       width="15.29703"
       height="26.492208"
       x="3.2201011"
       y="17.580572" />
    <rect
       style="fill:none;stroke:#000000;stroke-width:0.202;stroke-linejoin:miter;stroke-miterlimit:1;stroke-dasharray:1.616, 1.616;stroke-dashoffset:0;paint-order:stroke markers fill"
       id="rect288-3-6"
       width="15.996537"
       height="26.040047"
       x="30.243427"
       y="17.975842" />
    <g
       inkscape:label=""
       transform="translate(6.6396705,5.9476111)"
       id="g5712">
      <g
         fill="#000000"
         fill-opacity="1"
         id="g26"
         transform="matrix(0.352778,0,0,0.352778,-0.23151,-0.00317494)">
        <g
           id="use24"
           transform="translate(0,10.759)">
          <path
             d="m 4.265625,-4.671875 h 1.375 c 1.09375,0 1.171875,0.234375 1.171875,0.65625 0,0.1875 -0.03125,0.390625 -0.09375,0.703125 -0.03125,0.0625 -0.046875,0.125 -0.046875,0.15625 0,0.09375 0.0625,0.15625 0.15625,0.15625 0.109375,0 0.125,-0.0625 0.1875,-0.28125 L 7.84375,-6.625 c 0,-0.0625 -0.046875,-0.140625 -0.140625,-0.140625 -0.125,0 -0.140625,0.046875 -0.203125,0.296875 -0.296875,1.078125 -0.59375,1.375 -1.828125,1.375 h -1.3125 l 0.9375,-3.71875 c 0.125,-0.5 0.15625,-0.546875 0.734375,-0.546875 h 1.921875 c 1.796875,0 2.0625,0.53125 2.0625,1.5625 0,0.078125 0,0.390625 -0.046875,0.765625 -0.015625,0.0625 -0.046875,0.25 -0.046875,0.296875 0,0.125 0.078125,0.171875 0.15625,0.171875 0.109375,0 0.15625,-0.0625 0.1875,-0.328125 l 0.3125,-2.5 c 0,-0.046875 0.01563,-0.1875 0.01563,-0.21875 0,-0.15625 -0.125,-0.15625 -0.375,-0.15625 h -6.8125 c -0.265625,0 -0.40625,0 -0.40625,0.25 0,0.15625 0.09375,0.15625 0.34375,0.15625 0.890625,0 0.890625,0.109375 0.890625,0.265625 0,0.078125 -0.015625,0.125 -0.0625,0.28125 l -1.9375,7.75 c -0.125,0.5 -0.15625,0.640625 -1.15625,0.640625 -0.28125,0 -0.421875,0 -0.421875,0.265625 C 0.65625,0 0.78125,0 0.875,0 1.140625,0 1.4375,-0.03125 1.703125,-0.03125 h 1.875 c 0.3125,0 0.65625,0.03125 0.96875,0.03125 0.125,0 0.296875,0 0.296875,-0.265625 0,-0.15625 -0.078125,-0.15625 -0.390625,-0.15625 -1.140625,0 -1.171875,-0.09375 -1.171875,-0.3125 0,-0.0625 0.03125,-0.1875 0.0625,-0.28125 z m 0,0"
             id="path48" />
        </g>
      </g>
      <g
         clip-path="url(#clipPath8734)"
         id="g32"
         transform="matrix(0.352778,0,0,0.352778,-0.23151,-0.00317494)">
        <g
           fill="#000000"
           fill-opacity="1"
           id="g30">
          <g
             id="use28"
             transform="translate(11.044,10.759)">
            <path
               d="m 4.65625,3.484375 c 0,-0.046875 0,-0.078125 -0.234375,-0.3125 -1.4375,-1.453125 -2.234375,-3.8125 -2.234375,-6.75 0,-2.78125 0.671875,-5.171875 2.328125,-6.859375 0.140625,-0.140625 0.140625,-0.15625 0.140625,-0.203125 0,-0.09375 -0.0625,-0.109375 -0.125,-0.109375 -0.1875,0 -1.359375,1.03125 -2.0625,2.4375 -0.734375,1.4375 -1.0625,2.984375 -1.0625,4.734375 0,1.28125 0.203125,2.984375 0.953125,4.53125 0.84375,1.71875 2.015625,2.640625 2.171875,2.640625 0.0625,0 0.125,-0.015625 0.125,-0.109375 z m 0,0"
               id="path52" />
          </g>
        </g>
      </g>
      <g
         fill="#000000"
         fill-opacity="1"
         id="g36"
         transform="matrix(0.352778,0,0,0.352778,-0.23151,-0.00317494)">
        <g
           id="use34"
           transform="translate(16.507,10.759)">
          <path
             d="M 4.3125,-1.703125 C 4.25,-1.46875 4.25,-1.4375 4.046875,-1.15625 c -0.3125,0.390625 -0.953125,1.015625 -1.625,1.015625 -0.578125,0 -0.921875,-0.53125 -0.921875,-1.375 0,-0.796875 0.453125,-2.40625 0.71875,-3 0.5,-1 1.171875,-1.515625 1.71875,-1.515625 0.953125,0 1.140625,1.171875 1.140625,1.28125 0,0.015625 -0.046875,0.203125 -0.0625,0.234375 z M 5.234375,-5.375 C 5.078125,-5.75 4.6875,-6.328125 3.9375,-6.328125 c -1.609375,0 -3.359375,2.09375 -3.359375,4.21875 0,1.421875 0.828125,2.25 1.796875,2.25 0.796875,0 1.46875,-0.609375 1.875,-1.09375 0.140625,0.859375 0.8125,1.09375 1.25,1.09375 0.421875,0 0.765625,-0.25 1.03125,-0.765625 C 6.75,-1.125 6.953125,-2 6.953125,-2.046875 6.953125,-2.125 6.90625,-2.1875 6.8125,-2.1875 c -0.125,0 -0.140625,0.078125 -0.203125,0.296875 -0.21875,0.84375 -0.484375,1.75 -1.078125,1.75 -0.40625,0 -0.4375,-0.375 -0.4375,-0.65625 0,-0.34375 0.046875,-0.5 0.171875,-1.046875 0.09375,-0.359375 0.171875,-0.6875 0.28125,-1.09375 0.53125,-2.15625 0.65625,-2.671875 0.65625,-2.75 0,-0.203125 -0.15625,-0.359375 -0.359375,-0.359375 -0.46875,0 -0.578125,0.5 -0.609375,0.671875 z m 0,0"
             id="path56" />
        </g>
      </g>
      <g
         clip-path="url(#clipPath4851)"
         id="g42"
         transform="matrix(0.352778,0,0,0.352778,-0.23151,-0.00317494)">
        <g
           fill="#000000"
           fill-opacity="1"
           id="g40">
          <g
             id="use38"
             transform="translate(23.881001,10.759)">
            <path
               d="M 4.046875,-3.578125 C 4.046875,-4.65625 3.90625,-6.4375 3.09375,-8.109375 2.25,-9.828125 1.078125,-10.75 0.921875,-10.75 c -0.0625,0 -0.140625,0.01563 -0.140625,0.109375 0,0.04687 0,0.0625 0.25,0.3125 1.4375,1.453125 2.234375,3.8125 2.234375,6.75 0,2.78125 -0.671875,5.171875 -2.328125,6.859375 -0.15625,0.125 -0.15625,0.15625 -0.15625,0.203125 0,0.09375 0.078125,0.109375 0.140625,0.109375 0.1875,0 1.359375,-1.03125 2.0625,-2.4375 0.734375,-1.453125 1.0625,-3 1.0625,-4.734375 z m 0,0"
               id="path60" />
          </g>
        </g>
      </g>
    </g>
    <g
       inkscape:label=""
       transform="translate(33.533464,5.837368)"
       id="g6715">
      <g
         fill="#000000"
         fill-opacity="1"
         id="g6691"
         transform="matrix(0.352778,0,0,0.352778,-0.23151,-0.00317494)">
        <g
           id="g6689"
           transform="translate(0,10.759)">
          <path
             d="m 4.265625,-4.671875 h 1.375 c 1.09375,0 1.171875,0.234375 1.171875,0.65625 0,0.1875 -0.03125,0.390625 -0.09375,0.703125 -0.03125,0.0625 -0.046875,0.125 -0.046875,0.15625 0,0.09375 0.0625,0.15625 0.15625,0.15625 0.109375,0 0.125,-0.0625 0.1875,-0.28125 L 7.84375,-6.625 c 0,-0.0625 -0.046875,-0.140625 -0.140625,-0.140625 -0.125,0 -0.140625,0.046875 -0.203125,0.296875 -0.296875,1.078125 -0.59375,1.375 -1.828125,1.375 h -1.3125 l 0.9375,-3.71875 c 0.125,-0.5 0.15625,-0.546875 0.734375,-0.546875 h 1.921875 c 1.796875,0 2.0625,0.53125 2.0625,1.5625 0,0.078125 0,0.390625 -0.046875,0.765625 -0.015625,0.0625 -0.046875,0.25 -0.046875,0.296875 0,0.125 0.078125,0.171875 0.15625,0.171875 0.109375,0 0.15625,-0.0625 0.1875,-0.328125 l 0.3125,-2.5 c 0,-0.046875 0.01563,-0.1875 0.01563,-0.21875 0,-0.15625 -0.125,-0.15625 -0.375,-0.15625 h -6.8125 c -0.265625,0 -0.40625,0 -0.40625,0.25 0,0.15625 0.09375,0.15625 0.34375,0.15625 0.890625,0 0.890625,0.109375 0.890625,0.265625 0,0.078125 -0.015625,0.125 -0.0625,0.28125 l -1.9375,7.75 c -0.125,0.5 -0.15625,0.640625 -1.15625,0.640625 -0.28125,0 -0.421875,0 -0.421875,0.265625 C 0.65625,0 0.78125,0 0.875,0 1.140625,0 1.4375,-0.03125 1.703125,-0.03125 h 1.875 c 0.3125,0 0.65625,0.03125 0.96875,0.03125 0.125,0 0.296875,0 0.296875,-0.265625 0,-0.15625 -0.078125,-0.15625 -0.390625,-0.15625 -1.140625,0 -1.171875,-0.09375 -1.171875,-0.3125 0,-0.0625 0.03125,-0.1875 0.0625,-0.28125 z m 0,0"
             id="path6687" />
        </g>
      </g>
      <g
         clip-path="url(#clipPath7725)"
         id="g6699"
         transform="matrix(0.352778,0,0,0.352778,-0.23151,-0.00317494)">
        <g
           fill="#000000"
           fill-opacity="1"
           id="g6697">
          <g
             id="g6695"
             transform="translate(11.044,10.759)">
            <path
               d="m 4.65625,3.484375 c 0,-0.046875 0,-0.078125 -0.234375,-0.3125 -1.4375,-1.453125 -2.234375,-3.8125 -2.234375,-6.75 0,-2.78125 0.671875,-5.171875 2.328125,-6.859375 0.140625,-0.140625 0.140625,-0.15625 0.140625,-0.203125 0,-0.09375 -0.0625,-0.109375 -0.125,-0.109375 -0.1875,0 -1.359375,1.03125 -2.0625,2.4375 -0.734375,1.4375 -1.0625,2.984375 -1.0625,4.734375 0,1.28125 0.203125,2.984375 0.953125,4.53125 0.84375,1.71875 2.015625,2.640625 2.171875,2.640625 0.0625,0 0.125,-0.015625 0.125,-0.109375 z m 0,0"
               id="path6693" />
          </g>
        </g>
      </g>
      <g
         fill="#000000"
         fill-opacity="1"
         id="g6705"
         transform="matrix(0.352778,0,0,0.352778,-0.23151,-0.00317494)">
        <g
           id="g6703"
           transform="translate(16.507,10.759)">
          <path
             d="m 6.796875,-5.859375 c -0.453125,0.09375 -0.625,0.4375 -0.625,0.703125 0,0.34375 0.265625,0.46875 0.46875,0.46875 0.4375,0 0.734375,-0.375 0.734375,-0.765625 0,-0.59375 -0.6875,-0.875 -1.296875,-0.875 -0.875,0 -1.359375,0.859375 -1.484375,1.140625 C 4.265625,-6.265625 3.375,-6.328125 3.109375,-6.328125 1.65625,-6.328125 0.875,-4.453125 0.875,-4.125 0.875,-4.078125 0.9375,-4 1.03125,-4 1.140625,-4 1.171875,-4.09375 1.203125,-4.140625 1.6875,-5.734375 2.65625,-6.03125 3.0625,-6.03125 c 0.65625,0 0.78125,0.59375 0.78125,0.9375 0,0.3125 -0.078125,0.640625 -0.265625,1.328125 l -0.484375,1.96875 c -0.203125,0.859375 -0.625,1.65625 -1.390625,1.65625 -0.0625,0 -0.421875,0 -0.734375,-0.1875 0.515625,-0.109375 0.640625,-0.53125 0.640625,-0.703125 0,-0.28125 -0.21875,-0.453125 -0.484375,-0.453125 -0.34375,0 -0.71875,0.296875 -0.71875,0.75 0,0.609375 0.671875,0.875 1.28125,0.875 0.6875,0 1.1875,-0.546875 1.484375,-1.125 0.234375,0.84375 0.9375,1.125 1.46875,1.125 1.46875,0 2.25,-1.875 2.25,-2.1875 0,-0.078125 -0.0625,-0.140625 -0.15625,-0.140625 -0.125,0 -0.140625,0.078125 -0.171875,0.1875 -0.390625,1.265625 -1.234375,1.859375 -1.875,1.859375 -0.5,0 -0.765625,-0.375 -0.765625,-0.96875 0,-0.3125 0.046875,-0.546875 0.28125,-1.484375 l 0.5,-1.953125 C 4.921875,-5.40625 5.40625,-6.03125 6.0625,-6.03125 c 0.03125,0 0.4375,0 0.734375,0.171875 z m 0,0"
             id="path6701" />
        </g>
      </g>
      <g
         clip-path="url(#clipPath3101)"
         id="g6713"
         transform="matrix(0.352778,0,0,0.352778,-0.23151,-0.00317494)">
        <g
           fill="#000000"
           fill-opacity="1"
           id="g6711">
          <g
             id="g6709"
             transform="translate(24.49,10.759)">
            <path
               d="M 4.046875,-3.578125 C 4.046875,-4.65625 3.90625,-6.4375 3.09375,-8.109375 2.25,-9.828125 1.078125,-10.75 0.921875,-10.75 c -0.0625,0 -0.140625,0.01563 -0.140625,0.109375 0,0.04687 0,0.0625 0.25,0.3125 1.4375,1.453125 2.234375,3.8125 2.234375,6.75 0,2.78125 -0.671875,5.171875 -2.328125,6.859375 -0.15625,0.125 -0.15625,0.15625 -0.15625,0.203125 0,0.09375 0.078125,0.109375 0.140625,0.109375 0.1875,0 1.359375,-1.03125 2.0625,-2.4375 0.734375,-1.453125 1.0625,-3 1.0625,-4.734375 z m 0,0"
               id="path6707" />
          </g>
        </g>
      </g>
    </g>
    <g
       inkscape:label=""
       transform="translate(31.591273,18.83961)"
       id="g819">
      <g
         fill="#000000"
         fill-opacity="1"
         id="g799"
         transform="matrix(0.352778,0,0,0.352778,-0.259071,-0.00317494)">
        <g
           id="use30"
           transform="translate(0,10.759)">
          <path
             d="m 6.390625,-5.765625 c 0.296875,0 0.40625,0 0.40625,-0.265625 0,-0.15625 -0.109375,-0.15625 -0.375,-0.15625 h -1.15625 c 0.265625,-1.46875 0.46875,-2.484375 0.59375,-2.953125 0.078125,-0.34375 0.375,-0.671875 0.75,-0.671875 0.296875,0 0.609375,0.125 0.75,0.265625 C 6.796875,-9.5 6.625,-9.078125 6.625,-8.828125 c 0,0.28125 0.21875,0.453125 0.484375,0.453125 0.296875,0 0.71875,-0.25 0.71875,-0.796875 0,-0.59375 -0.59375,-0.921875 -1.234375,-0.921875 -0.609375,0 -1.21875,0.453125 -1.5,1.015625 -0.265625,0.5 -0.40625,1.015625 -0.734375,2.890625 H 3.40625 c -0.28125,0 -0.421875,0 -0.421875,0.265625 0,0.15625 0.078125,0.15625 0.375,0.15625 H 4.28125 C 4.015625,-4.4375 3.421875,-1.1875 3.09375,0.34375 c -0.234375,1.25 -0.453125,2.296875 -1.171875,2.296875 -0.046875,0 -0.453125,0 -0.71875,-0.28125 C 1.9375,2.3125 1.9375,1.671875 1.9375,1.65625 1.9375,1.375 1.71875,1.203125 1.453125,1.203125 c -0.296875,0 -0.71875,0.25 -0.71875,0.796875 0,0.609375 0.625,0.921875 1.1875,0.921875 1.46875,0 2.0625,-2.625 2.21875,-3.34375 0.265625,-1.09375 0.96875,-4.90625 1.03125,-5.34375 z m 0,0"
             id="path796" />
        </g>
      </g>
      <g
         clip-path="url(#clipPath8578)"
         id="g38"
         transform="matrix(0.352778,0,0,0.352778,-0.259071,-0.00317494)">
        <g
           fill="#000000"
           fill-opacity="1"
           id="g804">
          <g
             id="g802"
             transform="translate(8.4560003,10.759)">
            <path
               d="m 4.65625,3.484375 c 0,-0.046875 0,-0.078125 -0.234375,-0.3125 -1.4375,-1.453125 -2.234375,-3.8125 -2.234375,-6.75 0,-2.78125 0.671875,-5.171875 2.328125,-6.859375 0.140625,-0.140625 0.140625,-0.15625 0.140625,-0.203125 0,-0.09375 -0.0625,-0.109375 -0.125,-0.109375 -0.1875,0 -1.359375,1.03125 -2.0625,2.4375 -0.734375,1.4375 -1.0625,2.984375 -1.0625,4.734375 0,1.28125 0.203125,2.984375 0.953125,4.53125 0.84375,1.71875 2.015625,2.640625 2.171875,2.640625 0.0625,0 0.125,-0.015625 0.125,-0.109375 z m 0,0"
               id="path64" />
          </g>
        </g>
      </g>
      <g
         fill="#000000"
         fill-opacity="1"
         id="g44"
         transform="matrix(0.352778,0,0,0.352778,-0.259071,-0.00317494)">
        <g
           id="use40"
           transform="translate(13.918,10.759)">
          <path
             d="m 6.796875,-5.859375 c -0.453125,0.09375 -0.625,0.4375 -0.625,0.703125 0,0.34375 0.265625,0.46875 0.46875,0.46875 0.4375,0 0.734375,-0.375 0.734375,-0.765625 0,-0.59375 -0.6875,-0.875 -1.296875,-0.875 -0.875,0 -1.359375,0.859375 -1.484375,1.140625 C 4.265625,-6.265625 3.375,-6.328125 3.109375,-6.328125 1.65625,-6.328125 0.875,-4.453125 0.875,-4.125 0.875,-4.078125 0.9375,-4 1.03125,-4 1.140625,-4 1.171875,-4.09375 1.203125,-4.140625 1.6875,-5.734375 2.65625,-6.03125 3.0625,-6.03125 c 0.65625,0 0.78125,0.59375 0.78125,0.9375 0,0.3125 -0.078125,0.640625 -0.265625,1.328125 l -0.484375,1.96875 c -0.203125,0.859375 -0.625,1.65625 -1.390625,1.65625 -0.0625,0 -0.421875,0 -0.734375,-0.1875 0.515625,-0.109375 0.640625,-0.53125 0.640625,-0.703125 0,-0.28125 -0.21875,-0.453125 -0.484375,-0.453125 -0.34375,0 -0.71875,0.296875 -0.71875,0.75 0,0.609375 0.671875,0.875 1.28125,0.875 0.6875,0 1.1875,-0.546875 1.484375,-1.125 0.234375,0.84375 0.9375,1.125 1.46875,1.125 1.46875,0 2.25,-1.875 2.25,-2.1875 0,-0.078125 -0.0625,-0.140625 -0.15625,-0.140625 -0.125,0 -0.140625,0.078125 -0.171875,0.1875 -0.390625,1.265625 -1.234375,1.859375 -1.875,1.859375 -0.5,0 -0.765625,-0.375 -0.765625,-0.96875 0,-0.3125 0.046875,-0.546875 0.28125,-1.484375 l 0.5,-1.953125 C 4.921875,-5.40625 5.40625,-6.03125 6.0625,-6.03125 c 0.03125,0 0.4375,0 0.734375,0.171875 z m 0,0"
             id="path68" />
        </g>
        <g
           id="use42"
           transform="translate(21.900227,10.759)">
          <path
             d="m 2.796875,0.0625 c 0,-0.84375 -0.265625,-1.453125 -0.859375,-1.453125 -0.453125,0 -0.6875,0.375 -0.6875,0.6875 C 1.25,-0.390625 1.46875,0 1.953125,0 c 0.1875,0 0.34375,-0.0625 0.46875,-0.1875 0.03125,-0.03125 0.046875,-0.03125 0.0625,-0.03125 0.03125,0 0.03125,0.203125 0.03125,0.28125 0,0.46875 -0.09375,1.40625 -0.921875,2.328125 C 1.4375,2.5625 1.4375,2.59375 1.4375,2.625 c 0,0.078125 0.0625,0.140625 0.140625,0.140625 0.109375,0 1.21875,-1.0625 1.21875,-2.703125 z m 0,0"
             id="path72" />
        </g>
      </g>
      <g
         fill="#000000"
         fill-opacity="1"
         id="g48"
         transform="matrix(0.352778,0,0,0.352778,-0.259071,-0.00317494)">
        <g
           id="use46"
           transform="translate(28.198208,10.759)">
          <path
             d="m 3.765625,1.609375 c -0.375,0.546875 -0.9375,1.03125 -1.640625,1.03125 -0.171875,0 -0.859375,-0.03125 -1.078125,-0.6875 C 1.09375,1.96875 1.15625,1.96875 1.1875,1.96875 c 0.4375,0 0.71875,-0.375 0.71875,-0.703125 C 1.90625,0.9375 1.640625,0.8125 1.421875,0.8125 1.1875,0.8125 0.6875,0.984375 0.6875,1.6875 c 0,0.734375 0.625,1.234375 1.4375,1.234375 1.4375,0 2.875,-1.3125 3.28125,-2.90625 l 1.40625,-5.59375 c 0.015625,-0.078125 0.046875,-0.15625 0.046875,-0.25 0,-0.203125 -0.171875,-0.359375 -0.390625,-0.359375 -0.125,0 -0.4375,0.0625 -0.546875,0.5 l -1.0625,4.203125 c -0.0625,0.265625 -0.0625,0.296875 -0.1875,0.453125 -0.28125,0.40625 -0.75,0.890625 -1.4375,0.890625 -0.8125,0 -0.875,-0.796875 -0.875,-1.171875 0,-0.828125 0.375,-1.921875 0.765625,-2.96875 0.15625,-0.40625 0.25,-0.609375 0.25,-0.890625 0,-0.609375 -0.4375,-1.15625 -1.140625,-1.15625 -1.3125,0 -1.84375,2.078125 -1.84375,2.203125 0,0.046875 0.046875,0.125 0.15625,0.125 C 0.671875,-4 0.6875,-4.0625 0.75,-4.265625 1.09375,-5.46875 1.640625,-6.03125 2.1875,-6.03125 c 0.140625,0 0.375,0 0.375,0.46875 0,0.375 -0.15625,0.78125 -0.375,1.328125 -0.703125,1.875 -0.703125,2.359375 -0.703125,2.703125 0,1.359375 0.984375,1.671875 1.703125,1.671875 0.40625,0 0.921875,-0.125 1.4375,-0.65625 L 4.640625,-0.5 c -0.21875,0.84375 -0.359375,1.40625 -0.875,2.109375 z m 0,0"
             id="path76" />
        </g>
      </g>
      <g
         clip-path="url(#clipPath666)"
         id="g54"
         transform="matrix(0.352778,0,0,0.352778,-0.259071,-0.00317494)">
        <g
           fill="#000000"
           fill-opacity="1"
           id="g52">
          <g
             id="use50"
             transform="translate(35.557999,10.759)">
            <path
               d="M 4.046875,-3.578125 C 4.046875,-4.65625 3.90625,-6.4375 3.09375,-8.109375 2.25,-9.828125 1.078125,-10.75 0.921875,-10.75 c -0.0625,0 -0.140625,0.01563 -0.140625,0.109375 0,0.04687 0,0.0625 0.25,0.3125 1.4375,1.453125 2.234375,3.8125 2.234375,6.75 0,2.78125 -0.671875,5.171875 -2.328125,6.859375 -0.15625,0.125 -0.15625,0.15625 -0.15625,0.203125 0,0.09375 0.078125,0.109375 0.140625,0.109375 0.1875,0 1.359375,-1.03125 2.0625,-2.4375 0.734375,-1.453125 1.0625,-3 1.0625,-4.734375 z m 0,0"
               id="path80" />
          </g>
        </g>
      </g>
    </g>
    <g
       inkscape:label=""
       transform="translate(31.008536,38.112853)"
       id="g1305">
      <g
         fill="#000000"
         fill-opacity="1"
         id="g1271"
         transform="matrix(0.352778,0,0,0.352778,-0.259071,-0.00317494)">
        <g
           id="g1269"
           transform="translate(0,10.759)">
          <path
             d="m 6.390625,-5.765625 c 0.296875,0 0.40625,0 0.40625,-0.265625 0,-0.15625 -0.109375,-0.15625 -0.375,-0.15625 h -1.15625 c 0.265625,-1.46875 0.46875,-2.484375 0.59375,-2.953125 0.078125,-0.34375 0.375,-0.671875 0.75,-0.671875 0.296875,0 0.609375,0.125 0.75,0.265625 C 6.796875,-9.5 6.625,-9.078125 6.625,-8.828125 c 0,0.28125 0.21875,0.453125 0.484375,0.453125 0.296875,0 0.71875,-0.25 0.71875,-0.796875 0,-0.59375 -0.59375,-0.921875 -1.234375,-0.921875 -0.609375,0 -1.21875,0.453125 -1.5,1.015625 -0.265625,0.5 -0.40625,1.015625 -0.734375,2.890625 H 3.40625 c -0.28125,0 -0.421875,0 -0.421875,0.265625 0,0.15625 0.078125,0.15625 0.375,0.15625 H 4.28125 C 4.015625,-4.4375 3.421875,-1.1875 3.09375,0.34375 c -0.234375,1.25 -0.453125,2.296875 -1.171875,2.296875 -0.046875,0 -0.453125,0 -0.71875,-0.28125 C 1.9375,2.3125 1.9375,1.671875 1.9375,1.65625 1.9375,1.375 1.71875,1.203125 1.453125,1.203125 c -0.296875,0 -0.71875,0.25 -0.71875,0.796875 0,0.609375 0.625,0.921875 1.1875,0.921875 1.46875,0 2.0625,-2.625 2.21875,-3.34375 0.265625,-1.09375 0.96875,-4.90625 1.03125,-5.34375 z m 0,0"
             id="path1267" />
        </g>
      </g>
      <g
         clip-path="url(#clipPath6642)"
         id="g1279"
         transform="matrix(0.352778,0,0,0.352778,-0.259071,-0.00317494)">
        <g
           fill="#000000"
           fill-opacity="1"
           id="g1277">
          <g
             id="g1275"
             transform="translate(8.4560003,10.759)">
            <path
               d="m 4.65625,3.484375 c 0,-0.046875 0,-0.078125 -0.234375,-0.3125 -1.4375,-1.453125 -2.234375,-3.8125 -2.234375,-6.75 0,-2.78125 0.671875,-5.171875 2.328125,-6.859375 0.140625,-0.140625 0.140625,-0.15625 0.140625,-0.203125 0,-0.09375 -0.0625,-0.109375 -0.125,-0.109375 -0.1875,0 -1.359375,1.03125 -2.0625,2.4375 -0.734375,1.4375 -1.0625,2.984375 -1.0625,4.734375 0,1.28125 0.203125,2.984375 0.953125,4.53125 0.84375,1.71875 2.015625,2.640625 2.171875,2.640625 0.0625,0 0.125,-0.015625 0.125,-0.109375 z m 0,0"
               id="path1273" />
          </g>
        </g>
      </g>
      <g
         fill="#000000"
         fill-opacity="1"
         id="g1289"
         transform="matrix(0.352778,0,0,0.352778,-0.259071,-0.00317494)">
        <g
           id="g1283"
           transform="translate(13.918,10.759)">
          <path
             d="m 6.796875,-5.859375 c -0.453125,0.09375 -0.625,0.4375 -0.625,0.703125 0,0.34375 0.265625,0.46875 0.46875,0.46875 0.4375,0 0.734375,-0.375 0.734375,-0.765625 0,-0.59375 -0.6875,-0.875 -1.296875,-0.875 -0.875,0 -1.359375,0.859375 -1.484375,1.140625 C 4.265625,-6.265625 3.375,-6.328125 3.109375,-6.328125 1.65625,-6.328125 0.875,-4.453125 0.875,-4.125 0.875,-4.078125 0.9375,-4 1.03125,-4 1.140625,-4 1.171875,-4.09375 1.203125,-4.140625 1.6875,-5.734375 2.65625,-6.03125 3.0625,-6.03125 c 0.65625,0 0.78125,0.59375 0.78125,0.9375 0,0.3125 -0.078125,0.640625 -0.265625,1.328125 l -0.484375,1.96875 c -0.203125,0.859375 -0.625,1.65625 -1.390625,1.65625 -0.0625,0 -0.421875,0 -0.734375,-0.1875 0.515625,-0.109375 0.640625,-0.53125 0.640625,-0.703125 0,-0.28125 -0.21875,-0.453125 -0.484375,-0.453125 -0.34375,0 -0.71875,0.296875 -0.71875,0.75 0,0.609375 0.671875,0.875 1.28125,0.875 0.6875,0 1.1875,-0.546875 1.484375,-1.125 0.234375,0.84375 0.9375,1.125 1.46875,1.125 1.46875,0 2.25,-1.875 2.25,-2.1875 0,-0.078125 -0.0625,-0.140625 -0.15625,-0.140625 -0.125,0 -0.140625,0.078125 -0.171875,0.1875 -0.390625,1.265625 -1.234375,1.859375 -1.875,1.859375 -0.5,0 -0.765625,-0.375 -0.765625,-0.96875 0,-0.3125 0.046875,-0.546875 0.28125,-1.484375 l 0.5,-1.953125 C 4.921875,-5.40625 5.40625,-6.03125 6.0625,-6.03125 c 0.03125,0 0.4375,0 0.734375,0.171875 z m 0,0"
             id="path1281" />
        </g>
        <g
           id="g1287"
           transform="translate(21.900227,10.759)">
          <path
             d="m 2.796875,0.0625 c 0,-0.84375 -0.265625,-1.453125 -0.859375,-1.453125 -0.453125,0 -0.6875,0.375 -0.6875,0.6875 C 1.25,-0.390625 1.46875,0 1.953125,0 c 0.1875,0 0.34375,-0.0625 0.46875,-0.1875 0.03125,-0.03125 0.046875,-0.03125 0.0625,-0.03125 0.03125,0 0.03125,0.203125 0.03125,0.28125 0,0.46875 -0.09375,1.40625 -0.921875,2.328125 C 1.4375,2.5625 1.4375,2.59375 1.4375,2.625 c 0,0.078125 0.0625,0.140625 0.140625,0.140625 0.109375,0 1.21875,-1.0625 1.21875,-2.703125 z m 0,0"
             id="path1285" />
        </g>
      </g>
      <g
         fill="#000000"
         fill-opacity="1"
         id="g1295"
         transform="matrix(0.352778,0,0,0.352778,-0.259071,-0.00317494)">
        <g
           id="g1293"
           transform="translate(28.198208,10.759)">
          <path
             d="m 3.3125,-9.59375 c 0.015625,-0.0625 0.046875,-0.140625 0.046875,-0.21875 0,-0.140625 -0.140625,-0.140625 -0.171875,-0.140625 -0.015625,0 -0.53125,0.046875 -0.796875,0.0625 -0.234375,0.015625 -0.453125,0.046875 -0.71875,0.0625 -0.34375,0.03125 -0.4375,0.046875 -0.4375,0.296875 0,0.15625 0.140625,0.15625 0.28125,0.15625 C 2.25,-9.375 2.25,-9.25 2.25,-9.109375 c 0,0.09375 -0.109375,0.515625 -0.171875,0.78125 l -0.34375,1.375 C 1.59375,-6.390625 0.78125,-3.125 0.71875,-2.875 c -0.078125,0.359375 -0.078125,0.609375 -0.078125,0.796875 0,1.46875 0.828125,2.21875 1.75,2.21875 1.671875,0 3.390625,-2.140625 3.390625,-4.21875 0,-1.3125 -0.75,-2.25 -1.828125,-2.25 -0.734375,0 -1.421875,0.625 -1.6875,0.90625 z m -0.90625,9.453125 c -0.453125,0 -0.953125,-0.34375 -0.953125,-1.46875 0,-0.46875 0.03125,-0.75 0.296875,-1.75 0.046875,-0.1875 0.265625,-1.09375 0.328125,-1.28125 0.03125,-0.125 0.875,-1.390625 1.859375,-1.390625 0.625,0 0.90625,0.625 0.90625,1.375 0,0.6875 -0.390625,2.296875 -0.75,3.046875 -0.359375,0.78125 -1.03125,1.46875 -1.6875,1.46875 z m 0,0"
             id="path1291" />
        </g>
      </g>
      <g
         clip-path="url(#clipPath1352)"
         id="g1303"
         transform="matrix(0.352778,0,0,0.352778,-0.259071,-0.00317494)">
        <g
           fill="#000000"
           fill-opacity="1"
           id="g1301">
          <g
             id="g1299"
             transform="translate(34.166,10.759)">
            <path
               d="M 4.046875,-3.578125 C 4.046875,-4.65625 3.90625,-6.4375 3.09375,-8.109375 2.25,-9.828125 1.078125,-10.75 0.921875,-10.75 c -0.0625,0 -0.140625,0.01563 -0.140625,0.109375 0,0.04687 0,0.0625 0.25,0.3125 1.4375,1.453125 2.234375,3.8125 2.234375,6.75 0,2.78125 -0.671875,5.171875 -2.328125,6.859375 -0.15625,0.125 -0.15625,0.15625 -0.15625,0.203125 0,0.09375 0.078125,0.109375 0.140625,0.109375 0.1875,0 1.359375,-1.03125 2.0625,-2.4375 0.734375,-1.453125 1.0625,-3 1.0625,-4.734375 z m 0,0"
               id="path1297" />
          </g>
        </g>
      </g>
    </g>
    <g
       inkscape:label=""
       transform="translate(4.2176179,18.415874)"
       id="g1695">
      <g
         fill="#000000"
         fill-opacity="1"
         id="g1661"
         transform="matrix(0.352778,0,0,0.352778,-0.259071,-0.00317494)">
        <g
           id="g1659"
           transform="translate(0,10.759)">
          <path
             d="m 6.390625,-5.765625 c 0.296875,0 0.40625,0 0.40625,-0.265625 0,-0.15625 -0.109375,-0.15625 -0.375,-0.15625 h -1.15625 c 0.265625,-1.46875 0.46875,-2.484375 0.59375,-2.953125 0.078125,-0.34375 0.375,-0.671875 0.75,-0.671875 0.296875,0 0.609375,0.125 0.75,0.265625 C 6.796875,-9.5 6.625,-9.078125 6.625,-8.828125 c 0,0.28125 0.21875,0.453125 0.484375,0.453125 0.296875,0 0.71875,-0.25 0.71875,-0.796875 0,-0.59375 -0.59375,-0.921875 -1.234375,-0.921875 -0.609375,0 -1.21875,0.453125 -1.5,1.015625 -0.265625,0.5 -0.40625,1.015625 -0.734375,2.890625 H 3.40625 c -0.28125,0 -0.421875,0 -0.421875,0.265625 0,0.15625 0.078125,0.15625 0.375,0.15625 H 4.28125 C 4.015625,-4.4375 3.421875,-1.1875 3.09375,0.34375 c -0.234375,1.25 -0.453125,2.296875 -1.171875,2.296875 -0.046875,0 -0.453125,0 -0.71875,-0.28125 C 1.9375,2.3125 1.9375,1.671875 1.9375,1.65625 1.9375,1.375 1.71875,1.203125 1.453125,1.203125 c -0.296875,0 -0.71875,0.25 -0.71875,0.796875 0,0.609375 0.625,0.921875 1.1875,0.921875 1.46875,0 2.0625,-2.625 2.21875,-3.34375 0.265625,-1.09375 0.96875,-4.90625 1.03125,-5.34375 z m 0,0"
             id="path1657" />
        </g>
      </g>
      <g
         clip-path="url(#clipPath7820)"
         id="g1669"
         transform="matrix(0.352778,0,0,0.352778,-0.259071,-0.00317494)">
        <g
           fill="#000000"
           fill-opacity="1"
           id="g1667">
          <g
             id="g1665"
             transform="translate(8.4560003,10.759)">
            <path
               d="m 4.65625,3.484375 c 0,-0.046875 0,-0.078125 -0.234375,-0.3125 -1.4375,-1.453125 -2.234375,-3.8125 -2.234375,-6.75 0,-2.78125 0.671875,-5.171875 2.328125,-6.859375 0.140625,-0.140625 0.140625,-0.15625 0.140625,-0.203125 0,-0.09375 -0.0625,-0.109375 -0.125,-0.109375 -0.1875,0 -1.359375,1.03125 -2.0625,2.4375 -0.734375,1.4375 -1.0625,2.984375 -1.0625,4.734375 0,1.28125 0.203125,2.984375 0.953125,4.53125 0.84375,1.71875 2.015625,2.640625 2.171875,2.640625 0.0625,0 0.125,-0.015625 0.125,-0.109375 z m 0,0"
               id="path1663" />
          </g>
        </g>
      </g>
      <g
         fill="#000000"
         fill-opacity="1"
         id="g1679"
         transform="matrix(0.352778,0,0,0.352778,-0.259071,-0.00317494)">
        <g
           id="g1673"
           transform="translate(13.918,10.759)">
          <path
             d="M 4.3125,-1.703125 C 4.25,-1.46875 4.25,-1.4375 4.046875,-1.15625 c -0.3125,0.390625 -0.953125,1.015625 -1.625,1.015625 -0.578125,0 -0.921875,-0.53125 -0.921875,-1.375 0,-0.796875 0.453125,-2.40625 0.71875,-3 0.5,-1 1.171875,-1.515625 1.71875,-1.515625 0.953125,0 1.140625,1.171875 1.140625,1.28125 0,0.015625 -0.046875,0.203125 -0.0625,0.234375 z M 5.234375,-5.375 C 5.078125,-5.75 4.6875,-6.328125 3.9375,-6.328125 c -1.609375,0 -3.359375,2.09375 -3.359375,4.21875 0,1.421875 0.828125,2.25 1.796875,2.25 0.796875,0 1.46875,-0.609375 1.875,-1.09375 0.140625,0.859375 0.8125,1.09375 1.25,1.09375 0.421875,0 0.765625,-0.25 1.03125,-0.765625 C 6.75,-1.125 6.953125,-2 6.953125,-2.046875 6.953125,-2.125 6.90625,-2.1875 6.8125,-2.1875 c -0.125,0 -0.140625,0.078125 -0.203125,0.296875 -0.21875,0.84375 -0.484375,1.75 -1.078125,1.75 -0.40625,0 -0.4375,-0.375 -0.4375,-0.65625 0,-0.34375 0.046875,-0.5 0.171875,-1.046875 0.09375,-0.359375 0.171875,-0.6875 0.28125,-1.09375 0.53125,-2.15625 0.65625,-2.671875 0.65625,-2.75 0,-0.203125 -0.15625,-0.359375 -0.359375,-0.359375 -0.46875,0 -0.578125,0.5 -0.609375,0.671875 z m 0,0"
             id="path1671" />
        </g>
        <g
           id="g1677"
           transform="translate(21.291946,10.759)">
          <path
             d="m 2.796875,0.0625 c 0,-0.84375 -0.265625,-1.453125 -0.859375,-1.453125 -0.453125,0 -0.6875,0.375 -0.6875,0.6875 C 1.25,-0.390625 1.46875,0 1.953125,0 c 0.1875,0 0.34375,-0.0625 0.46875,-0.1875 0.03125,-0.03125 0.046875,-0.03125 0.0625,-0.03125 0.03125,0 0.03125,0.203125 0.03125,0.28125 0,0.46875 -0.09375,1.40625 -0.921875,2.328125 C 1.4375,2.5625 1.4375,2.59375 1.4375,2.625 c 0,0.078125 0.0625,0.140625 0.140625,0.140625 0.109375,0 1.21875,-1.0625 1.21875,-2.703125 z m 0,0"
             id="path1675" />
        </g>
      </g>
      <g
         fill="#000000"
         fill-opacity="1"
         id="g1685"
         transform="matrix(0.352778,0,0,0.352778,-0.259071,-0.00317494)">
        <g
           id="g1683"
           transform="translate(27.58993,10.759)">
          <path
             d="m 3.765625,1.609375 c -0.375,0.546875 -0.9375,1.03125 -1.640625,1.03125 -0.171875,0 -0.859375,-0.03125 -1.078125,-0.6875 C 1.09375,1.96875 1.15625,1.96875 1.1875,1.96875 c 0.4375,0 0.71875,-0.375 0.71875,-0.703125 C 1.90625,0.9375 1.640625,0.8125 1.421875,0.8125 1.1875,0.8125 0.6875,0.984375 0.6875,1.6875 c 0,0.734375 0.625,1.234375 1.4375,1.234375 1.4375,0 2.875,-1.3125 3.28125,-2.90625 l 1.40625,-5.59375 c 0.015625,-0.078125 0.046875,-0.15625 0.046875,-0.25 0,-0.203125 -0.171875,-0.359375 -0.390625,-0.359375 -0.125,0 -0.4375,0.0625 -0.546875,0.5 l -1.0625,4.203125 c -0.0625,0.265625 -0.0625,0.296875 -0.1875,0.453125 -0.28125,0.40625 -0.75,0.890625 -1.4375,0.890625 -0.8125,0 -0.875,-0.796875 -0.875,-1.171875 0,-0.828125 0.375,-1.921875 0.765625,-2.96875 0.15625,-0.40625 0.25,-0.609375 0.25,-0.890625 0,-0.609375 -0.4375,-1.15625 -1.140625,-1.15625 -1.3125,0 -1.84375,2.078125 -1.84375,2.203125 0,0.046875 0.046875,0.125 0.15625,0.125 C 0.671875,-4 0.6875,-4.0625 0.75,-4.265625 1.09375,-5.46875 1.640625,-6.03125 2.1875,-6.03125 c 0.140625,0 0.375,0 0.375,0.46875 0,0.375 -0.15625,0.78125 -0.375,1.328125 -0.703125,1.875 -0.703125,2.359375 -0.703125,2.703125 0,1.359375 0.984375,1.671875 1.703125,1.671875 0.40625,0 0.921875,-0.125 1.4375,-0.65625 L 4.640625,-0.5 c -0.21875,0.84375 -0.359375,1.40625 -0.875,2.109375 z m 0,0"
             id="path1681" />
        </g>
      </g>
      <g
         clip-path="url(#clipPath7822)"
         id="g1693"
         transform="matrix(0.352778,0,0,0.352778,-0.259071,-0.00317494)">
        <g
           fill="#000000"
           fill-opacity="1"
           id="g1691">
          <g
             id="g1689"
             transform="translate(34.949001,10.759)">
            <path
               d="M 4.046875,-3.578125 C 4.046875,-4.65625 3.90625,-6.4375 3.09375,-8.109375 2.25,-9.828125 1.078125,-10.75 0.921875,-10.75 c -0.0625,0 -0.140625,0.01563 -0.140625,0.109375 0,0.04687 0,0.0625 0.25,0.3125 1.4375,1.453125 2.234375,3.8125 2.234375,6.75 0,2.78125 -0.671875,5.171875 -2.328125,6.859375 -0.15625,0.125 -0.15625,0.15625 -0.15625,0.203125 0,0.09375 0.078125,0.109375 0.140625,0.109375 0.1875,0 1.359375,-1.03125 2.0625,-2.4375 0.734375,-1.453125 1.0625,-3 1.0625,-4.734375 z m 0,0"
               id="path1687" />
          </g>
        </g>
      </g>
    </g>
    <g
       inkscape:label=""
       transform="translate(3.9636059,38.125688)"
       id="g2085">
      <g
         fill="#000000"
         fill-opacity="1"
         id="g2051"
         transform="matrix(0.352778,0,0,0.352778,-0.259071,-0.00317494)">
        <g
           id="g2049"
           transform="translate(0,10.759)">
          <path
             d="m 6.390625,-5.765625 c 0.296875,0 0.40625,0 0.40625,-0.265625 0,-0.15625 -0.109375,-0.15625 -0.375,-0.15625 h -1.15625 c 0.265625,-1.46875 0.46875,-2.484375 0.59375,-2.953125 0.078125,-0.34375 0.375,-0.671875 0.75,-0.671875 0.296875,0 0.609375,0.125 0.75,0.265625 C 6.796875,-9.5 6.625,-9.078125 6.625,-8.828125 c 0,0.28125 0.21875,0.453125 0.484375,0.453125 0.296875,0 0.71875,-0.25 0.71875,-0.796875 0,-0.59375 -0.59375,-0.921875 -1.234375,-0.921875 -0.609375,0 -1.21875,0.453125 -1.5,1.015625 -0.265625,0.5 -0.40625,1.015625 -0.734375,2.890625 H 3.40625 c -0.28125,0 -0.421875,0 -0.421875,0.265625 0,0.15625 0.078125,0.15625 0.375,0.15625 H 4.28125 C 4.015625,-4.4375 3.421875,-1.1875 3.09375,0.34375 c -0.234375,1.25 -0.453125,2.296875 -1.171875,2.296875 -0.046875,0 -0.453125,0 -0.71875,-0.28125 C 1.9375,2.3125 1.9375,1.671875 1.9375,1.65625 1.9375,1.375 1.71875,1.203125 1.453125,1.203125 c -0.296875,0 -0.71875,0.25 -0.71875,0.796875 0,0.609375 0.625,0.921875 1.1875,0.921875 1.46875,0 2.0625,-2.625 2.21875,-3.34375 0.265625,-1.09375 0.96875,-4.90625 1.03125,-5.34375 z m 0,0"
             id="path2047" />
        </g>
      </g>
      <g
         clip-path="url(#clipPath3755)"
         id="g2059"
         transform="matrix(0.352778,0,0,0.352778,-0.259071,-0.00317494)">
        <g
           fill="#000000"
           fill-opacity="1"
           id="g2057">
          <g
             id="g2055"
             transform="translate(8.4560003,10.759)">
            <path
               d="m 4.65625,3.484375 c 0,-0.046875 0,-0.078125 -0.234375,-0.3125 -1.4375,-1.453125 -2.234375,-3.8125 -2.234375,-6.75 0,-2.78125 0.671875,-5.171875 2.328125,-6.859375 0.140625,-0.140625 0.140625,-0.15625 0.140625,-0.203125 0,-0.09375 -0.0625,-0.109375 -0.125,-0.109375 -0.1875,0 -1.359375,1.03125 -2.0625,2.4375 -0.734375,1.4375 -1.0625,2.984375 -1.0625,4.734375 0,1.28125 0.203125,2.984375 0.953125,4.53125 0.84375,1.71875 2.015625,2.640625 2.171875,2.640625 0.0625,0 0.125,-0.015625 0.125,-0.109375 z m 0,0"
               id="path2053" />
          </g>
        </g>
      </g>
      <g
         fill="#000000"
         fill-opacity="1"
         id="g2069"
         transform="matrix(0.352778,0,0,0.352778,-0.259071,-0.00317494)">
        <g
           id="g2063"
           transform="translate(13.918,10.759)">
          <path
             d="M 4.3125,-1.703125 C 4.25,-1.46875 4.25,-1.4375 4.046875,-1.15625 c -0.3125,0.390625 -0.953125,1.015625 -1.625,1.015625 -0.578125,0 -0.921875,-0.53125 -0.921875,-1.375 0,-0.796875 0.453125,-2.40625 0.71875,-3 0.5,-1 1.171875,-1.515625 1.71875,-1.515625 0.953125,0 1.140625,1.171875 1.140625,1.28125 0,0.015625 -0.046875,0.203125 -0.0625,0.234375 z M 5.234375,-5.375 C 5.078125,-5.75 4.6875,-6.328125 3.9375,-6.328125 c -1.609375,0 -3.359375,2.09375 -3.359375,4.21875 0,1.421875 0.828125,2.25 1.796875,2.25 0.796875,0 1.46875,-0.609375 1.875,-1.09375 0.140625,0.859375 0.8125,1.09375 1.25,1.09375 0.421875,0 0.765625,-0.25 1.03125,-0.765625 C 6.75,-1.125 6.953125,-2 6.953125,-2.046875 6.953125,-2.125 6.90625,-2.1875 6.8125,-2.1875 c -0.125,0 -0.140625,0.078125 -0.203125,0.296875 -0.21875,0.84375 -0.484375,1.75 -1.078125,1.75 -0.40625,0 -0.4375,-0.375 -0.4375,-0.65625 0,-0.34375 0.046875,-0.5 0.171875,-1.046875 0.09375,-0.359375 0.171875,-0.6875 0.28125,-1.09375 0.53125,-2.15625 0.65625,-2.671875 0.65625,-2.75 0,-0.203125 -0.15625,-0.359375 -0.359375,-0.359375 -0.46875,0 -0.578125,0.5 -0.609375,0.671875 z m 0,0"
             id="path2061" />
        </g>
        <g
           id="g2067"
           transform="translate(21.291946,10.759)">
          <path
             d="m 2.796875,0.0625 c 0,-0.84375 -0.265625,-1.453125 -0.859375,-1.453125 -0.453125,0 -0.6875,0.375 -0.6875,0.6875 C 1.25,-0.390625 1.46875,0 1.953125,0 c 0.1875,0 0.34375,-0.0625 0.46875,-0.1875 0.03125,-0.03125 0.046875,-0.03125 0.0625,-0.03125 0.03125,0 0.03125,0.203125 0.03125,0.28125 0,0.46875 -0.09375,1.40625 -0.921875,2.328125 C 1.4375,2.5625 1.4375,2.59375 1.4375,2.625 c 0,0.078125 0.0625,0.140625 0.140625,0.140625 0.109375,0 1.21875,-1.0625 1.21875,-2.703125 z m 0,0"
             id="path2065" />
        </g>
      </g>
      <g
         fill="#000000"
         fill-opacity="1"
         id="g2075"
         transform="matrix(0.352778,0,0,0.352778,-0.259071,-0.00317494)">
        <g
           id="g2073"
           transform="translate(27.58993,10.759)">
          <path
             d="m 3.3125,-9.59375 c 0.015625,-0.0625 0.046875,-0.140625 0.046875,-0.21875 0,-0.140625 -0.140625,-0.140625 -0.171875,-0.140625 -0.015625,0 -0.53125,0.046875 -0.796875,0.0625 -0.234375,0.015625 -0.453125,0.046875 -0.71875,0.0625 -0.34375,0.03125 -0.4375,0.046875 -0.4375,0.296875 0,0.15625 0.140625,0.15625 0.28125,0.15625 C 2.25,-9.375 2.25,-9.25 2.25,-9.109375 c 0,0.09375 -0.109375,0.515625 -0.171875,0.78125 l -0.34375,1.375 C 1.59375,-6.390625 0.78125,-3.125 0.71875,-2.875 c -0.078125,0.359375 -0.078125,0.609375 -0.078125,0.796875 0,1.46875 0.828125,2.21875 1.75,2.21875 1.671875,0 3.390625,-2.140625 3.390625,-4.21875 0,-1.3125 -0.75,-2.25 -1.828125,-2.25 -0.734375,0 -1.421875,0.625 -1.6875,0.90625 z m -0.90625,9.453125 c -0.453125,0 -0.953125,-0.34375 -0.953125,-1.46875 0,-0.46875 0.03125,-0.75 0.296875,-1.75 0.046875,-0.1875 0.265625,-1.09375 0.328125,-1.28125 0.03125,-0.125 0.875,-1.390625 1.859375,-1.390625 0.625,0 0.90625,0.625 0.90625,1.375 0,0.6875 -0.390625,2.296875 -0.75,3.046875 -0.359375,0.78125 -1.03125,1.46875 -1.6875,1.46875 z m 0,0"
             id="path2071" />
        </g>
      </g>
      <g
         clip-path="url(#clipPath6609)"
         id="g2083"
         transform="matrix(0.352778,0,0,0.352778,-0.259071,-0.00317494)">
        <g
           fill="#000000"
           fill-opacity="1"
           id="g2081">
          <g
             id="g2079"
             transform="translate(33.557999,10.759)">
            <path
               d="M 4.046875,-3.578125 C 4.046875,-4.65625 3.90625,-6.4375 3.09375,-8.109375 2.25,-9.828125 1.078125,-10.75 0.921875,-10.75 c -0.0625,0 -0.140625,0.01563 -0.140625,0.109375 0,0.04687 0,0.0625 0.25,0.3125 1.4375,1.453125 2.234375,3.8125 2.234375,6.75 0,2.78125 -0.671875,5.171875 -2.328125,6.859375 -0.15625,0.125 -0.15625,0.15625 -0.15625,0.203125 0,0.09375 0.078125,0.109375 0.140625,0.109375 0.1875,0 1.359375,-1.03125 2.0625,-2.4375 0.734375,-1.453125 1.0625,-3 1.0625,-4.734375 z m 0,0"
               id="path2077" />
          </g>
        </g>
      </g>
    </g>
    <text
       xml:space="preserve"
       transform="scale(0.26458333)"
       id="text5253"
       style="font-size:24px;white-space:pre;shape-inside:url(#rect5255);display:inline;fill:#000000;stroke:#000000;stroke-width:6.43276;stroke-miterlimit:1;stroke-dasharray:none;stroke-dashoffset:0;paint-order:stroke markers fill" />
    <path
       style="fill:none;stroke:#000000;stroke-width:0.3;stroke-miterlimit:1;stroke-dasharray:none;stroke-dashoffset:0;paint-order:stroke markers fill"
       d="m 8.4666667,14.287502 2.6458333,-2.381251 2.645834,2.381251 h -1.5875 v 2.645834 h -2.116667 v -2.645834 z"
       id="path5419"
       sodipodi:nodetypes="cccccccc" />
    <path
       style="fill:none;stroke:#000000;stroke-width:0.3;stroke-miterlimit:1;stroke-dasharray:none;stroke-dashoffset:0;paint-order:stroke markers fill"
       d="m 35.189583,14.287502 2.645833,-2.38125 2.645834,2.38125 h -1.5875 v 2.645834 h -2.116667 v -2.645834 z"
       id="path5419-3"
       sodipodi:nodetypes="cccccccc" />
    <circle
       id="path5421"
       style="fill:#000000;stroke:none;stroke-width:0.264583"
       cx="11.732916"
       cy="44.366333"
       r="0" />
  </g>
</svg>
